SplineFontDB: 3.2
FontName: Reijima-Bold
FullName: Reijima Bold
FamilyName: Reijima
Weight: Bold
Copyright: Copyright (c) 2019 by Coji Morishita. All rights reserved.
Version: 1.000
ItalicAngle: 0
UnderlinePosition: -100
UnderlineWidth: 50
Ascent: 860
Descent: 140
InvalidEm: 0
LayerCount: 2
Layer: 0 0 "Back" 1
Layer: 1 0 "Fore" 0
FSType: 8
OS2Version: 0
OS2_WeightWidthSlopeOnly: 0
OS2_UseTypoMetrics: 0
CreationTime: 1707357823
ModificationTime: 1707357823
OS2TypoAscent: 0
OS2TypoAOffset: 1
OS2TypoDescent: 0
OS2TypoDOffset: 1
OS2TypoLinegap: 0
OS2WinAscent: 0
OS2WinAOffset: 1
OS2WinDescent: 0
OS2WinDOffset: 1
HheadAscent: 0
HheadAOffset: 1
HheadDescent: 0
HheadDOffset: 1
OS2Vendor: 'PfEd'
DEI: 91125
Encoding: UnicodeFull
Compacted: 1
UnicodeInterp: none
NameList: AGL For New Fonts
DisplaySize: -48
AntiAlias: 1
FitToEm: 0
WinInfo: 0 27 9
BeginPrivate: 3
BlueValues 24 [-10 0 520 530 730 750 ]
OtherBlues 12 [-220 -220 ]
ForceBold 4 true
EndPrivate
BeginChars: 1114125 969

StartChar: .notdef
Encoding: 1114112 -1 0
Width: 500
LayerCount: 2
Fore
SplineSet
410 -140 m 1
 93 -140 l 1
 93 860 l 1
 410 860 l 1
 410 -140 l 1
168 793 m 1
 168 760 l 1
 233 760 l 1
 233 723 l 1
 167 723 l 1
 167 690 l 1
 333 690 l 1
 333 723 l 1
 267 723 l 1
 267 760 l 1
 333 760 l 1
 333 793 l 1
 168 793 l 1
167 664 m 1
 167 560 l 1
 333 560 l 1
 333 594 l 1
 267 594 l 1
 267 664 l 1
 167 664 l 1
233 594 m 1
 200 594 l 1
 200 630 l 1
 233 630 l 1
 233 594 l 1
167 533 m 1
 167 500 l 1
 233 500 l 1
 233 463 l 1
 167 463 l 1
 167 430 l 1
 267 430 l 1
 267 500 l 1
 333 500 l 1
 333 533 l 1
 167 533 l 1
300 473 m 1
 300 407 l 1
 167 407 l 1
 167 373 l 1
 333 373 l 1
 333 473 l 1
 300 473 l 1
233 351 m 1
 233 295 l 1
 267 295 l 1
 267 318 l 1
 300 318 l 1
 300 271 l 1
 200 271 l 1
 200 351 l 1
 167 351 l 1
 167 238 l 1
 333 238 l 1
 333 351 l 1
 233 351 l 1
167 178 m 1
 167 65 l 1
 333 65 l 1
 333 178 l 1
 167 178 l 1
300 98 m 1
 200 98 l 1
 200 145 l 1
 300 145 l 1
 300 98 l 1
167 42 m 1
 167 9 l 1
 237 9 l 1
 167 -38 l 1
 167 -71 l 1
 333 -71 l 1
 333 -38 l 1
 231 -38 l 1
 301 9 l 1
 333 9 l 1
 333 42 l 1
 167 42 l 1
EndSplineSet
EndChar

StartChar: A
Encoding: 65 65 2
Width: 684
Flags: W
LayerCount: 2
Fore
SplineSet
520 0 m 1
 472 167 l 1
 212 167 l 1
 164 0 l 1
 10 0 l 1
 247 730 l 1
 437 730 l 1
 674 0 l 1
 520 0 l 1
248 289 m 1
 436 289 l 1
 343 611 l 1
 341 611 l 1
 248 289 l 1
EndSplineSet
EndChar

StartChar: Aacute
Encoding: 193 193 3
Width: 684
Flags: W
LayerCount: 2
Fore
SplineSet
520 0 m 1
 472 167 l 1
 212 167 l 1
 164 0 l 1
 10 0 l 1
 247 730 l 1
 437 730 l 1
 674 0 l 1
 520 0 l 1
248 289 m 1
 436 289 l 1
 343 611 l 1
 341 611 l 1
 248 289 l 1
367 770 m 1
 237 770 l 1
 320 980 l 1
 490 980 l 1
 367 770 l 1
EndSplineSet
EndChar

StartChar: Abreve
Encoding: 258 258 4
Width: 684
Flags: W
LayerCount: 2
Fore
SplineSet
520 0 m 1
 472 167 l 1
 212 167 l 1
 164 0 l 1
 10 0 l 1
 247 730 l 1
 437 730 l 1
 674 0 l 1
 520 0 l 1
248 289 m 1
 436 289 l 1
 343 611 l 1
 341 611 l 1
 248 289 l 1
230 799 m 0
 198 815 172 837 152 866 c 0
 134 894 123 926 122 962 c 1
 256 962 l 1
 263 905 292 876 342 876 c 0
 391 876 420 905 427 962 c 1
 562 962 l 1
 561 926 550 894 532 866 c 0
 512 837 486 815 454 799 c 0
 420 783 383 775 342 775 c 0
 301 775 264 783 230 799 c 0
EndSplineSet
EndChar

StartChar: uni1EAE
Encoding: 7854 7854 5
Width: 684
Flags: W
LayerCount: 2
Fore
SplineSet
230 799 m 0
 198 815 172 837 152 866 c 0
 134 894 123 926 122 962 c 1
 242 962 l 1
 320 1160 l 1
 490 1160 l 1
 367 950 l 1
 258 950 l 1
 267 901 295 876 342 876 c 0
 391 876 420 905 427 962 c 1
 562 962 l 1
 561 926 550 894 532 866 c 0
 512 837 486 815 454 799 c 0
 420 783 383 775 342 775 c 0
 301 775 264 783 230 799 c 0
520 0 m 1
 472 167 l 1
 212 167 l 1
 164 0 l 1
 10 0 l 1
 247 730 l 1
 437 730 l 1
 674 0 l 1
 520 0 l 1
248 289 m 1
 436 289 l 1
 343 611 l 1
 341 611 l 1
 248 289 l 1
EndSplineSet
EndChar

StartChar: uni1EB6
Encoding: 7862 7862 6
Width: 684
Flags: W
LayerCount: 2
Fore
SplineSet
520 0 m 1
 472 167 l 1
 212 167 l 1
 164 0 l 1
 10 0 l 1
 247 730 l 1
 437 730 l 1
 674 0 l 1
 520 0 l 1
248 289 m 1
 436 289 l 1
 343 611 l 1
 341 611 l 1
 248 289 l 1
268 -71 m 1
 416 -71 l 1
 416 -219 l 1
 268 -219 l 1
 268 -71 l 1
230 799 m 0
 198 815 172 837 152 866 c 0
 134 894 123 926 122 962 c 1
 256 962 l 1
 263 905 292 876 342 876 c 0
 391 876 420 905 427 962 c 1
 562 962 l 1
 561 926 550 894 532 866 c 0
 512 837 486 815 454 799 c 0
 420 783 383 775 342 775 c 0
 301 775 264 783 230 799 c 0
EndSplineSet
EndChar

StartChar: uni1EB0
Encoding: 7856 7856 7
Width: 684
Flags: W
LayerCount: 2
Fore
SplineSet
397 894 m 0
 411 907 420 925 425 950 c 1
 317 950 l 1
 194 1160 l 1
 364 1160 l 1
 442 962 l 1
 562 962 l 1
 561 926 550 894 532 866 c 0
 512 837 486 815 454 799 c 0
 420 783 383 775 342 775 c 0
 301 775 264 783 230 799 c 0
 198 815 172 837 152 866 c 0
 134 894 123 926 122 962 c 1
 256 962 l 1
 263 905 292 876 342 876 c 0
 365 876 383 882 397 894 c 0
520 0 m 1
 472 167 l 1
 212 167 l 1
 164 0 l 1
 10 0 l 1
 247 730 l 1
 437 730 l 1
 674 0 l 1
 520 0 l 1
248 289 m 1
 436 289 l 1
 343 611 l 1
 341 611 l 1
 248 289 l 1
EndSplineSet
EndChar

StartChar: uni1EB2
Encoding: 7858 7858 8
Width: 684
Flags: W
LayerCount: 2
Fore
SplineSet
425 952 m 1
 365 952 l 1
 373 979 377 1000 377 1016 c 0
 377 1030 373 1039 364 1044 c 0
 355 1049 339 1051 316 1051 c 0
 271 1051 226 1044 182 1031 c 1
 170 1134 l 1
 222 1146 279 1152 342 1152 c 0
 387 1152 422 1150 446 1144 c 0
 470 1140 487 1131 498 1118 c 0
 508 1106 513 1088 513 1065 c 0
 513 1050 511 1033 508 1014 c 0
 505 995 500 978 495 962 c 1
 562 962 l 1
 561 926 550 894 532 866 c 0
 512 837 486 815 454 799 c 0
 420 783 383 775 342 775 c 0
 301 775 264 783 230 799 c 0
 198 815 172 837 152 866 c 0
 134 894 123 926 122 962 c 1
 256 962 l 1
 263 905 292 876 342 876 c 0
 388 876 416 901 425 952 c 1
520 0 m 1
 472 167 l 1
 212 167 l 1
 164 0 l 1
 10 0 l 1
 247 730 l 1
 437 730 l 1
 674 0 l 1
 520 0 l 1
248 289 m 1
 436 289 l 1
 343 611 l 1
 341 611 l 1
 248 289 l 1
EndSplineSet
EndChar

StartChar: uni1EB4
Encoding: 7860 7860 9
Width: 684
Flags: W
LayerCount: 2
Fore
SplineSet
520 0 m 1
 472 167 l 1
 212 167 l 1
 164 0 l 1
 10 0 l 1
 247 730 l 1
 437 730 l 1
 674 0 l 1
 520 0 l 1
248 289 m 1
 436 289 l 1
 343 611 l 1
 341 611 l 1
 248 289 l 1
230 799 m 0
 198 815 172 837 152 866 c 0
 134 894 123 926 122 962 c 1
 256 962 l 1
 263 905 292 876 342 876 c 0
 391 876 420 905 427 962 c 1
 562 962 l 1
 561 926 550 894 532 866 c 0
 512 837 486 815 454 799 c 0
 420 783 383 775 342 775 c 0
 301 775 264 783 230 799 c 0
400 1012 m 0
 380 1018 356 1030 329 1046 c 0
 299 1064 278 1073 265 1073 c 0
 255 1073 248 1068 244 1060 c 0
 240 1050 238 1034 238 1011 c 1
 122 1011 l 1
 122 1074 131 1120 148 1150 c 0
 165 1180 192 1195 228 1195 c 0
 263 1195 305 1180 355 1150 c 0
 385 1132 407 1123 420 1123 c 0
 429 1123 436 1128 440 1136 c 0
 444 1146 446 1162 446 1185 c 1
 562 1185 l 1
 562 1122 554 1075 536 1046 c 0
 520 1016 493 1001 457 1001 c 0
 440 1001 421 1004 400 1012 c 0
EndSplineSet
EndChar

StartChar: Acircumflex
Encoding: 194 194 10
Width: 684
Flags: W
LayerCount: 2
Fore
SplineSet
520 0 m 1
 472 167 l 1
 212 167 l 1
 164 0 l 1
 10 0 l 1
 247 730 l 1
 437 730 l 1
 674 0 l 1
 520 0 l 1
248 289 m 1
 436 289 l 1
 343 611 l 1
 341 611 l 1
 248 289 l 1
227 980 m 1
 456 980 l 1
 579 770 l 1
 423 770 l 1
 343 923 l 1
 341 923 l 1
 261 770 l 1
 105 770 l 1
 227 980 l 1
EndSplineSet
EndChar

StartChar: uni1EA4
Encoding: 7844 7844 11
Width: 684
Flags: W
LayerCount: 2
Fore
SplineSet
341 923 m 1
 261 770 l 1
 105 770 l 1
 227 980 l 1
 447 980 l 1
 518 1160 l 1
 688 1160 l 1
 565 950 l 1
 474 950 l 1
 579 770 l 1
 423 770 l 1
 343 923 l 1
 341 923 l 1
247 730 m 1
 437 730 l 1
 674 0 l 1
 520 0 l 1
 472 167 l 1
 212 167 l 1
 164 0 l 1
 10 0 l 1
 247 730 l 1
248 289 m 1
 436 289 l 1
 343 611 l 1
 341 611 l 1
 248 289 l 1
EndSplineSet
EndChar

StartChar: uni1EAC
Encoding: 7852 7852 12
Width: 684
Flags: W
LayerCount: 2
Fore
SplineSet
520 0 m 1
 472 167 l 1
 212 167 l 1
 164 0 l 1
 10 0 l 1
 247 730 l 1
 437 730 l 1
 674 0 l 1
 520 0 l 1
248 289 m 1
 436 289 l 1
 343 611 l 1
 341 611 l 1
 248 289 l 1
268 -71 m 1
 416 -71 l 1
 416 -219 l 1
 268 -219 l 1
 268 -71 l 1
227 980 m 1
 456 980 l 1
 579 770 l 1
 423 770 l 1
 343 923 l 1
 341 923 l 1
 261 770 l 1
 105 770 l 1
 227 980 l 1
EndSplineSet
EndChar

StartChar: uni1EA6
Encoding: 7846 7846 13
Width: 684
Flags: W
LayerCount: 2
Fore
SplineSet
210 950 m 1
 119 950 l 1
 -4 1160 l 1
 166 1160 l 1
 237 980 l 1
 456 980 l 1
 579 770 l 1
 423 770 l 1
 343 923 l 1
 341 923 l 1
 261 770 l 1
 105 770 l 1
 210 950 l 1
520 0 m 1
 472 167 l 1
 212 167 l 1
 164 0 l 1
 10 0 l 1
 247 730 l 1
 437 730 l 1
 674 0 l 1
 520 0 l 1
248 289 m 1
 436 289 l 1
 343 611 l 1
 341 611 l 1
 248 289 l 1
EndSplineSet
EndChar

StartChar: uni1EA8
Encoding: 7848 7848 14
Width: 684
Flags: W
LayerCount: 2
Fore
SplineSet
261 770 m 1
 105 770 l 1
 227 980 l 1
 444 980 l 1
 447 996 448 1007 448 1012 c 0
 448 1026 444 1035 435 1040 c 0
 426 1045 410 1047 387 1047 c 0
 342 1047 297 1040 253 1027 c 1
 241 1130 l 1
 293 1142 350 1148 413 1148 c 0
 458 1148 493 1146 517 1140 c 0
 541 1136 558 1127 568 1114 c 0
 579 1102 584 1084 584 1061 c 0
 584 1044 582 1026 578 1004 c 0
 574 984 569 965 562 948 c 1
 475 948 l 1
 579 770 l 1
 423 770 l 1
 343 923 l 1
 341 923 l 1
 261 770 l 1
520 0 m 1
 472 167 l 1
 212 167 l 1
 164 0 l 1
 10 0 l 1
 247 730 l 1
 437 730 l 1
 674 0 l 1
 520 0 l 1
248 289 m 1
 436 289 l 1
 343 611 l 1
 341 611 l 1
 248 289 l 1
EndSplineSet
EndChar

StartChar: uni1EAA
Encoding: 7850 7850 15
Width: 684
Flags: W
LayerCount: 2
Fore
SplineSet
520 0 m 1
 472 167 l 1
 212 167 l 1
 164 0 l 1
 10 0 l 1
 247 730 l 1
 437 730 l 1
 674 0 l 1
 520 0 l 1
248 289 m 1
 436 289 l 1
 343 611 l 1
 341 611 l 1
 248 289 l 1
227 980 m 1
 456 980 l 1
 579 770 l 1
 423 770 l 1
 343 923 l 1
 341 923 l 1
 261 770 l 1
 105 770 l 1
 227 980 l 1
400 1012 m 0
 380 1018 356 1030 329 1046 c 0
 299 1064 278 1073 265 1073 c 0
 255 1073 248 1068 244 1060 c 0
 240 1050 238 1034 238 1011 c 1
 122 1011 l 1
 122 1074 131 1120 148 1150 c 0
 165 1180 192 1195 228 1195 c 0
 263 1195 305 1180 355 1150 c 0
 385 1132 407 1123 420 1123 c 0
 429 1123 436 1128 440 1136 c 0
 444 1146 446 1162 446 1185 c 1
 562 1185 l 1
 562 1122 554 1075 536 1046 c 0
 520 1016 493 1001 457 1001 c 0
 440 1001 421 1004 400 1012 c 0
EndSplineSet
EndChar

StartChar: uni0200
Encoding: 512 512 16
Width: 684
Flags: W
LayerCount: 2
Fore
SplineSet
520 0 m 1
 472 167 l 1
 212 167 l 1
 164 0 l 1
 10 0 l 1
 247 730 l 1
 437 730 l 1
 674 0 l 1
 520 0 l 1
248 289 m 1
 436 289 l 1
 343 611 l 1
 341 611 l 1
 248 289 l 1
74 980 m 1
 244 980 l 1
 327 770 l 1
 197 770 l 1
 74 980 l 1
314 980 m 1
 484 980 l 1
 567 770 l 1
 437 770 l 1
 314 980 l 1
EndSplineSet
EndChar

StartChar: Adieresis
Encoding: 196 196 17
Width: 684
Flags: W
LayerCount: 2
Fore
SplineSet
520 0 m 1
 472 167 l 1
 212 167 l 1
 164 0 l 1
 10 0 l 1
 247 730 l 1
 437 730 l 1
 674 0 l 1
 520 0 l 1
248 289 m 1
 436 289 l 1
 343 611 l 1
 341 611 l 1
 248 289 l 1
138 949 m 1
 286 949 l 1
 286 801 l 1
 138 801 l 1
 138 949 l 1
398 949 m 1
 545 949 l 1
 545 801 l 1
 398 801 l 1
 398 949 l 1
EndSplineSet
EndChar

StartChar: uni1EA0
Encoding: 7840 7840 18
Width: 684
Flags: W
LayerCount: 2
Fore
SplineSet
520 0 m 1
 472 167 l 1
 212 167 l 1
 164 0 l 1
 10 0 l 1
 247 730 l 1
 437 730 l 1
 674 0 l 1
 520 0 l 1
248 289 m 1
 436 289 l 1
 343 611 l 1
 341 611 l 1
 248 289 l 1
268 -71 m 1
 416 -71 l 1
 416 -219 l 1
 268 -219 l 1
 268 -71 l 1
EndSplineSet
EndChar

StartChar: Agrave
Encoding: 192 192 19
Width: 684
Flags: W
LayerCount: 2
Fore
SplineSet
520 0 m 1
 472 167 l 1
 212 167 l 1
 164 0 l 1
 10 0 l 1
 247 730 l 1
 437 730 l 1
 674 0 l 1
 520 0 l 1
248 289 m 1
 436 289 l 1
 343 611 l 1
 341 611 l 1
 248 289 l 1
194 980 m 1
 364 980 l 1
 447 770 l 1
 317 770 l 1
 194 980 l 1
EndSplineSet
EndChar

StartChar: uni1EA2
Encoding: 7842 7842 20
Width: 684
Flags: W
LayerCount: 2
Fore
SplineSet
520 0 m 1
 472 167 l 1
 212 167 l 1
 164 0 l 1
 10 0 l 1
 247 730 l 1
 437 730 l 1
 674 0 l 1
 520 0 l 1
248 289 m 1
 436 289 l 1
 343 611 l 1
 341 611 l 1
 248 289 l 1
377 849 m 0
 377 863 373 872 364 877 c 0
 355 882 339 884 316 884 c 0
 271 884 226 877 182 864 c 1
 170 967 l 1
 222 979 279 985 342 985 c 0
 387 985 422 982 446 978 c 0
 470 972 487 964 498 952 c 0
 508 939 513 921 513 898 c 0
 513 881 511 862 507 842 c 0
 503 820 498 802 491 785 c 1
 365 785 l 1
 373 812 377 833 377 849 c 0
EndSplineSet
EndChar

StartChar: uni0202
Encoding: 514 514 21
Width: 684
Flags: W
LayerCount: 2
Fore
SplineSet
520 0 m 1
 472 167 l 1
 212 167 l 1
 164 0 l 1
 10 0 l 1
 247 730 l 1
 437 730 l 1
 674 0 l 1
 520 0 l 1
248 289 m 1
 436 289 l 1
 343 611 l 1
 341 611 l 1
 248 289 l 1
454 951 m 0
 486 935 512 913 532 884 c 0
 550 856 561 824 562 788 c 1
 427 788 l 1
 420 845 391 874 342 874 c 0
 292 874 263 845 256 788 c 1
 122 788 l 1
 123 824 134 856 152 884 c 0
 172 913 198 935 230 951 c 0
 264 967 301 975 342 975 c 0
 383 975 420 967 454 951 c 0
EndSplineSet
EndChar

StartChar: Amacron
Encoding: 256 256 22
Width: 684
Flags: W
LayerCount: 2
Fore
SplineSet
520 0 m 1
 472 167 l 1
 212 167 l 1
 164 0 l 1
 10 0 l 1
 247 730 l 1
 437 730 l 1
 674 0 l 1
 520 0 l 1
248 289 m 1
 436 289 l 1
 343 611 l 1
 341 611 l 1
 248 289 l 1
146 927 m 1
 538 927 l 1
 538 823 l 1
 146 823 l 1
 146 927 l 1
EndSplineSet
EndChar

StartChar: Aogonek
Encoding: 260 260 23
Width: 684
Flags: W
LayerCount: 2
Fore
SplineSet
764 -197 m 1
 729 -211 690 -218 646 -218 c 0
 589 -218 544 -208 514 -188 c 0
 482 -167 467 -139 467 -102 c 0
 467 -65 484 -29 518 5 c 1
 472 167 l 1
 212 167 l 1
 164 0 l 1
 10 0 l 1
 247 730 l 1
 437 730 l 1
 674 0 l 1
 620 -29 593 -56 593 -81 c 0
 593 -92 598 -101 609 -106 c 0
 620 -112 635 -115 656 -115 c 0
 687 -115 717 -109 748 -96 c 1
 764 -197 l 1
248 289 m 1
 436 289 l 1
 343 611 l 1
 341 611 l 1
 248 289 l 1
EndSplineSet
EndChar

StartChar: Aring
Encoding: 197 197 24
Width: 684
Flags: W
LayerCount: 2
Fore
SplineSet
472 167 m 1
 212 167 l 1
 164 0 l 1
 10 0 l 1
 243 719 l 1
 226 734 212 752 202 772 c 0
 192 794 187 816 187 840 c 0
 187 869 194 895 208 919 c 0
 222 943 241 962 265 976 c 0
 289 990 315 997 343 997 c 0
 372 997 398 990 422 976 c 0
 446 962 465 943 479 919 c 0
 493 895 500 869 500 840 c 0
 500 815 495 792 484 771 c 0
 474 750 460 732 441 717 c 1
 674 0 l 1
 520 0 l 1
 472 167 l 1
297 886 m 0
 284 873 278 858 278 840 c 0
 278 822 284 807 297 794 c 0
 310 781 325 775 343 775 c 0
 362 775 377 781 390 794 c 0
 402 807 408 822 408 840 c 0
 408 858 402 873 390 886 c 0
 377 899 362 905 343 905 c 0
 325 905 310 899 297 886 c 0
248 289 m 1
 436 289 l 1
 343 611 l 1
 341 611 l 1
 248 289 l 1
EndSplineSet
EndChar

StartChar: Aringacute
Encoding: 506 506 25
Width: 684
Flags: W
LayerCount: 2
Fore
SplineSet
472 167 m 1
 212 167 l 1
 164 0 l 1
 10 0 l 1
 243 719 l 1
 226 734 212 752 202 772 c 0
 192 794 187 816 187 840 c 0
 187 863 192 885 202 906 c 0
 211 927 224 944 241 958 c 1
 321 1162 l 1
 491 1162 l 1
 390 990 l 1
 423 980 449 961 470 934 c 0
 490 907 500 875 500 840 c 0
 500 815 495 792 484 771 c 0
 474 750 460 732 441 717 c 1
 674 0 l 1
 520 0 l 1
 472 167 l 1
390 794 m 0
 402 807 408 822 408 840 c 0
 408 858 402 873 390 886 c 0
 377 899 362 905 343 905 c 0
 325 905 310 899 297 886 c 0
 284 873 278 858 278 840 c 0
 278 822 284 807 297 794 c 0
 310 781 325 775 343 775 c 0
 362 775 377 781 390 794 c 0
248 289 m 1
 436 289 l 1
 343 611 l 1
 341 611 l 1
 248 289 l 1
EndSplineSet
EndChar

StartChar: Atilde
Encoding: 195 195 26
Width: 684
Flags: W
LayerCount: 2
Fore
SplineSet
520 0 m 1
 472 167 l 1
 212 167 l 1
 164 0 l 1
 10 0 l 1
 247 730 l 1
 437 730 l 1
 674 0 l 1
 520 0 l 1
248 289 m 1
 436 289 l 1
 343 611 l 1
 341 611 l 1
 248 289 l 1
400 788 m 0
 380 796 356 807 329 823 c 0
 299 841 278 850 265 850 c 0
 255 850 248 846 244 836 c 0
 240 828 238 811 238 788 c 1
 122 788 l 1
 122 851 131 897 148 927 c 0
 165 957 192 972 228 972 c 0
 263 972 305 957 355 927 c 0
 385 909 407 900 420 900 c 0
 429 900 436 904 440 914 c 0
 444 922 446 939 446 962 c 1
 562 962 l 1
 562 899 554 852 536 822 c 0
 520 793 493 778 457 778 c 0
 440 778 421 782 400 788 c 0
EndSplineSet
EndChar

StartChar: AE
Encoding: 198 198 27
Width: 876
Flags: W
LayerCount: 2
Fore
SplineSet
815 611 m 1
 548 611 l 1
 548 438 l 1
 795 438 l 1
 795 323 l 1
 548 323 l 1
 548 119 l 1
 815 119 l 1
 815 0 l 1
 408 0 l 1
 408 167 l 1
 223 167 l 1
 164 0 l 1
 10 0 l 1
 291 730 l 1
 815 730 l 1
 815 611 l 1
266 289 m 1
 408 289 l 1
 408 617 l 1
 382 617 l 1
 266 289 l 1
EndSplineSet
EndChar

StartChar: AEacute
Encoding: 508 508 28
Width: 876
Flags: W
LayerCount: 2
Fore
SplineSet
815 611 m 1
 548 611 l 1
 548 438 l 1
 795 438 l 1
 795 323 l 1
 548 323 l 1
 548 119 l 1
 815 119 l 1
 815 0 l 1
 408 0 l 1
 408 167 l 1
 223 167 l 1
 164 0 l 1
 10 0 l 1
 291 730 l 1
 815 730 l 1
 815 611 l 1
266 289 m 1
 408 289 l 1
 408 617 l 1
 382 617 l 1
 266 289 l 1
492 770 m 1
 362 770 l 1
 445 980 l 1
 615 980 l 1
 492 770 l 1
EndSplineSet
EndChar

StartChar: B
Encoding: 66 66 29
Width: 657
Flags: W
LayerCount: 2
Fore
SplineSet
580 328 m 0
 608 298 622 258 622 207 c 0
 622 69 517 0 308 0 c 2
 75 0 l 1
 75 730 l 1
 302 730 l 2
 497 730 595 671 595 552 c 0
 595 508 583 472 558 444 c 0
 533 415 499 397 454 388 c 1
 454 386 l 1
 509 378 551 359 580 328 c 0
215 613 m 1
 215 437 l 1
 308 437 l 2
 359 437 397 444 420 458 c 0
 443 473 455 496 455 527 c 0
 455 558 444 580 421 593 c 0
 398 606 361 613 308 613 c 2
 215 613 l 1
438 142 m 0
 465 159 479 185 479 220 c 0
 479 255 465 281 438 298 c 0
 410 315 367 323 308 323 c 2
 215 323 l 1
 215 117 l 1
 308 117 l 2
 367 117 410 125 438 142 c 0
EndSplineSet
EndChar

StartChar: C
Encoding: 67 67 30
Width: 693
Flags: W
LayerCount: 2
Fore
SplineSet
206 34 m 0
 151 64 110 107 80 164 c 0
 52 220 37 287 37 365 c 0
 37 443 52 510 80 566 c 0
 110 623 151 666 206 696 c 0
 261 725 326 740 403 740 c 0
 496 740 578 718 648 674 c 1
 590 563 l 1
 531 599 470 617 409 617 c 0
 338 617 282 595 242 550 c 0
 201 506 181 444 181 365 c 0
 181 286 201 224 242 180 c 0
 282 135 338 113 409 113 c 0
 470 113 531 131 590 167 c 1
 648 56 l 1
 578 12 496 -10 403 -10 c 0
 326 -10 261 5 206 34 c 0
EndSplineSet
EndChar

StartChar: Cacute
Encoding: 262 262 31
Width: 693
Flags: W
LayerCount: 2
Fore
SplineSet
206 34 m 0
 151 64 110 107 80 164 c 0
 52 220 37 287 37 365 c 0
 37 443 52 510 80 566 c 0
 110 623 151 666 206 696 c 0
 261 725 326 740 403 740 c 0
 496 740 578 718 648 674 c 1
 590 563 l 1
 531 599 470 617 409 617 c 0
 338 617 282 595 242 550 c 0
 201 506 181 444 181 365 c 0
 181 286 201 224 242 180 c 0
 282 135 338 113 409 113 c 0
 470 113 531 131 590 167 c 1
 648 56 l 1
 578 12 496 -10 403 -10 c 0
 326 -10 261 5 206 34 c 0
405 770 m 1
 275 770 l 1
 358 980 l 1
 528 980 l 1
 405 770 l 1
EndSplineSet
EndChar

StartChar: Ccaron
Encoding: 268 268 32
Width: 693
Flags: W
LayerCount: 2
Fore
SplineSet
206 34 m 0
 151 64 110 107 80 164 c 0
 52 220 37 287 37 365 c 0
 37 443 52 510 80 566 c 0
 110 623 151 666 206 696 c 0
 261 725 326 740 403 740 c 0
 496 740 578 718 648 674 c 1
 590 563 l 1
 531 599 470 617 409 617 c 0
 338 617 282 595 242 550 c 0
 201 506 181 444 181 365 c 0
 181 286 201 224 242 180 c 0
 282 135 338 113 409 113 c 0
 470 113 531 131 590 167 c 1
 648 56 l 1
 578 12 496 -10 403 -10 c 0
 326 -10 261 5 206 34 c 0
143 980 m 1
 299 980 l 1
 379 827 l 1
 381 827 l 1
 461 980 l 1
 617 980 l 1
 494 770 l 1
 265 770 l 1
 143 980 l 1
EndSplineSet
EndChar

StartChar: Ccedilla
Encoding: 199 199 33
Width: 693
Flags: W
LayerCount: 2
Fore
SplineSet
648 56 m 1
 600 26 546 6 485 -4 c 1
 514 -35 529 -68 529 -102 c 0
 529 -139 514 -167 482 -188 c 0
 452 -208 407 -218 350 -218 c 0
 307 -218 267 -211 231 -197 c 1
 248 -96 l 1
 277 -109 308 -115 340 -115 c 0
 360 -115 375 -112 386 -106 c 0
 397 -100 402 -92 402 -81 c 0
 402 -57 378 -32 330 -5 c 1
 237 8 164 47 114 112 c 0
 62 176 37 260 37 365 c 0
 37 443 52 510 80 566 c 0
 110 623 151 666 206 696 c 0
 261 725 326 740 403 740 c 0
 496 740 578 718 648 674 c 1
 590 563 l 1
 531 599 470 617 409 617 c 0
 338 617 282 595 242 550 c 0
 201 506 181 444 181 365 c 0
 181 286 201 224 242 180 c 0
 282 135 338 113 409 113 c 0
 470 113 531 131 590 167 c 1
 648 56 l 1
EndSplineSet
EndChar

StartChar: Ccircumflex
Encoding: 264 264 34
Width: 693
Flags: W
LayerCount: 2
Fore
SplineSet
206 34 m 0
 151 64 110 107 80 164 c 0
 52 220 37 287 37 365 c 0
 37 443 52 510 80 566 c 0
 110 623 151 666 206 696 c 0
 261 725 326 740 403 740 c 0
 496 740 578 718 648 674 c 1
 590 563 l 1
 531 599 470 617 409 617 c 0
 338 617 282 595 242 550 c 0
 201 506 181 444 181 365 c 0
 181 286 201 224 242 180 c 0
 282 135 338 113 409 113 c 0
 470 113 531 131 590 167 c 1
 648 56 l 1
 578 12 496 -10 403 -10 c 0
 326 -10 261 5 206 34 c 0
265 980 m 1
 494 980 l 1
 617 770 l 1
 461 770 l 1
 381 923 l 1
 379 923 l 1
 299 770 l 1
 143 770 l 1
 265 980 l 1
EndSplineSet
EndChar

StartChar: Cdotaccent
Encoding: 266 266 35
Width: 693
Flags: W
LayerCount: 2
Fore
SplineSet
206 34 m 0
 151 64 110 107 80 164 c 0
 52 220 37 287 37 365 c 0
 37 443 52 510 80 566 c 0
 110 623 151 666 206 696 c 0
 261 725 326 740 403 740 c 0
 496 740 578 718 648 674 c 1
 590 563 l 1
 531 599 470 617 409 617 c 0
 338 617 282 595 242 550 c 0
 201 506 181 444 181 365 c 0
 181 286 201 224 242 180 c 0
 282 135 338 113 409 113 c 0
 470 113 531 131 590 167 c 1
 648 56 l 1
 578 12 496 -10 403 -10 c 0
 326 -10 261 5 206 34 c 0
306 949 m 1
 454 949 l 1
 454 801 l 1
 306 801 l 1
 306 949 l 1
EndSplineSet
EndChar

StartChar: D
Encoding: 68 68 36
Width: 689
Flags: W
LayerCount: 2
Fore
SplineSet
282 730 m 2
 409 730 502 700 562 642 c 0
 622 582 652 490 652 365 c 0
 652 240 622 148 562 88 c 0
 502 30 409 0 282 0 c 2
 75 0 l 1
 75 730 l 1
 282 730 l 2
418 144 m 0
 449 161 472 187 487 222 c 0
 502 257 509 305 509 365 c 0
 509 425 502 473 487 508 c 0
 472 543 449 569 418 586 c 0
 386 602 344 610 291 610 c 2
 215 610 l 1
 215 120 l 1
 291 120 l 2
 344 120 386 128 418 144 c 0
EndSplineSet
EndChar

StartChar: uni01C4
Encoding: 452 452 37
Width: 1292
Flags: W
LayerCount: 2
Fore
SplineSet
282 730 m 2
 409 730 502 700 562 642 c 0
 622 582 652 490 652 365 c 0
 652 240 622 148 562 88 c 0
 502 30 409 0 282 0 c 2
 75 0 l 1
 75 730 l 1
 282 730 l 2
418 144 m 0
 449 161 472 187 487 222 c 0
 502 257 509 305 509 365 c 0
 509 425 502 473 487 508 c 0
 472 543 449 569 418 586 c 0
 386 602 344 610 291 610 c 2
 215 610 l 1
 215 120 l 1
 291 120 l 2
 344 120 386 128 418 144 c 0
712 122 m 1
 1064 606 l 1
 1064 608 l 1
 712 608 l 1
 712 730 l 1
 1232 730 l 1
 1232 608 l 1
 880 124 l 1
 880 122 l 1
 1232 122 l 1
 1232 0 l 1
 712 0 l 1
 712 122 l 1
735 980 m 1
 891 980 l 1
 971 827 l 1
 973 827 l 1
 1053 980 l 1
 1209 980 l 1
 1086 770 l 1
 857 770 l 1
 735 980 l 1
EndSplineSet
EndChar

StartChar: Eth
Encoding: 208 208 38
Width: 746
Flags: W
LayerCount: 2
Fore
SplineSet
618 642 m 0
 678 582 708 490 708 365 c 0
 708 240 678 148 618 88 c 0
 559 30 465 0 338 0 c 2
 132 0 l 1
 132 312 l 1
 25 312 l 1
 25 418 l 1
 132 418 l 1
 132 730 l 1
 338 730 l 2
 465 730 559 700 618 642 c 0
474 144 m 0
 506 161 529 187 544 222 c 0
 558 257 565 305 565 365 c 0
 565 425 558 473 544 508 c 0
 529 543 506 569 474 586 c 0
 443 602 400 610 347 610 c 2
 272 610 l 1
 272 418 l 1
 445 418 l 1
 445 312 l 1
 272 312 l 1
 272 120 l 1
 347 120 l 2
 400 120 443 128 474 144 c 0
EndSplineSet
EndChar

StartChar: Dcaron
Encoding: 270 270 39
Width: 689
Flags: W
LayerCount: 2
Fore
SplineSet
282 730 m 2
 409 730 502 700 562 642 c 0
 622 582 652 490 652 365 c 0
 652 240 622 148 562 88 c 0
 502 30 409 0 282 0 c 2
 75 0 l 1
 75 730 l 1
 282 730 l 2
418 144 m 0
 449 161 472 187 487 222 c 0
 502 257 509 305 509 365 c 0
 509 425 502 473 487 508 c 0
 472 543 449 569 418 586 c 0
 386 602 344 610 291 610 c 2
 215 610 l 1
 215 120 l 1
 291 120 l 2
 344 120 386 128 418 144 c 0
108 980 m 1
 264 980 l 1
 344 827 l 1
 346 827 l 1
 426 980 l 1
 582 980 l 1
 459 770 l 1
 230 770 l 1
 108 980 l 1
EndSplineSet
EndChar

StartChar: Dcroat
Encoding: 272 272 40
Width: 746
Flags: W
LayerCount: 2
Fore
SplineSet
618 642 m 0
 678 582 708 490 708 365 c 0
 708 240 678 148 618 88 c 0
 559 30 465 0 338 0 c 2
 132 0 l 1
 132 312 l 1
 25 312 l 1
 25 418 l 1
 132 418 l 1
 132 730 l 1
 338 730 l 2
 465 730 559 700 618 642 c 0
474 144 m 0
 506 161 529 187 544 222 c 0
 558 257 565 305 565 365 c 0
 565 425 558 473 544 508 c 0
 529 543 506 569 474 586 c 0
 443 602 400 610 347 610 c 2
 272 610 l 1
 272 418 l 1
 445 418 l 1
 445 312 l 1
 272 312 l 1
 272 120 l 1
 347 120 l 2
 400 120 443 128 474 144 c 0
EndSplineSet
EndChar

StartChar: uni01C5
Encoding: 453 453 41
Width: 1223
Flags: W
LayerCount: 2
Fore
SplineSet
282 730 m 2
 409 730 502 700 562 642 c 0
 622 582 652 490 652 365 c 0
 652 240 622 148 562 88 c 0
 502 30 409 0 282 0 c 2
 75 0 l 1
 75 730 l 1
 282 730 l 2
418 144 m 0
 449 161 472 187 487 222 c 0
 502 257 509 305 509 365 c 0
 509 425 502 473 487 508 c 0
 472 543 449 569 418 586 c 0
 386 602 344 610 291 610 c 2
 215 610 l 1
 215 120 l 1
 291 120 l 2
 344 120 386 128 418 144 c 0
733 107 m 1
 996 411 l 1
 996 413 l 1
 733 413 l 1
 733 520 l 1
 1169 520 l 1
 1169 413 l 1
 906 109 l 1
 906 107 l 1
 1169 107 l 1
 1169 0 l 1
 733 0 l 1
 733 107 l 1
714 770 m 1
 870 770 l 1
 950 617 l 1
 952 617 l 1
 1032 770 l 1
 1188 770 l 1
 1065 560 l 1
 836 560 l 1
 714 770 l 1
EndSplineSet
EndChar

StartChar: E
Encoding: 69 69 42
Width: 603
Flags: W
LayerCount: 2
Fore
SplineSet
75 730 m 1
 542 730 l 1
 542 611 l 1
 215 611 l 1
 215 438 l 1
 522 438 l 1
 522 323 l 1
 215 323 l 1
 215 119 l 1
 542 119 l 1
 542 0 l 1
 75 0 l 1
 75 730 l 1
EndSplineSet
EndChar

StartChar: Eacute
Encoding: 201 201 43
Width: 603
Flags: W
LayerCount: 2
Fore
SplineSet
75 730 m 1
 542 730 l 1
 542 611 l 1
 215 611 l 1
 215 438 l 1
 522 438 l 1
 522 323 l 1
 215 323 l 1
 215 119 l 1
 542 119 l 1
 542 0 l 1
 75 0 l 1
 75 730 l 1
335 770 m 1
 205 770 l 1
 288 980 l 1
 458 980 l 1
 335 770 l 1
EndSplineSet
EndChar

StartChar: Ebreve
Encoding: 276 276 44
Width: 603
Flags: W
LayerCount: 2
Fore
SplineSet
75 730 m 1
 542 730 l 1
 542 611 l 1
 215 611 l 1
 215 438 l 1
 522 438 l 1
 522 323 l 1
 215 323 l 1
 215 119 l 1
 542 119 l 1
 542 0 l 1
 75 0 l 1
 75 730 l 1
198 799 m 0
 166 815 140 837 120 866 c 0
 102 894 91 926 90 962 c 1
 224 962 l 1
 231 905 260 876 310 876 c 0
 359 876 388 905 395 962 c 1
 530 962 l 1
 529 926 518 894 500 866 c 0
 480 837 454 815 422 799 c 0
 388 783 351 775 310 775 c 0
 269 775 232 783 198 799 c 0
EndSplineSet
EndChar

StartChar: Ecaron
Encoding: 282 282 45
Width: 603
Flags: W
LayerCount: 2
Fore
SplineSet
75 730 m 1
 542 730 l 1
 542 611 l 1
 215 611 l 1
 215 438 l 1
 522 438 l 1
 522 323 l 1
 215 323 l 1
 215 119 l 1
 542 119 l 1
 542 0 l 1
 75 0 l 1
 75 730 l 1
73 980 m 1
 229 980 l 1
 309 827 l 1
 311 827 l 1
 391 980 l 1
 547 980 l 1
 424 770 l 1
 195 770 l 1
 73 980 l 1
EndSplineSet
EndChar

StartChar: Ecircumflex
Encoding: 202 202 46
Width: 603
Flags: W
LayerCount: 2
Fore
SplineSet
75 730 m 1
 542 730 l 1
 542 611 l 1
 215 611 l 1
 215 438 l 1
 522 438 l 1
 522 323 l 1
 215 323 l 1
 215 119 l 1
 542 119 l 1
 542 0 l 1
 75 0 l 1
 75 730 l 1
195 980 m 1
 424 980 l 1
 547 770 l 1
 391 770 l 1
 311 923 l 1
 309 923 l 1
 229 770 l 1
 73 770 l 1
 195 980 l 1
EndSplineSet
EndChar

StartChar: uni1EBE
Encoding: 7870 7870 47
Width: 603
Flags: W
LayerCount: 2
Fore
SplineSet
533 950 m 1
 442 950 l 1
 547 770 l 1
 391 770 l 1
 311 923 l 1
 309 923 l 1
 229 770 l 1
 73 770 l 1
 195 980 l 1
 415 980 l 1
 486 1160 l 1
 656 1160 l 1
 533 950 l 1
75 0 m 1
 75 730 l 1
 542 730 l 1
 542 611 l 1
 215 611 l 1
 215 438 l 1
 522 438 l 1
 522 323 l 1
 215 323 l 1
 215 119 l 1
 542 119 l 1
 542 0 l 1
 75 0 l 1
EndSplineSet
EndChar

StartChar: uni1EC6
Encoding: 7878 7878 48
Width: 603
Flags: W
LayerCount: 2
Fore
SplineSet
75 730 m 1
 542 730 l 1
 542 611 l 1
 215 611 l 1
 215 438 l 1
 522 438 l 1
 522 323 l 1
 215 323 l 1
 215 119 l 1
 542 119 l 1
 542 0 l 1
 75 0 l 1
 75 730 l 1
236 -71 m 1
 384 -71 l 1
 384 -219 l 1
 236 -219 l 1
 236 -71 l 1
195 980 m 1
 424 980 l 1
 547 770 l 1
 391 770 l 1
 311 923 l 1
 309 923 l 1
 229 770 l 1
 73 770 l 1
 195 980 l 1
EndSplineSet
EndChar

StartChar: uni1EC0
Encoding: 7872 7872 49
Width: 603
Flags: W
LayerCount: 2
Fore
SplineSet
229 770 m 1
 73 770 l 1
 178 950 l 1
 87 950 l 1
 -36 1160 l 1
 134 1160 l 1
 205 980 l 1
 424 980 l 1
 547 770 l 1
 391 770 l 1
 311 923 l 1
 309 923 l 1
 229 770 l 1
75 0 m 1
 75 730 l 1
 542 730 l 1
 542 611 l 1
 215 611 l 1
 215 438 l 1
 522 438 l 1
 522 323 l 1
 215 323 l 1
 215 119 l 1
 542 119 l 1
 542 0 l 1
 75 0 l 1
EndSplineSet
EndChar

StartChar: uni1EC2
Encoding: 7874 7874 50
Width: 603
Flags: W
LayerCount: 2
Fore
SplineSet
443 948 m 1
 547 770 l 1
 391 770 l 1
 311 923 l 1
 309 923 l 1
 229 770 l 1
 73 770 l 1
 195 980 l 1
 412 980 l 1
 415 996 416 1007 416 1012 c 0
 416 1026 412 1035 403 1040 c 0
 394 1045 378 1047 355 1047 c 0
 310 1047 265 1040 221 1027 c 1
 209 1130 l 1
 261 1142 318 1148 381 1148 c 0
 426 1148 461 1146 485 1140 c 0
 509 1136 526 1127 536 1114 c 0
 547 1102 552 1084 552 1061 c 0
 552 1044 550 1026 546 1004 c 0
 542 984 537 965 530 948 c 1
 443 948 l 1
75 0 m 1
 75 730 l 1
 542 730 l 1
 542 611 l 1
 215 611 l 1
 215 438 l 1
 522 438 l 1
 522 323 l 1
 215 323 l 1
 215 119 l 1
 542 119 l 1
 542 0 l 1
 75 0 l 1
EndSplineSet
EndChar

StartChar: uni1EC4
Encoding: 7876 7876 51
Width: 603
Flags: W
LayerCount: 2
Fore
SplineSet
75 730 m 1
 542 730 l 1
 542 611 l 1
 215 611 l 1
 215 438 l 1
 522 438 l 1
 522 323 l 1
 215 323 l 1
 215 119 l 1
 542 119 l 1
 542 0 l 1
 75 0 l 1
 75 730 l 1
195 980 m 1
 424 980 l 1
 547 770 l 1
 391 770 l 1
 311 923 l 1
 309 923 l 1
 229 770 l 1
 73 770 l 1
 195 980 l 1
368 1012 m 0
 348 1018 324 1030 297 1046 c 0
 267 1064 246 1073 233 1073 c 0
 223 1073 216 1068 212 1060 c 0
 208 1050 206 1034 206 1011 c 1
 90 1011 l 1
 90 1074 99 1120 116 1150 c 0
 133 1180 160 1195 196 1195 c 0
 231 1195 273 1180 323 1150 c 0
 353 1132 375 1123 388 1123 c 0
 397 1123 404 1128 408 1136 c 0
 412 1146 414 1162 414 1185 c 1
 530 1185 l 1
 530 1122 522 1075 504 1046 c 0
 488 1016 461 1001 425 1001 c 0
 408 1001 389 1004 368 1012 c 0
EndSplineSet
EndChar

StartChar: uni0204
Encoding: 516 516 52
Width: 603
Flags: W
LayerCount: 2
Fore
SplineSet
75 730 m 1
 542 730 l 1
 542 611 l 1
 215 611 l 1
 215 438 l 1
 522 438 l 1
 522 323 l 1
 215 323 l 1
 215 119 l 1
 542 119 l 1
 542 0 l 1
 75 0 l 1
 75 730 l 1
42 980 m 1
 212 980 l 1
 295 770 l 1
 165 770 l 1
 42 980 l 1
282 980 m 1
 452 980 l 1
 535 770 l 1
 405 770 l 1
 282 980 l 1
EndSplineSet
EndChar

StartChar: Edieresis
Encoding: 203 203 53
Width: 603
Flags: W
LayerCount: 2
Fore
SplineSet
75 730 m 1
 542 730 l 1
 542 611 l 1
 215 611 l 1
 215 438 l 1
 522 438 l 1
 522 323 l 1
 215 323 l 1
 215 119 l 1
 542 119 l 1
 542 0 l 1
 75 0 l 1
 75 730 l 1
106 949 m 1
 254 949 l 1
 254 801 l 1
 106 801 l 1
 106 949 l 1
366 949 m 1
 513 949 l 1
 513 801 l 1
 366 801 l 1
 366 949 l 1
EndSplineSet
EndChar

StartChar: Edotaccent
Encoding: 278 278 54
Width: 603
Flags: W
LayerCount: 2
Fore
SplineSet
75 730 m 1
 542 730 l 1
 542 611 l 1
 215 611 l 1
 215 438 l 1
 522 438 l 1
 522 323 l 1
 215 323 l 1
 215 119 l 1
 542 119 l 1
 542 0 l 1
 75 0 l 1
 75 730 l 1
236 949 m 1
 384 949 l 1
 384 801 l 1
 236 801 l 1
 236 949 l 1
EndSplineSet
EndChar

StartChar: uni1EB8
Encoding: 7864 7864 55
Width: 603
Flags: W
LayerCount: 2
Fore
SplineSet
75 730 m 1
 542 730 l 1
 542 611 l 1
 215 611 l 1
 215 438 l 1
 522 438 l 1
 522 323 l 1
 215 323 l 1
 215 119 l 1
 542 119 l 1
 542 0 l 1
 75 0 l 1
 75 730 l 1
236 -71 m 1
 384 -71 l 1
 384 -219 l 1
 236 -219 l 1
 236 -71 l 1
EndSplineSet
EndChar

StartChar: Egrave
Encoding: 200 200 56
Width: 603
Flags: W
LayerCount: 2
Fore
SplineSet
75 730 m 1
 542 730 l 1
 542 611 l 1
 215 611 l 1
 215 438 l 1
 522 438 l 1
 522 323 l 1
 215 323 l 1
 215 119 l 1
 542 119 l 1
 542 0 l 1
 75 0 l 1
 75 730 l 1
162 980 m 1
 332 980 l 1
 415 770 l 1
 285 770 l 1
 162 980 l 1
EndSplineSet
EndChar

StartChar: uni1EBA
Encoding: 7866 7866 57
Width: 603
Flags: W
LayerCount: 2
Fore
SplineSet
75 730 m 1
 542 730 l 1
 542 611 l 1
 215 611 l 1
 215 438 l 1
 522 438 l 1
 522 323 l 1
 215 323 l 1
 215 119 l 1
 542 119 l 1
 542 0 l 1
 75 0 l 1
 75 730 l 1
345 849 m 0
 345 863 341 872 332 877 c 0
 323 882 307 884 284 884 c 0
 239 884 194 877 150 864 c 1
 138 967 l 1
 190 979 247 985 310 985 c 0
 355 985 390 982 414 978 c 0
 438 972 455 964 466 952 c 0
 476 939 481 921 481 898 c 0
 481 881 479 862 475 842 c 0
 471 820 466 802 459 785 c 1
 333 785 l 1
 341 812 345 833 345 849 c 0
EndSplineSet
EndChar

StartChar: uni0206
Encoding: 518 518 58
Width: 603
Flags: W
LayerCount: 2
Fore
SplineSet
75 730 m 1
 542 730 l 1
 542 611 l 1
 215 611 l 1
 215 438 l 1
 522 438 l 1
 522 323 l 1
 215 323 l 1
 215 119 l 1
 542 119 l 1
 542 0 l 1
 75 0 l 1
 75 730 l 1
422 951 m 0
 454 935 480 913 500 884 c 0
 518 856 529 824 530 788 c 1
 395 788 l 1
 388 845 359 874 310 874 c 0
 260 874 231 845 224 788 c 1
 90 788 l 1
 91 824 102 856 120 884 c 0
 140 913 166 935 198 951 c 0
 232 967 269 975 310 975 c 0
 351 975 388 967 422 951 c 0
EndSplineSet
EndChar

StartChar: Emacron
Encoding: 274 274 59
Width: 603
Flags: W
LayerCount: 2
Fore
SplineSet
75 730 m 1
 542 730 l 1
 542 611 l 1
 215 611 l 1
 215 438 l 1
 522 438 l 1
 522 323 l 1
 215 323 l 1
 215 119 l 1
 542 119 l 1
 542 0 l 1
 75 0 l 1
 75 730 l 1
114 927 m 1
 506 927 l 1
 506 823 l 1
 114 823 l 1
 114 927 l 1
EndSplineSet
EndChar

StartChar: Eogonek
Encoding: 280 280 60
Width: 603
Flags: W
LayerCount: 2
Fore
SplineSet
632 -197 m 1
 597 -211 558 -218 514 -218 c 0
 457 -218 412 -208 382 -188 c 0
 350 -167 335 -139 335 -102 c 0
 335 -67 350 -33 381 0 c 1
 75 0 l 1
 75 730 l 1
 542 730 l 1
 542 611 l 1
 215 611 l 1
 215 438 l 1
 522 438 l 1
 522 323 l 1
 215 323 l 1
 215 119 l 1
 542 119 l 1
 542 0 l 1
 488 -29 461 -56 461 -81 c 0
 461 -92 466 -101 477 -106 c 0
 488 -112 503 -115 524 -115 c 0
 555 -115 585 -109 616 -96 c 1
 632 -197 l 1
EndSplineSet
EndChar

StartChar: uni1EBC
Encoding: 7868 7868 61
Width: 603
Flags: W
LayerCount: 2
Fore
SplineSet
75 730 m 1
 542 730 l 1
 542 611 l 1
 215 611 l 1
 215 438 l 1
 522 438 l 1
 522 323 l 1
 215 323 l 1
 215 119 l 1
 542 119 l 1
 542 0 l 1
 75 0 l 1
 75 730 l 1
368 788 m 0
 348 796 324 807 297 823 c 0
 267 841 246 850 233 850 c 0
 223 850 216 846 212 836 c 0
 208 828 206 811 206 788 c 1
 90 788 l 1
 90 851 99 897 116 927 c 0
 133 957 160 972 196 972 c 0
 231 972 273 957 323 927 c 0
 353 909 375 900 388 900 c 0
 397 900 404 904 408 914 c 0
 412 922 414 939 414 962 c 1
 530 962 l 1
 530 899 522 852 504 822 c 0
 488 793 461 778 425 778 c 0
 408 778 389 782 368 788 c 0
EndSplineSet
EndChar

StartChar: F
Encoding: 70 70 62
Width: 593
Flags: W
LayerCount: 2
Fore
SplineSet
75 730 m 1
 542 730 l 1
 542 608 l 1
 215 608 l 1
 215 420 l 1
 522 420 l 1
 522 301 l 1
 215 301 l 1
 215 0 l 1
 75 0 l 1
 75 730 l 1
EndSplineSet
EndChar

StartChar: G
Encoding: 71 71 63
Width: 771
Flags: W
LayerCount: 2
Fore
SplineSet
707 435 m 1
 707 48 l 1
 670 29 628 15 580 5 c 0
 532 -5 483 -10 432 -10 c 0
 350 -10 279 5 220 34 c 0
 161 64 115 107 84 164 c 0
 53 220 37 287 37 365 c 0
 37 443 53 510 84 566 c 0
 115 623 161 666 220 696 c 0
 279 725 350 740 432 740 c 0
 531 740 615 719 682 676 c 1
 627 569 l 1
 566 603 501 620 432 620 c 0
 351 620 288 598 246 554 c 0
 202 511 181 448 181 365 c 0
 181 282 202 219 246 176 c 0
 288 132 351 110 432 110 c 0
 480 110 525 117 567 132 c 1
 567 317 l 1
 366 317 l 1
 366 435 l 1
 707 435 l 1
EndSplineSet
EndChar

StartChar: Gbreve
Encoding: 286 286 64
Width: 771
Flags: W
LayerCount: 2
Fore
SplineSet
707 435 m 1
 707 48 l 1
 670 29 628 15 580 5 c 0
 532 -5 483 -10 432 -10 c 0
 350 -10 279 5 220 34 c 0
 161 64 115 107 84 164 c 0
 53 220 37 287 37 365 c 0
 37 443 53 510 84 566 c 0
 115 623 161 666 220 696 c 0
 279 725 350 740 432 740 c 0
 531 740 615 719 682 676 c 1
 627 569 l 1
 566 603 501 620 432 620 c 0
 351 620 288 598 246 554 c 0
 202 511 181 448 181 365 c 0
 181 282 202 219 246 176 c 0
 288 132 351 110 432 110 c 0
 480 110 525 117 567 132 c 1
 567 317 l 1
 366 317 l 1
 366 435 l 1
 707 435 l 1
292 799 m 0
 260 815 234 837 214 866 c 0
 196 894 185 926 184 962 c 1
 318 962 l 1
 325 905 354 876 404 876 c 0
 453 876 482 905 489 962 c 1
 624 962 l 1
 623 926 612 894 594 866 c 0
 574 837 548 815 516 799 c 0
 482 783 445 775 404 775 c 0
 363 775 326 783 292 799 c 0
EndSplineSet
EndChar

StartChar: Gcaron
Encoding: 486 486 65
Width: 771
Flags: W
LayerCount: 2
Fore
SplineSet
707 435 m 1
 707 48 l 1
 670 29 628 15 580 5 c 0
 532 -5 483 -10 432 -10 c 0
 350 -10 279 5 220 34 c 0
 161 64 115 107 84 164 c 0
 53 220 37 287 37 365 c 0
 37 443 53 510 84 566 c 0
 115 623 161 666 220 696 c 0
 279 725 350 740 432 740 c 0
 531 740 615 719 682 676 c 1
 627 569 l 1
 566 603 501 620 432 620 c 0
 351 620 288 598 246 554 c 0
 202 511 181 448 181 365 c 0
 181 282 202 219 246 176 c 0
 288 132 351 110 432 110 c 0
 480 110 525 117 567 132 c 1
 567 317 l 1
 366 317 l 1
 366 435 l 1
 707 435 l 1
166 980 m 1
 322 980 l 1
 402 827 l 1
 404 827 l 1
 484 980 l 1
 640 980 l 1
 517 770 l 1
 288 770 l 1
 166 980 l 1
EndSplineSet
EndChar

StartChar: Gcircumflex
Encoding: 284 284 66
Width: 771
Flags: W
LayerCount: 2
Fore
SplineSet
707 435 m 1
 707 48 l 1
 670 29 628 15 580 5 c 0
 532 -5 483 -10 432 -10 c 0
 350 -10 279 5 220 34 c 0
 161 64 115 107 84 164 c 0
 53 220 37 287 37 365 c 0
 37 443 53 510 84 566 c 0
 115 623 161 666 220 696 c 0
 279 725 350 740 432 740 c 0
 531 740 615 719 682 676 c 1
 627 569 l 1
 566 603 501 620 432 620 c 0
 351 620 288 598 246 554 c 0
 202 511 181 448 181 365 c 0
 181 282 202 219 246 176 c 0
 288 132 351 110 432 110 c 0
 480 110 525 117 567 132 c 1
 567 317 l 1
 366 317 l 1
 366 435 l 1
 707 435 l 1
288 980 m 1
 517 980 l 1
 640 770 l 1
 484 770 l 1
 404 923 l 1
 402 923 l 1
 322 770 l 1
 166 770 l 1
 288 980 l 1
EndSplineSet
EndChar

StartChar: uni0122
Encoding: 290 290 67
Width: 771
Flags: W
LayerCount: 2
Fore
SplineSet
707 435 m 1
 707 48 l 1
 670 29 628 15 580 5 c 0
 532 -5 483 -10 432 -10 c 0
 350 -10 279 5 220 34 c 0
 161 64 115 107 84 164 c 0
 53 220 37 287 37 365 c 0
 37 443 53 510 84 566 c 0
 115 623 161 666 220 696 c 0
 279 725 350 740 432 740 c 0
 531 740 615 719 682 676 c 1
 627 569 l 1
 566 603 501 620 432 620 c 0
 351 620 288 598 246 554 c 0
 202 511 181 448 181 365 c 0
 181 282 202 219 246 176 c 0
 288 132 351 110 432 110 c 0
 480 110 525 117 567 132 c 1
 567 317 l 1
 366 317 l 1
 366 435 l 1
 707 435 l 1
406 -250 m 1
 276 -250 l 1
 359 -40 l 1
 529 -40 l 1
 406 -250 l 1
EndSplineSet
EndChar

StartChar: Gdotaccent
Encoding: 288 288 68
Width: 771
Flags: W
LayerCount: 2
Fore
SplineSet
707 435 m 1
 707 48 l 1
 670 29 628 15 580 5 c 0
 532 -5 483 -10 432 -10 c 0
 350 -10 279 5 220 34 c 0
 161 64 115 107 84 164 c 0
 53 220 37 287 37 365 c 0
 37 443 53 510 84 566 c 0
 115 623 161 666 220 696 c 0
 279 725 350 740 432 740 c 0
 531 740 615 719 682 676 c 1
 627 569 l 1
 566 603 501 620 432 620 c 0
 351 620 288 598 246 554 c 0
 202 511 181 448 181 365 c 0
 181 282 202 219 246 176 c 0
 288 132 351 110 432 110 c 0
 480 110 525 117 567 132 c 1
 567 317 l 1
 366 317 l 1
 366 435 l 1
 707 435 l 1
329 949 m 1
 477 949 l 1
 477 801 l 1
 329 801 l 1
 329 949 l 1
EndSplineSet
EndChar

StartChar: H
Encoding: 72 72 69
Width: 720
Flags: W
LayerCount: 2
Fore
SplineSet
505 730 m 1
 645 730 l 1
 645 0 l 1
 505 0 l 1
 505 322 l 1
 215 322 l 1
 215 0 l 1
 75 0 l 1
 75 730 l 1
 215 730 l 1
 215 445 l 1
 505 445 l 1
 505 730 l 1
EndSplineSet
EndChar

StartChar: Hbar
Encoding: 294 294 70
Width: 805
Flags: W
LayerCount: 2
Fore
SplineSet
779 649 m 1
 779 543 l 1
 687 543 l 1
 687 0 l 1
 547 0 l 1
 547 322 l 1
 257 322 l 1
 257 0 l 1
 117 0 l 1
 117 543 l 1
 26 543 l 1
 26 649 l 1
 117 649 l 1
 117 730 l 1
 257 730 l 1
 257 649 l 1
 547 649 l 1
 547 730 l 1
 687 730 l 1
 687 649 l 1
 779 649 l 1
547 445 m 1
 547 543 l 1
 257 543 l 1
 257 445 l 1
 547 445 l 1
EndSplineSet
EndChar

StartChar: Hcircumflex
Encoding: 292 292 71
Width: 720
Flags: W
LayerCount: 2
Fore
SplineSet
505 730 m 1
 645 730 l 1
 645 0 l 1
 505 0 l 1
 505 322 l 1
 215 322 l 1
 215 0 l 1
 75 0 l 1
 75 730 l 1
 215 730 l 1
 215 445 l 1
 505 445 l 1
 505 730 l 1
245 980 m 1
 474 980 l 1
 597 770 l 1
 441 770 l 1
 361 923 l 1
 359 923 l 1
 279 770 l 1
 123 770 l 1
 245 980 l 1
EndSplineSet
EndChar

StartChar: I
Encoding: 73 73 72
Width: 311
Flags: W
LayerCount: 2
Fore
SplineSet
83 730 m 1
 229 730 l 1
 229 0 l 1
 83 0 l 1
 83 730 l 1
EndSplineSet
EndChar

StartChar: Iacute
Encoding: 205 205 73
Width: 311
Flags: W
LayerCount: 2
Fore
SplineSet
83 730 m 1
 229 730 l 1
 229 0 l 1
 83 0 l 1
 83 730 l 1
181 770 m 1
 51 770 l 1
 134 980 l 1
 304 980 l 1
 181 770 l 1
EndSplineSet
EndChar

StartChar: Ibreve
Encoding: 300 300 74
Width: 311
Flags: W
LayerCount: 2
Fore
SplineSet
83 730 m 1
 229 730 l 1
 229 0 l 1
 83 0 l 1
 83 730 l 1
44 799 m 0
 12 815 -14 837 -34 866 c 0
 -52 894 -63 926 -64 962 c 1
 70 962 l 1
 77 905 106 876 156 876 c 0
 205 876 234 905 241 962 c 1
 376 962 l 1
 375 926 364 894 346 866 c 0
 326 837 300 815 268 799 c 0
 234 783 197 775 156 775 c 0
 115 775 78 783 44 799 c 0
EndSplineSet
EndChar

StartChar: Icircumflex
Encoding: 206 206 75
Width: 311
Flags: W
LayerCount: 2
Fore
SplineSet
83 730 m 1
 229 730 l 1
 229 0 l 1
 83 0 l 1
 83 730 l 1
41 980 m 1
 270 980 l 1
 393 770 l 1
 237 770 l 1
 157 923 l 1
 155 923 l 1
 75 770 l 1
 -81 770 l 1
 41 980 l 1
EndSplineSet
EndChar

StartChar: uni0208
Encoding: 520 520 76
Width: 311
Flags: W
LayerCount: 2
Fore
SplineSet
83 730 m 1
 229 730 l 1
 229 0 l 1
 83 0 l 1
 83 730 l 1
-113 980 m 1
 57 980 l 1
 140 770 l 1
 10 770 l 1
 -113 980 l 1
127 980 m 1
 297 980 l 1
 380 770 l 1
 250 770 l 1
 127 980 l 1
EndSplineSet
EndChar

StartChar: Idieresis
Encoding: 207 207 77
Width: 311
Flags: W
LayerCount: 2
Fore
SplineSet
83 730 m 1
 229 730 l 1
 229 0 l 1
 83 0 l 1
 83 730 l 1
-48 949 m 1
 100 949 l 1
 100 801 l 1
 -48 801 l 1
 -48 949 l 1
212 949 m 1
 359 949 l 1
 359 801 l 1
 212 801 l 1
 212 949 l 1
EndSplineSet
EndChar

StartChar: Idotaccent
Encoding: 304 304 78
Width: 311
Flags: W
LayerCount: 2
Fore
SplineSet
83 730 m 1
 229 730 l 1
 229 0 l 1
 83 0 l 1
 83 730 l 1
82 949 m 1
 230 949 l 1
 230 801 l 1
 82 801 l 1
 82 949 l 1
EndSplineSet
EndChar

StartChar: uni1ECA
Encoding: 7882 7882 79
Width: 311
Flags: W
LayerCount: 2
Fore
SplineSet
83 730 m 1
 229 730 l 1
 229 0 l 1
 83 0 l 1
 83 730 l 1
82 -71 m 1
 230 -71 l 1
 230 -219 l 1
 82 -219 l 1
 82 -71 l 1
EndSplineSet
EndChar

StartChar: Igrave
Encoding: 204 204 80
Width: 311
Flags: W
LayerCount: 2
Fore
SplineSet
83 730 m 1
 229 730 l 1
 229 0 l 1
 83 0 l 1
 83 730 l 1
7 980 m 1
 177 980 l 1
 260 770 l 1
 130 770 l 1
 7 980 l 1
EndSplineSet
EndChar

StartChar: uni1EC8
Encoding: 7880 7880 81
Width: 311
Flags: W
LayerCount: 2
Fore
SplineSet
83 730 m 1
 229 730 l 1
 229 0 l 1
 83 0 l 1
 83 730 l 1
191 849 m 0
 191 863 187 872 178 877 c 0
 169 882 153 884 130 884 c 0
 85 884 40 877 -4 864 c 1
 -16 967 l 1
 36 979 93 985 156 985 c 0
 201 985 236 982 260 978 c 0
 284 972 301 964 312 952 c 0
 322 939 327 921 327 898 c 0
 327 881 325 862 321 842 c 0
 317 820 312 802 305 785 c 1
 179 785 l 1
 187 812 191 833 191 849 c 0
EndSplineSet
EndChar

StartChar: uni020A
Encoding: 522 522 82
Width: 311
Flags: W
LayerCount: 2
Fore
SplineSet
83 730 m 1
 229 730 l 1
 229 0 l 1
 83 0 l 1
 83 730 l 1
268 951 m 0
 300 935 326 913 346 884 c 0
 364 856 375 824 376 788 c 1
 241 788 l 1
 234 845 205 874 156 874 c 0
 106 874 77 845 70 788 c 1
 -64 788 l 1
 -63 824 -52 856 -34 884 c 0
 -14 913 12 935 44 951 c 0
 78 967 115 975 156 975 c 0
 197 975 234 967 268 951 c 0
EndSplineSet
EndChar

StartChar: Imacron
Encoding: 298 298 83
Width: 311
Flags: W
LayerCount: 2
Fore
SplineSet
83 730 m 1
 229 730 l 1
 229 0 l 1
 83 0 l 1
 83 730 l 1
-41 927 m 1
 351 927 l 1
 351 823 l 1
 -41 823 l 1
 -41 927 l 1
EndSplineSet
EndChar

StartChar: Iogonek
Encoding: 302 302 84
Width: 311
Flags: W
LayerCount: 2
Fore
SplineSet
319 -197 m 1
 284 -211 245 -218 201 -218 c 0
 144 -218 100 -208 68 -188 c 0
 38 -167 22 -139 22 -102 c 0
 22 -61 42 -23 83 14 c 1
 83 730 l 1
 229 730 l 1
 229 0 l 1
 175 -29 148 -56 148 -81 c 0
 148 -92 153 -101 164 -106 c 0
 175 -112 190 -115 211 -115 c 0
 242 -115 272 -109 303 -96 c 1
 319 -197 l 1
EndSplineSet
EndChar

StartChar: Itilde
Encoding: 296 296 85
Width: 311
Flags: W
LayerCount: 2
Fore
SplineSet
83 730 m 1
 229 730 l 1
 229 0 l 1
 83 0 l 1
 83 730 l 1
214 788 m 0
 193 796 169 807 142 823 c 0
 112 841 91 850 78 850 c 0
 68 850 61 846 57 836 c 0
 53 828 51 811 51 788 c 1
 -65 788 l 1
 -65 851 -56 897 -39 927 c 0
 -22 957 5 972 41 972 c 0
 76 972 118 957 168 927 c 0
 198 909 220 900 233 900 c 0
 242 900 249 904 253 914 c 0
 257 922 259 939 259 962 c 1
 375 962 l 1
 375 899 366 852 350 822 c 0
 332 793 306 778 270 778 c 0
 253 778 234 782 214 788 c 0
EndSplineSet
EndChar

StartChar: J
Encoding: 74 74 86
Width: 573
Flags: W
LayerCount: 2
Fore
SplineSet
115 4 m 0
 76 12 39 26 6 43 c 1
 47 162 l 1
 110 131 168 115 222 115 c 0
 269 115 304 128 328 155 c 0
 350 182 362 223 362 280 c 2
 362 730 l 1
 505 730 l 1
 505 280 l 2
 505 181 483 108 440 60 c 0
 396 14 328 -10 235 -10 c 0
 194 -10 154 -6 115 4 c 0
EndSplineSet
EndChar

StartChar: Jcircumflex
Encoding: 308 308 87
Width: 573
Flags: W
LayerCount: 2
Fore
SplineSet
115 4 m 0
 76 12 39 26 6 43 c 1
 47 162 l 1
 110 131 168 115 222 115 c 0
 269 115 304 128 328 155 c 0
 350 182 362 223 362 280 c 2
 362 730 l 1
 505 730 l 1
 505 280 l 2
 505 181 483 108 440 60 c 0
 396 14 328 -10 235 -10 c 0
 194 -10 154 -6 115 4 c 0
172 980 m 1
 401 980 l 1
 524 770 l 1
 368 770 l 1
 288 923 l 1
 286 923 l 1
 206 770 l 1
 50 770 l 1
 172 980 l 1
EndSplineSet
EndChar

StartChar: K
Encoding: 75 75 88
Width: 673
Flags: W
LayerCount: 2
Fore
SplineSet
75 730 m 1
 215 730 l 1
 215 421 l 1
 217 421 l 1
 478 730 l 1
 645 730 l 1
 347 383 l 1
 655 0 l 1
 488 0 l 1
 217 347 l 1
 215 347 l 1
 215 0 l 1
 75 0 l 1
 75 730 l 1
EndSplineSet
EndChar

StartChar: uni0136
Encoding: 310 310 89
Width: 673
Flags: W
LayerCount: 2
Fore
SplineSet
75 730 m 1
 215 730 l 1
 215 421 l 1
 217 421 l 1
 478 730 l 1
 645 730 l 1
 347 383 l 1
 655 0 l 1
 488 0 l 1
 217 347 l 1
 215 347 l 1
 215 0 l 1
 75 0 l 1
 75 730 l 1
323 -250 m 1
 193 -250 l 1
 276 -40 l 1
 446 -40 l 1
 323 -250 l 1
EndSplineSet
EndChar

StartChar: L
Encoding: 76 76 90
Width: 588
Flags: W
LayerCount: 2
Fore
SplineSet
75 730 m 1
 219 730 l 1
 219 123 l 1
 555 123 l 1
 555 0 l 1
 75 0 l 1
 75 730 l 1
EndSplineSet
EndChar

StartChar: uni01C7
Encoding: 455 455 91
Width: 1181
Flags: W
LayerCount: 2
Fore
SplineSet
75 730 m 1
 219 730 l 1
 219 123 l 1
 555 123 l 1
 555 0 l 1
 75 0 l 1
 75 730 l 1
723 4 m 0
 684 12 647 26 614 43 c 1
 655 162 l 1
 718 131 776 115 830 115 c 0
 877 115 912 128 936 155 c 0
 958 182 970 223 970 280 c 2
 970 730 l 1
 1113 730 l 1
 1113 280 l 2
 1113 181 1091 108 1048 60 c 0
 1004 14 936 -10 843 -10 c 0
 802 -10 762 -6 723 4 c 0
EndSplineSet
EndChar

StartChar: Lacute
Encoding: 313 313 92
Width: 588
Flags: W
LayerCount: 2
Fore
SplineSet
75 730 m 1
 219 730 l 1
 219 123 l 1
 555 123 l 1
 555 0 l 1
 75 0 l 1
 75 730 l 1
319 770 m 1
 189 770 l 1
 272 980 l 1
 442 980 l 1
 319 770 l 1
EndSplineSet
EndChar

StartChar: Lcaron
Encoding: 317 317 93
Width: 620
Flags: W
LayerCount: 2
Fore
SplineSet
75 730 m 1
 219 730 l 1
 219 123 l 1
 555 123 l 1
 555 0 l 1
 75 0 l 1
 75 730 l 1
439 770 m 1
 595 770 l 1
 479 470 l 1
 362 470 l 1
 439 770 l 1
EndSplineSet
EndChar

StartChar: uni013B
Encoding: 315 315 94
Width: 588
Flags: W
LayerCount: 2
Fore
SplineSet
75 730 m 1
 219 730 l 1
 219 123 l 1
 555 123 l 1
 555 0 l 1
 75 0 l 1
 75 730 l 1
297 -250 m 1
 167 -250 l 1
 250 -40 l 1
 420 -40 l 1
 297 -250 l 1
EndSplineSet
EndChar

StartChar: Ldot
Encoding: 319 319 95
Width: 623
Flags: W
LayerCount: 2
Fore
SplineSet
75 730 m 1
 219 730 l 1
 219 123 l 1
 555 123 l 1
 555 0 l 1
 75 0 l 1
 75 730 l 1
389 451 m 1
 542 451 l 1
 542 298 l 1
 389 298 l 1
 389 451 l 1
EndSplineSet
EndChar

StartChar: uni01C8
Encoding: 456 456 96
Width: 930
Flags: W
LayerCount: 2
Fore
SplineSet
75 730 m 1
 219 730 l 1
 219 123 l 1
 555 123 l 1
 555 0 l 1
 75 0 l 1
 75 730 l 1
716 743 m 1
 856 743 l 1
 856 617 l 1
 716 617 l 1
 716 743 l 1
650 -112 m 0
 676 -104 694 -91 702 -71 c 0
 712 -51 716 -18 716 27 c 2
 716 520 l 1
 856 520 l 1
 856 27 l 2
 856 -41 846 -93 827 -130 c 0
 808 -166 775 -192 729 -207 c 0
 683 -222 617 -230 531 -230 c 1
 524 -122 l 1
 582 -122 624 -118 650 -112 c 0
EndSplineSet
EndChar

StartChar: Lslash
Encoding: 321 321 97
Width: 680
Flags: W
LayerCount: 2
Fore
SplineSet
311 123 m 1
 647 123 l 1
 647 0 l 1
 167 0 l 1
 167 276 l 1
 51 228 l 1
 8 328 l 1
 167 393 l 1
 167 730 l 1
 311 730 l 1
 311 453 l 1
 431 502 l 1
 474 402 l 1
 311 335 l 1
 311 123 l 1
EndSplineSet
EndChar

StartChar: M
Encoding: 77 77 98
Width: 877
Flags: W
LayerCount: 2
Fore
SplineSet
75 730 m 1
 251 730 l 1
 437 302 l 1
 439 302 l 1
 626 730 l 1
 802 730 l 1
 802 0 l 1
 662 0 l 1
 662 510 l 1
 660 510 l 1
 503 155 l 1
 374 155 l 1
 217 510 l 1
 215 510 l 1
 215 0 l 1
 75 0 l 1
 75 730 l 1
EndSplineSet
EndChar

StartChar: N
Encoding: 78 78 99
Width: 730
Flags: W
LayerCount: 2
Fore
SplineSet
75 730 m 1
 222 730 l 1
 513 230 l 1
 515 230 l 1
 515 730 l 1
 655 730 l 1
 655 0 l 1
 508 0 l 1
 217 500 l 1
 215 500 l 1
 215 0 l 1
 75 0 l 1
 75 730 l 1
EndSplineSet
EndChar

StartChar: uni01CA
Encoding: 458 458 100
Width: 1303
Flags: W
LayerCount: 2
Fore
SplineSet
75 730 m 1
 222 730 l 1
 513 230 l 1
 515 230 l 1
 515 730 l 1
 655 730 l 1
 655 0 l 1
 508 0 l 1
 217 500 l 1
 215 500 l 1
 215 0 l 1
 75 0 l 1
 75 730 l 1
845 4 m 0
 806 12 769 26 736 43 c 1
 777 162 l 1
 840 131 898 115 952 115 c 0
 999 115 1034 128 1058 155 c 0
 1080 182 1092 223 1092 280 c 2
 1092 730 l 1
 1235 730 l 1
 1235 280 l 2
 1235 181 1213 108 1170 60 c 0
 1126 14 1058 -10 965 -10 c 0
 924 -10 884 -6 845 4 c 0
EndSplineSet
EndChar

StartChar: Nacute
Encoding: 323 323 101
Width: 730
Flags: W
LayerCount: 2
Fore
SplineSet
75 730 m 1
 222 730 l 1
 513 230 l 1
 515 230 l 1
 515 730 l 1
 655 730 l 1
 655 0 l 1
 508 0 l 1
 217 500 l 1
 215 500 l 1
 215 0 l 1
 75 0 l 1
 75 730 l 1
391 770 m 1
 261 770 l 1
 344 980 l 1
 514 980 l 1
 391 770 l 1
EndSplineSet
EndChar

StartChar: Ncaron
Encoding: 327 327 102
Width: 730
Flags: W
LayerCount: 2
Fore
SplineSet
75 730 m 1
 222 730 l 1
 513 230 l 1
 515 230 l 1
 515 730 l 1
 655 730 l 1
 655 0 l 1
 508 0 l 1
 217 500 l 1
 215 500 l 1
 215 0 l 1
 75 0 l 1
 75 730 l 1
128 980 m 1
 284 980 l 1
 364 827 l 1
 366 827 l 1
 446 980 l 1
 602 980 l 1
 479 770 l 1
 250 770 l 1
 128 980 l 1
EndSplineSet
EndChar

StartChar: uni0145
Encoding: 325 325 103
Width: 730
Flags: W
LayerCount: 2
Fore
SplineSet
75 730 m 1
 222 730 l 1
 513 230 l 1
 515 230 l 1
 515 730 l 1
 655 730 l 1
 655 0 l 1
 508 0 l 1
 217 500 l 1
 215 500 l 1
 215 0 l 1
 75 0 l 1
 75 730 l 1
368 -250 m 1
 238 -250 l 1
 321 -40 l 1
 491 -40 l 1
 368 -250 l 1
EndSplineSet
EndChar

StartChar: Eng
Encoding: 330 330 104
Width: 730
Flags: W
LayerCount: 2
Fore
SplineSet
655 730 m 1
 655 -14 l 2
 655 -89 640 -143 612 -176 c 0
 582 -208 534 -224 467 -224 c 0
 428 -224 387 -219 342 -208 c 1
 360 -96 l 1
 387 -103 413 -107 438 -107 c 0
 467 -107 487 -100 498 -86 c 0
 510 -72 516 -48 516 -14 c 2
 516 -13 l 1
 217 487 l 1
 215 487 l 1
 215 0 l 1
 75 0 l 1
 75 730 l 1
 222 730 l 1
 513 243 l 1
 515 243 l 1
 515 730 l 1
 655 730 l 1
EndSplineSet
EndChar

StartChar: uni01CB
Encoding: 459 459 105
Width: 1072
Flags: W
LayerCount: 2
Fore
SplineSet
75 730 m 1
 222 730 l 1
 513 230 l 1
 515 230 l 1
 515 730 l 1
 655 730 l 1
 655 0 l 1
 508 0 l 1
 217 500 l 1
 215 500 l 1
 215 0 l 1
 75 0 l 1
 75 730 l 1
858 743 m 1
 998 743 l 1
 998 617 l 1
 858 617 l 1
 858 743 l 1
792 -112 m 0
 818 -104 836 -91 844 -71 c 0
 854 -51 858 -18 858 27 c 2
 858 520 l 1
 998 520 l 1
 998 27 l 2
 998 -41 988 -93 969 -130 c 0
 950 -166 917 -192 871 -207 c 0
 825 -222 759 -230 673 -230 c 1
 666 -122 l 1
 724 -122 766 -118 792 -112 c 0
EndSplineSet
EndChar

StartChar: Ntilde
Encoding: 209 209 106
Width: 730
Flags: W
LayerCount: 2
Fore
SplineSet
75 730 m 1
 222 730 l 1
 513 230 l 1
 515 230 l 1
 515 730 l 1
 655 730 l 1
 655 0 l 1
 508 0 l 1
 217 500 l 1
 215 500 l 1
 215 0 l 1
 75 0 l 1
 75 730 l 1
424 788 m 0
 403 796 379 807 352 823 c 0
 322 841 301 850 288 850 c 0
 278 850 271 846 267 836 c 0
 263 828 261 811 261 788 c 1
 145 788 l 1
 145 851 154 897 171 927 c 0
 188 957 215 972 251 972 c 0
 286 972 328 957 378 927 c 0
 408 909 430 900 443 900 c 0
 452 900 459 904 463 914 c 0
 467 922 469 939 469 962 c 1
 585 962 l 1
 585 899 576 852 560 822 c 0
 542 793 516 778 480 778 c 0
 463 778 444 782 424 788 c 0
EndSplineSet
EndChar

StartChar: O
Encoding: 79 79 107
Width: 809
Flags: W
LayerCount: 2
Fore
SplineSet
208 36 m 0
 154 66 111 109 82 166 c 0
 52 222 37 288 37 365 c 0
 37 442 52 508 82 564 c 0
 111 621 154 664 208 694 c 0
 264 725 329 740 404 740 c 0
 479 740 545 725 600 694 c 0
 655 664 698 621 727 564 c 0
 756 508 771 442 771 365 c 0
 771 288 756 222 727 166 c 0
 698 109 655 66 600 36 c 0
 545 5 479 -10 404 -10 c 0
 329 -10 264 5 208 36 c 0
570 179 m 0
 608 223 628 285 628 365 c 0
 628 445 608 507 570 551 c 0
 530 595 475 617 404 617 c 0
 333 617 278 595 240 551 c 0
 200 507 181 445 181 365 c 0
 181 285 200 223 240 179 c 0
 278 135 333 113 404 113 c 0
 475 113 530 135 570 179 c 0
EndSplineSet
EndChar

StartChar: Oacute
Encoding: 211 211 108
Width: 809
Flags: W
LayerCount: 2
Fore
SplineSet
208 36 m 0
 154 66 111 109 82 166 c 0
 52 222 37 288 37 365 c 0
 37 442 52 508 82 564 c 0
 111 621 154 664 208 694 c 0
 264 725 329 740 404 740 c 0
 479 740 545 725 600 694 c 0
 655 664 698 621 727 564 c 0
 756 508 771 442 771 365 c 0
 771 288 756 222 727 166 c 0
 698 109 655 66 600 36 c 0
 545 5 479 -10 404 -10 c 0
 329 -10 264 5 208 36 c 0
570 179 m 0
 608 223 628 285 628 365 c 0
 628 445 608 507 570 551 c 0
 530 595 475 617 404 617 c 0
 333 617 278 595 240 551 c 0
 200 507 181 445 181 365 c 0
 181 285 200 223 240 179 c 0
 278 135 333 113 404 113 c 0
 475 113 530 135 570 179 c 0
430 770 m 1
 300 770 l 1
 383 980 l 1
 553 980 l 1
 430 770 l 1
EndSplineSet
EndChar

StartChar: Obreve
Encoding: 334 334 109
Width: 809
Flags: W
LayerCount: 2
Fore
SplineSet
208 36 m 0
 154 66 111 109 82 166 c 0
 52 222 37 288 37 365 c 0
 37 442 52 508 82 564 c 0
 111 621 154 664 208 694 c 0
 264 725 329 740 404 740 c 0
 479 740 545 725 600 694 c 0
 655 664 698 621 727 564 c 0
 756 508 771 442 771 365 c 0
 771 288 756 222 727 166 c 0
 698 109 655 66 600 36 c 0
 545 5 479 -10 404 -10 c 0
 329 -10 264 5 208 36 c 0
570 179 m 0
 608 223 628 285 628 365 c 0
 628 445 608 507 570 551 c 0
 530 595 475 617 404 617 c 0
 333 617 278 595 240 551 c 0
 200 507 181 445 181 365 c 0
 181 285 200 223 240 179 c 0
 278 135 333 113 404 113 c 0
 475 113 530 135 570 179 c 0
294 799 m 0
 260 815 234 837 216 866 c 0
 196 894 186 926 185 962 c 1
 319 962 l 1
 326 905 355 876 405 876 c 0
 454 876 483 905 490 962 c 1
 625 962 l 1
 624 926 614 894 594 866 c 0
 576 837 550 815 516 799 c 0
 484 783 446 775 405 775 c 0
 364 775 326 783 294 799 c 0
EndSplineSet
EndChar

StartChar: Ocircumflex
Encoding: 212 212 110
Width: 809
Flags: W
LayerCount: 2
Fore
SplineSet
208 36 m 0
 154 66 111 109 82 166 c 0
 52 222 37 288 37 365 c 0
 37 442 52 508 82 564 c 0
 111 621 154 664 208 694 c 0
 264 725 329 740 404 740 c 0
 479 740 545 725 600 694 c 0
 655 664 698 621 727 564 c 0
 756 508 771 442 771 365 c 0
 771 288 756 222 727 166 c 0
 698 109 655 66 600 36 c 0
 545 5 479 -10 404 -10 c 0
 329 -10 264 5 208 36 c 0
570 179 m 0
 608 223 628 285 628 365 c 0
 628 445 608 507 570 551 c 0
 530 595 475 617 404 617 c 0
 333 617 278 595 240 551 c 0
 200 507 181 445 181 365 c 0
 181 285 200 223 240 179 c 0
 278 135 333 113 404 113 c 0
 475 113 530 135 570 179 c 0
289 980 m 1
 518 980 l 1
 641 770 l 1
 485 770 l 1
 405 923 l 1
 403 923 l 1
 323 770 l 1
 167 770 l 1
 289 980 l 1
EndSplineSet
EndChar

StartChar: uni1ED0
Encoding: 7888 7888 111
Width: 809
Flags: W
LayerCount: 2
Fore
SplineSet
403 923 m 1
 323 770 l 1
 167 770 l 1
 289 980 l 1
 509 980 l 1
 580 1160 l 1
 750 1160 l 1
 627 950 l 1
 536 950 l 1
 641 770 l 1
 485 770 l 1
 405 923 l 1
 403 923 l 1
600 694 m 0
 655 664 698 621 727 564 c 0
 756 508 771 442 771 365 c 0
 771 288 756 222 727 166 c 0
 698 109 655 66 600 36 c 0
 545 5 479 -10 404 -10 c 0
 329 -10 264 5 208 36 c 0
 154 66 111 109 82 166 c 0
 52 222 37 288 37 365 c 0
 37 442 52 508 82 564 c 0
 111 621 154 664 208 694 c 0
 264 725 329 740 404 740 c 0
 479 740 545 725 600 694 c 0
570 179 m 0
 608 223 628 285 628 365 c 0
 628 445 608 507 570 551 c 0
 530 595 475 617 404 617 c 0
 333 617 278 595 240 551 c 0
 200 507 181 445 181 365 c 0
 181 285 200 223 240 179 c 0
 278 135 333 113 404 113 c 0
 475 113 530 135 570 179 c 0
EndSplineSet
EndChar

StartChar: uni1ED8
Encoding: 7896 7896 112
Width: 809
Flags: W
LayerCount: 2
Fore
SplineSet
208 36 m 0
 154 66 111 109 82 166 c 0
 52 222 37 288 37 365 c 0
 37 442 52 508 82 564 c 0
 111 621 154 664 208 694 c 0
 264 725 329 740 404 740 c 0
 479 740 545 725 600 694 c 0
 655 664 698 621 727 564 c 0
 756 508 771 442 771 365 c 0
 771 288 756 222 727 166 c 0
 698 109 655 66 600 36 c 0
 545 5 479 -10 404 -10 c 0
 329 -10 264 5 208 36 c 0
570 179 m 0
 608 223 628 285 628 365 c 0
 628 445 608 507 570 551 c 0
 530 595 475 617 404 617 c 0
 333 617 278 595 240 551 c 0
 200 507 181 445 181 365 c 0
 181 285 200 223 240 179 c 0
 278 135 333 113 404 113 c 0
 475 113 530 135 570 179 c 0
330 -71 m 1
 478 -71 l 1
 478 -219 l 1
 330 -219 l 1
 330 -71 l 1
289 980 m 1
 518 980 l 1
 641 770 l 1
 485 770 l 1
 405 923 l 1
 403 923 l 1
 323 770 l 1
 167 770 l 1
 289 980 l 1
EndSplineSet
EndChar

StartChar: uni1ED2
Encoding: 7890 7890 113
Width: 809
Flags: W
LayerCount: 2
Fore
SplineSet
272 950 m 1
 182 950 l 1
 59 1160 l 1
 229 1160 l 1
 300 980 l 1
 518 980 l 1
 641 770 l 1
 485 770 l 1
 405 923 l 1
 403 923 l 1
 323 770 l 1
 167 770 l 1
 272 950 l 1
600 694 m 0
 655 664 698 621 727 564 c 0
 756 508 771 442 771 365 c 0
 771 288 756 222 727 166 c 0
 698 109 655 66 600 36 c 0
 545 5 479 -10 404 -10 c 0
 329 -10 264 5 208 36 c 0
 154 66 111 109 82 166 c 0
 52 222 37 288 37 365 c 0
 37 442 52 508 82 564 c 0
 111 621 154 664 208 694 c 0
 264 725 329 740 404 740 c 0
 479 740 545 725 600 694 c 0
570 179 m 0
 608 223 628 285 628 365 c 0
 628 445 608 507 570 551 c 0
 530 595 475 617 404 617 c 0
 333 617 278 595 240 551 c 0
 200 507 181 445 181 365 c 0
 181 285 200 223 240 179 c 0
 278 135 333 113 404 113 c 0
 475 113 530 135 570 179 c 0
EndSplineSet
EndChar

StartChar: uni1ED4
Encoding: 7892 7892 114
Width: 809
Flags: W
LayerCount: 2
Fore
SplineSet
323 770 m 1
 167 770 l 1
 289 980 l 1
 506 980 l 1
 509 996 510 1007 510 1012 c 0
 510 1026 506 1035 497 1040 c 0
 488 1045 472 1047 449 1047 c 0
 404 1047 359 1040 315 1027 c 1
 303 1130 l 1
 355 1142 412 1148 475 1148 c 0
 520 1148 555 1146 579 1140 c 0
 603 1136 620 1127 630 1114 c 0
 641 1102 646 1084 646 1061 c 0
 646 1044 644 1026 640 1004 c 0
 636 984 631 965 624 948 c 1
 537 948 l 1
 641 770 l 1
 485 770 l 1
 405 923 l 1
 403 923 l 1
 323 770 l 1
600 694 m 0
 655 664 698 621 727 564 c 0
 756 508 771 442 771 365 c 0
 771 288 756 222 727 166 c 0
 698 109 655 66 600 36 c 0
 545 5 479 -10 404 -10 c 0
 329 -10 264 5 208 36 c 0
 154 66 111 109 82 166 c 0
 52 222 37 288 37 365 c 0
 37 442 52 508 82 564 c 0
 111 621 154 664 208 694 c 0
 264 725 329 740 404 740 c 0
 479 740 545 725 600 694 c 0
570 179 m 0
 608 223 628 285 628 365 c 0
 628 445 608 507 570 551 c 0
 530 595 475 617 404 617 c 0
 333 617 278 595 240 551 c 0
 200 507 181 445 181 365 c 0
 181 285 200 223 240 179 c 0
 278 135 333 113 404 113 c 0
 475 113 530 135 570 179 c 0
EndSplineSet
EndChar

StartChar: uni1ED6
Encoding: 7894 7894 115
Width: 809
Flags: W
LayerCount: 2
Fore
SplineSet
208 36 m 0
 154 66 111 109 82 166 c 0
 52 222 37 288 37 365 c 0
 37 442 52 508 82 564 c 0
 111 621 154 664 208 694 c 0
 264 725 329 740 404 740 c 0
 479 740 545 725 600 694 c 0
 655 664 698 621 727 564 c 0
 756 508 771 442 771 365 c 0
 771 288 756 222 727 166 c 0
 698 109 655 66 600 36 c 0
 545 5 479 -10 404 -10 c 0
 329 -10 264 5 208 36 c 0
570 179 m 0
 608 223 628 285 628 365 c 0
 628 445 608 507 570 551 c 0
 530 595 475 617 404 617 c 0
 333 617 278 595 240 551 c 0
 200 507 181 445 181 365 c 0
 181 285 200 223 240 179 c 0
 278 135 333 113 404 113 c 0
 475 113 530 135 570 179 c 0
289 980 m 1
 518 980 l 1
 641 770 l 1
 485 770 l 1
 405 923 l 1
 403 923 l 1
 323 770 l 1
 167 770 l 1
 289 980 l 1
462 1012 m 0
 442 1018 418 1030 391 1046 c 0
 361 1064 340 1073 327 1073 c 0
 317 1073 310 1068 306 1060 c 0
 302 1050 300 1034 300 1011 c 1
 184 1011 l 1
 184 1074 193 1120 210 1150 c 0
 227 1180 254 1195 290 1195 c 0
 325 1195 367 1180 417 1150 c 0
 447 1132 469 1123 482 1123 c 0
 491 1123 498 1128 502 1136 c 0
 506 1146 508 1162 508 1185 c 1
 624 1185 l 1
 624 1122 616 1075 598 1046 c 0
 582 1016 555 1001 519 1001 c 0
 502 1001 483 1004 462 1012 c 0
EndSplineSet
EndChar

StartChar: uni020C
Encoding: 524 524 116
Width: 809
Flags: W
LayerCount: 2
Fore
SplineSet
208 36 m 0
 154 66 111 109 82 166 c 0
 52 222 37 288 37 365 c 0
 37 442 52 508 82 564 c 0
 111 621 154 664 208 694 c 0
 264 725 329 740 404 740 c 0
 479 740 545 725 600 694 c 0
 655 664 698 621 727 564 c 0
 756 508 771 442 771 365 c 0
 771 288 756 222 727 166 c 0
 698 109 655 66 600 36 c 0
 545 5 479 -10 404 -10 c 0
 329 -10 264 5 208 36 c 0
570 179 m 0
 608 223 628 285 628 365 c 0
 628 445 608 507 570 551 c 0
 530 595 475 617 404 617 c 0
 333 617 278 595 240 551 c 0
 200 507 181 445 181 365 c 0
 181 285 200 223 240 179 c 0
 278 135 333 113 404 113 c 0
 475 113 530 135 570 179 c 0
136 980 m 1
 306 980 l 1
 389 770 l 1
 259 770 l 1
 136 980 l 1
376 980 m 1
 546 980 l 1
 629 770 l 1
 499 770 l 1
 376 980 l 1
EndSplineSet
EndChar

StartChar: Odieresis
Encoding: 214 214 117
Width: 809
Flags: W
LayerCount: 2
Fore
SplineSet
208 36 m 0
 154 66 111 109 82 166 c 0
 52 222 37 288 37 365 c 0
 37 442 52 508 82 564 c 0
 111 621 154 664 208 694 c 0
 264 725 329 740 404 740 c 0
 479 740 545 725 600 694 c 0
 655 664 698 621 727 564 c 0
 756 508 771 442 771 365 c 0
 771 288 756 222 727 166 c 0
 698 109 655 66 600 36 c 0
 545 5 479 -10 404 -10 c 0
 329 -10 264 5 208 36 c 0
570 179 m 0
 608 223 628 285 628 365 c 0
 628 445 608 507 570 551 c 0
 530 595 475 617 404 617 c 0
 333 617 278 595 240 551 c 0
 200 507 181 445 181 365 c 0
 181 285 200 223 240 179 c 0
 278 135 333 113 404 113 c 0
 475 113 530 135 570 179 c 0
201 949 m 1
 349 949 l 1
 349 801 l 1
 201 801 l 1
 201 949 l 1
461 949 m 1
 608 949 l 1
 608 801 l 1
 461 801 l 1
 461 949 l 1
EndSplineSet
EndChar

StartChar: uni022A
Encoding: 554 554 118
Width: 809
Flags: W
LayerCount: 2
Fore
SplineSet
208 36 m 0
 154 66 111 109 82 166 c 0
 52 222 37 288 37 365 c 0
 37 442 52 508 82 564 c 0
 111 621 154 664 208 694 c 0
 264 725 329 740 404 740 c 0
 479 740 545 725 600 694 c 0
 655 664 698 621 727 564 c 0
 756 508 771 442 771 365 c 0
 771 288 756 222 727 166 c 0
 698 109 655 66 600 36 c 0
 545 5 479 -10 404 -10 c 0
 329 -10 264 5 208 36 c 0
570 179 m 0
 608 223 628 285 628 365 c 0
 628 445 608 507 570 551 c 0
 530 595 475 617 404 617 c 0
 333 617 278 595 240 551 c 0
 200 507 181 445 181 365 c 0
 181 285 200 223 240 179 c 0
 278 135 333 113 404 113 c 0
 475 113 530 135 570 179 c 0
201 949 m 1
 349 949 l 1
 349 801 l 1
 201 801 l 1
 201 949 l 1
461 949 m 1
 608 949 l 1
 608 801 l 1
 461 801 l 1
 461 949 l 1
208 1146 m 1
 600 1146 l 1
 600 1042 l 1
 208 1042 l 1
 208 1146 l 1
EndSplineSet
EndChar

StartChar: uni0230
Encoding: 560 560 119
Width: 809
Flags: W
LayerCount: 2
Fore
SplineSet
208 36 m 0
 154 66 111 109 82 166 c 0
 52 222 37 288 37 365 c 0
 37 442 52 508 82 564 c 0
 111 621 154 664 208 694 c 0
 264 725 329 740 404 740 c 0
 479 740 545 725 600 694 c 0
 655 664 698 621 727 564 c 0
 756 508 771 442 771 365 c 0
 771 288 756 222 727 166 c 0
 698 109 655 66 600 36 c 0
 545 5 479 -10 404 -10 c 0
 329 -10 264 5 208 36 c 0
570 179 m 0
 608 223 628 285 628 365 c 0
 628 445 608 507 570 551 c 0
 530 595 475 617 404 617 c 0
 333 617 278 595 240 551 c 0
 200 507 181 445 181 365 c 0
 181 285 200 223 240 179 c 0
 278 135 333 113 404 113 c 0
 475 113 530 135 570 179 c 0
330 949 m 1
 478 949 l 1
 478 801 l 1
 330 801 l 1
 330 949 l 1
208 1146 m 1
 600 1146 l 1
 600 1042 l 1
 208 1042 l 1
 208 1146 l 1
EndSplineSet
EndChar

StartChar: uni1ECC
Encoding: 7884 7884 120
Width: 809
Flags: W
LayerCount: 2
Fore
SplineSet
208 36 m 0
 154 66 111 109 82 166 c 0
 52 222 37 288 37 365 c 0
 37 442 52 508 82 564 c 0
 111 621 154 664 208 694 c 0
 264 725 329 740 404 740 c 0
 479 740 545 725 600 694 c 0
 655 664 698 621 727 564 c 0
 756 508 771 442 771 365 c 0
 771 288 756 222 727 166 c 0
 698 109 655 66 600 36 c 0
 545 5 479 -10 404 -10 c 0
 329 -10 264 5 208 36 c 0
570 179 m 0
 608 223 628 285 628 365 c 0
 628 445 608 507 570 551 c 0
 530 595 475 617 404 617 c 0
 333 617 278 595 240 551 c 0
 200 507 181 445 181 365 c 0
 181 285 200 223 240 179 c 0
 278 135 333 113 404 113 c 0
 475 113 530 135 570 179 c 0
330 -71 m 1
 478 -71 l 1
 478 -219 l 1
 330 -219 l 1
 330 -71 l 1
EndSplineSet
EndChar

StartChar: Ograve
Encoding: 210 210 121
Width: 809
Flags: W
LayerCount: 2
Fore
SplineSet
208 36 m 0
 154 66 111 109 82 166 c 0
 52 222 37 288 37 365 c 0
 37 442 52 508 82 564 c 0
 111 621 154 664 208 694 c 0
 264 725 329 740 404 740 c 0
 479 740 545 725 600 694 c 0
 655 664 698 621 727 564 c 0
 756 508 771 442 771 365 c 0
 771 288 756 222 727 166 c 0
 698 109 655 66 600 36 c 0
 545 5 479 -10 404 -10 c 0
 329 -10 264 5 208 36 c 0
570 179 m 0
 608 223 628 285 628 365 c 0
 628 445 608 507 570 551 c 0
 530 595 475 617 404 617 c 0
 333 617 278 595 240 551 c 0
 200 507 181 445 181 365 c 0
 181 285 200 223 240 179 c 0
 278 135 333 113 404 113 c 0
 475 113 530 135 570 179 c 0
256 980 m 1
 426 980 l 1
 509 770 l 1
 379 770 l 1
 256 980 l 1
EndSplineSet
EndChar

StartChar: uni1ECE
Encoding: 7886 7886 122
Width: 809
Flags: W
LayerCount: 2
Fore
SplineSet
208 36 m 0
 154 66 111 109 82 166 c 0
 52 222 37 288 37 365 c 0
 37 442 52 508 82 564 c 0
 111 621 154 664 208 694 c 0
 264 725 329 740 404 740 c 0
 479 740 545 725 600 694 c 0
 655 664 698 621 727 564 c 0
 756 508 771 442 771 365 c 0
 771 288 756 222 727 166 c 0
 698 109 655 66 600 36 c 0
 545 5 479 -10 404 -10 c 0
 329 -10 264 5 208 36 c 0
570 179 m 0
 608 223 628 285 628 365 c 0
 628 445 608 507 570 551 c 0
 530 595 475 617 404 617 c 0
 333 617 278 595 240 551 c 0
 200 507 181 445 181 365 c 0
 181 285 200 223 240 179 c 0
 278 135 333 113 404 113 c 0
 475 113 530 135 570 179 c 0
440 849 m 0
 440 863 436 872 427 877 c 0
 418 882 402 884 379 884 c 0
 334 884 289 877 245 864 c 1
 233 967 l 1
 285 979 342 985 405 985 c 0
 450 985 485 982 509 978 c 0
 533 972 550 964 560 952 c 0
 571 939 576 921 576 898 c 0
 576 881 574 862 570 842 c 0
 566 820 561 802 554 785 c 1
 428 785 l 1
 436 812 440 833 440 849 c 0
EndSplineSet
EndChar

StartChar: Ohorn
Encoding: 416 416 123
Width: 832
Flags: W
LayerCount: 2
Fore
SplineSet
803 610 m 0
 786 583 761 566 730 559 c 1
 757 504 771 440 771 365 c 0
 771 288 756 222 727 166 c 0
 698 109 655 66 600 36 c 0
 545 5 479 -10 404 -10 c 0
 329 -10 264 5 208 36 c 0
 154 66 111 109 82 166 c 0
 52 222 37 288 37 365 c 0
 37 442 52 508 82 564 c 0
 111 621 154 664 208 694 c 0
 264 725 329 740 404 740 c 0
 503 740 583 715 645 665 c 1
 660 665 672 670 682 682 c 0
 690 692 695 708 695 727 c 0
 695 742 693 761 688 784 c 0
 684 806 679 824 673 838 c 1
 808 838 l 1
 822 798 829 756 829 712 c 0
 829 670 820 636 803 610 c 0
570 179 m 0
 608 223 628 285 628 365 c 0
 628 445 608 507 570 551 c 0
 530 595 475 617 404 617 c 0
 333 617 278 595 240 551 c 0
 200 507 181 445 181 365 c 0
 181 285 200 223 240 179 c 0
 278 135 333 113 404 113 c 0
 475 113 530 135 570 179 c 0
EndSplineSet
EndChar

StartChar: uni1EDA
Encoding: 7898 7898 124
Width: 832
Flags: W
LayerCount: 2
Fore
SplineSet
803 610 m 0
 786 583 761 566 730 559 c 1
 757 504 771 440 771 365 c 0
 771 288 756 222 727 166 c 0
 698 109 655 66 600 36 c 0
 545 5 479 -10 404 -10 c 0
 329 -10 264 5 208 36 c 0
 154 66 111 109 82 166 c 0
 52 222 37 288 37 365 c 0
 37 442 52 508 82 564 c 0
 111 621 154 664 208 694 c 0
 264 725 329 740 404 740 c 0
 503 740 583 715 645 665 c 1
 660 665 672 670 682 682 c 0
 690 692 695 708 695 727 c 0
 695 742 693 761 688 784 c 0
 684 806 679 824 673 838 c 1
 808 838 l 1
 822 798 829 756 829 712 c 0
 829 670 820 636 803 610 c 0
570 179 m 0
 608 223 628 285 628 365 c 0
 628 445 608 507 570 551 c 0
 530 595 475 617 404 617 c 0
 333 617 278 595 240 551 c 0
 200 507 181 445 181 365 c 0
 181 285 200 223 240 179 c 0
 278 135 333 113 404 113 c 0
 475 113 530 135 570 179 c 0
430 770 m 1
 300 770 l 1
 383 980 l 1
 553 980 l 1
 430 770 l 1
EndSplineSet
EndChar

StartChar: uni1EE2
Encoding: 7906 7906 125
Width: 832
Flags: W
LayerCount: 2
Fore
SplineSet
803 610 m 0
 786 583 761 566 730 559 c 1
 757 504 771 440 771 365 c 0
 771 288 756 222 727 166 c 0
 698 109 655 66 600 36 c 0
 545 5 479 -10 404 -10 c 0
 329 -10 264 5 208 36 c 0
 154 66 111 109 82 166 c 0
 52 222 37 288 37 365 c 0
 37 442 52 508 82 564 c 0
 111 621 154 664 208 694 c 0
 264 725 329 740 404 740 c 0
 503 740 583 715 645 665 c 1
 660 665 672 670 682 682 c 0
 690 692 695 708 695 727 c 0
 695 742 693 761 688 784 c 0
 684 806 679 824 673 838 c 1
 808 838 l 1
 822 798 829 756 829 712 c 0
 829 670 820 636 803 610 c 0
570 179 m 0
 608 223 628 285 628 365 c 0
 628 445 608 507 570 551 c 0
 530 595 475 617 404 617 c 0
 333 617 278 595 240 551 c 0
 200 507 181 445 181 365 c 0
 181 285 200 223 240 179 c 0
 278 135 333 113 404 113 c 0
 475 113 530 135 570 179 c 0
330 -71 m 1
 478 -71 l 1
 478 -219 l 1
 330 -219 l 1
 330 -71 l 1
EndSplineSet
EndChar

StartChar: uni1EDC
Encoding: 7900 7900 126
Width: 832
Flags: W
LayerCount: 2
Fore
SplineSet
803 610 m 0
 786 583 761 566 730 559 c 1
 757 504 771 440 771 365 c 0
 771 288 756 222 727 166 c 0
 698 109 655 66 600 36 c 0
 545 5 479 -10 404 -10 c 0
 329 -10 264 5 208 36 c 0
 154 66 111 109 82 166 c 0
 52 222 37 288 37 365 c 0
 37 442 52 508 82 564 c 0
 111 621 154 664 208 694 c 0
 264 725 329 740 404 740 c 0
 503 740 583 715 645 665 c 1
 660 665 672 670 682 682 c 0
 690 692 695 708 695 727 c 0
 695 742 693 761 688 784 c 0
 684 806 679 824 673 838 c 1
 808 838 l 1
 822 798 829 756 829 712 c 0
 829 670 820 636 803 610 c 0
570 179 m 0
 608 223 628 285 628 365 c 0
 628 445 608 507 570 551 c 0
 530 595 475 617 404 617 c 0
 333 617 278 595 240 551 c 0
 200 507 181 445 181 365 c 0
 181 285 200 223 240 179 c 0
 278 135 333 113 404 113 c 0
 475 113 530 135 570 179 c 0
256 980 m 1
 426 980 l 1
 509 770 l 1
 379 770 l 1
 256 980 l 1
EndSplineSet
EndChar

StartChar: uni1EDE
Encoding: 7902 7902 127
Width: 832
Flags: W
LayerCount: 2
Fore
SplineSet
803 610 m 0
 786 583 761 566 730 559 c 1
 757 504 771 440 771 365 c 0
 771 288 756 222 727 166 c 0
 698 109 655 66 600 36 c 0
 545 5 479 -10 404 -10 c 0
 329 -10 264 5 208 36 c 0
 154 66 111 109 82 166 c 0
 52 222 37 288 37 365 c 0
 37 442 52 508 82 564 c 0
 111 621 154 664 208 694 c 0
 264 725 329 740 404 740 c 0
 503 740 583 715 645 665 c 1
 660 665 672 670 682 682 c 0
 690 692 695 708 695 727 c 0
 695 742 693 761 688 784 c 0
 684 806 679 824 673 838 c 1
 808 838 l 1
 822 798 829 756 829 712 c 0
 829 670 820 636 803 610 c 0
570 179 m 0
 608 223 628 285 628 365 c 0
 628 445 608 507 570 551 c 0
 530 595 475 617 404 617 c 0
 333 617 278 595 240 551 c 0
 200 507 181 445 181 365 c 0
 181 285 200 223 240 179 c 0
 278 135 333 113 404 113 c 0
 475 113 530 135 570 179 c 0
440 849 m 0
 440 863 436 872 427 877 c 0
 418 882 402 884 379 884 c 0
 334 884 289 877 245 864 c 1
 233 967 l 1
 285 979 342 985 405 985 c 0
 450 985 485 982 509 978 c 0
 533 972 550 964 560 952 c 0
 571 939 576 921 576 898 c 0
 576 881 574 862 570 842 c 0
 566 820 561 802 554 785 c 1
 428 785 l 1
 436 812 440 833 440 849 c 0
EndSplineSet
EndChar

StartChar: uni1EE0
Encoding: 7904 7904 128
Width: 832
Flags: W
LayerCount: 2
Fore
SplineSet
803 610 m 0
 786 583 761 566 730 559 c 1
 757 504 771 440 771 365 c 0
 771 288 756 222 727 166 c 0
 698 109 655 66 600 36 c 0
 545 5 479 -10 404 -10 c 0
 329 -10 264 5 208 36 c 0
 154 66 111 109 82 166 c 0
 52 222 37 288 37 365 c 0
 37 442 52 508 82 564 c 0
 111 621 154 664 208 694 c 0
 264 725 329 740 404 740 c 0
 503 740 583 715 645 665 c 1
 660 665 672 670 682 682 c 0
 690 692 695 708 695 727 c 0
 695 742 693 761 688 784 c 0
 684 806 679 824 673 838 c 1
 808 838 l 1
 822 798 829 756 829 712 c 0
 829 670 820 636 803 610 c 0
570 179 m 0
 608 223 628 285 628 365 c 0
 628 445 608 507 570 551 c 0
 530 595 475 617 404 617 c 0
 333 617 278 595 240 551 c 0
 200 507 181 445 181 365 c 0
 181 285 200 223 240 179 c 0
 278 135 333 113 404 113 c 0
 475 113 530 135 570 179 c 0
462 788 m 0
 442 796 418 807 391 823 c 0
 361 841 340 850 327 850 c 0
 317 850 310 846 306 836 c 0
 302 828 300 811 300 788 c 1
 184 788 l 1
 184 851 193 897 210 927 c 0
 227 957 254 972 290 972 c 0
 325 972 367 957 417 927 c 0
 447 909 469 900 482 900 c 0
 491 900 498 904 502 914 c 0
 506 922 508 939 508 962 c 1
 624 962 l 1
 624 899 616 852 598 822 c 0
 582 793 555 778 519 778 c 0
 502 778 483 782 462 788 c 0
EndSplineSet
EndChar

StartChar: Ohungarumlaut
Encoding: 336 336 129
Width: 809
Flags: W
LayerCount: 2
Fore
SplineSet
208 36 m 0
 154 66 111 109 82 166 c 0
 52 222 37 288 37 365 c 0
 37 442 52 508 82 564 c 0
 111 621 154 664 208 694 c 0
 264 725 329 740 404 740 c 0
 479 740 545 725 600 694 c 0
 655 664 698 621 727 564 c 0
 756 508 771 442 771 365 c 0
 771 288 756 222 727 166 c 0
 698 109 655 66 600 36 c 0
 545 5 479 -10 404 -10 c 0
 329 -10 264 5 208 36 c 0
570 179 m 0
 608 223 628 285 628 365 c 0
 628 445 608 507 570 551 c 0
 530 595 475 617 404 617 c 0
 333 617 278 595 240 551 c 0
 200 507 181 445 181 365 c 0
 181 285 200 223 240 179 c 0
 278 135 333 113 404 113 c 0
 475 113 530 135 570 179 c 0
313 770 m 1
 183 770 l 1
 266 980 l 1
 436 980 l 1
 313 770 l 1
553 770 m 1
 423 770 l 1
 506 980 l 1
 676 980 l 1
 553 770 l 1
EndSplineSet
EndChar

StartChar: uni020E
Encoding: 526 526 130
Width: 809
Flags: W
LayerCount: 2
Fore
SplineSet
208 36 m 0
 154 66 111 109 82 166 c 0
 52 222 37 288 37 365 c 0
 37 442 52 508 82 564 c 0
 111 621 154 664 208 694 c 0
 264 725 329 740 404 740 c 0
 479 740 545 725 600 694 c 0
 655 664 698 621 727 564 c 0
 756 508 771 442 771 365 c 0
 771 288 756 222 727 166 c 0
 698 109 655 66 600 36 c 0
 545 5 479 -10 404 -10 c 0
 329 -10 264 5 208 36 c 0
570 179 m 0
 608 223 628 285 628 365 c 0
 628 445 608 507 570 551 c 0
 530 595 475 617 404 617 c 0
 333 617 278 595 240 551 c 0
 200 507 181 445 181 365 c 0
 181 285 200 223 240 179 c 0
 278 135 333 113 404 113 c 0
 475 113 530 135 570 179 c 0
516 951 m 0
 550 935 576 913 594 884 c 0
 614 856 624 824 625 788 c 1
 490 788 l 1
 483 845 454 874 405 874 c 0
 355 874 326 845 319 788 c 1
 185 788 l 1
 186 824 196 856 216 884 c 0
 234 913 260 935 294 951 c 0
 326 967 364 975 405 975 c 0
 446 975 484 967 516 951 c 0
EndSplineSet
EndChar

StartChar: Omacron
Encoding: 332 332 131
Width: 809
Flags: W
LayerCount: 2
Fore
SplineSet
208 36 m 0
 154 66 111 109 82 166 c 0
 52 222 37 288 37 365 c 0
 37 442 52 508 82 564 c 0
 111 621 154 664 208 694 c 0
 264 725 329 740 404 740 c 0
 479 740 545 725 600 694 c 0
 655 664 698 621 727 564 c 0
 756 508 771 442 771 365 c 0
 771 288 756 222 727 166 c 0
 698 109 655 66 600 36 c 0
 545 5 479 -10 404 -10 c 0
 329 -10 264 5 208 36 c 0
570 179 m 0
 608 223 628 285 628 365 c 0
 628 445 608 507 570 551 c 0
 530 595 475 617 404 617 c 0
 333 617 278 595 240 551 c 0
 200 507 181 445 181 365 c 0
 181 285 200 223 240 179 c 0
 278 135 333 113 404 113 c 0
 475 113 530 135 570 179 c 0
208 927 m 1
 600 927 l 1
 600 823 l 1
 208 823 l 1
 208 927 l 1
EndSplineSet
EndChar

StartChar: uni01EA
Encoding: 490 490 132
Width: 809
Flags: W
LayerCount: 2
Fore
SplineSet
388 -81 m 0
 388 -92 393 -101 404 -106 c 0
 415 -112 430 -115 451 -115 c 0
 482 -115 512 -109 543 -96 c 1
 559 -197 l 1
 524 -211 485 -218 441 -218 c 0
 384 -218 340 -208 308 -188 c 0
 278 -167 262 -139 262 -102 c 0
 262 -66 277 -32 308 -1 c 1
 223 17 156 58 108 122 c 0
 61 186 37 267 37 365 c 0
 37 442 52 508 82 564 c 0
 111 621 154 664 208 694 c 0
 264 725 329 740 404 740 c 0
 479 740 545 725 600 694 c 0
 655 664 698 621 727 564 c 0
 756 508 771 442 771 365 c 0
 771 258 743 172 688 106 c 0
 632 41 555 3 456 -7 c 1
 411 -34 388 -58 388 -81 c 0
240 179 m 0
 278 135 333 113 404 113 c 0
 475 113 530 135 570 179 c 0
 608 223 628 285 628 365 c 0
 628 445 608 507 570 551 c 0
 530 595 475 617 404 617 c 0
 333 617 278 595 240 551 c 0
 200 507 181 445 181 365 c 0
 181 285 200 223 240 179 c 0
EndSplineSet
EndChar

StartChar: Oslash
Encoding: 216 216 133
Width: 809
Flags: W
LayerCount: 2
Fore
SplineSet
746 519 m 0
 763 473 771 422 771 365 c 0
 771 288 756 222 727 166 c 0
 698 109 655 66 600 36 c 0
 545 5 479 -10 404 -10 c 0
 334 -10 273 3 222 29 c 1
 168 -43 l 1
 80 23 l 1
 133 93 l 1
 102 126 78 165 62 211 c 0
 45 257 37 308 37 365 c 0
 37 442 52 508 82 564 c 0
 111 621 154 664 208 694 c 0
 264 725 329 740 404 740 c 0
 473 740 534 727 587 702 c 1
 640 773 l 1
 728 707 l 1
 676 637 l 1
 707 604 730 565 746 519 c 0
218 208 m 1
 508 596 l 1
 478 610 443 617 404 617 c 0
 333 617 278 595 240 551 c 0
 200 507 181 445 181 365 c 0
 181 302 193 250 218 208 c 1
570 179 m 0
 608 223 628 285 628 365 c 0
 628 429 615 482 590 523 c 1
 300 134 l 1
 330 120 365 113 404 113 c 0
 475 113 530 135 570 179 c 0
EndSplineSet
EndChar

StartChar: Oslashacute
Encoding: 510 510 134
Width: 809
Flags: W
LayerCount: 2
Fore
SplineSet
746 519 m 0
 763 473 771 422 771 365 c 0
 771 288 756 222 727 166 c 0
 698 109 655 66 600 36 c 0
 545 5 479 -10 404 -10 c 0
 334 -10 273 3 222 29 c 1
 168 -43 l 1
 80 23 l 1
 133 93 l 1
 102 126 78 165 62 211 c 0
 45 257 37 308 37 365 c 0
 37 442 52 508 82 564 c 0
 111 621 154 664 208 694 c 0
 264 725 329 740 404 740 c 0
 473 740 534 727 587 702 c 1
 640 773 l 1
 728 707 l 1
 676 637 l 1
 707 604 730 565 746 519 c 0
218 208 m 1
 508 596 l 1
 478 610 443 617 404 617 c 0
 333 617 278 595 240 551 c 0
 200 507 181 445 181 365 c 0
 181 302 193 250 218 208 c 1
570 179 m 0
 608 223 628 285 628 365 c 0
 628 429 615 482 590 523 c 1
 300 134 l 1
 330 120 365 113 404 113 c 0
 475 113 530 135 570 179 c 0
430 770 m 1
 300 770 l 1
 383 980 l 1
 553 980 l 1
 430 770 l 1
EndSplineSet
EndChar

StartChar: Otilde
Encoding: 213 213 135
Width: 809
Flags: W
LayerCount: 2
Fore
SplineSet
208 36 m 0
 154 66 111 109 82 166 c 0
 52 222 37 288 37 365 c 0
 37 442 52 508 82 564 c 0
 111 621 154 664 208 694 c 0
 264 725 329 740 404 740 c 0
 479 740 545 725 600 694 c 0
 655 664 698 621 727 564 c 0
 756 508 771 442 771 365 c 0
 771 288 756 222 727 166 c 0
 698 109 655 66 600 36 c 0
 545 5 479 -10 404 -10 c 0
 329 -10 264 5 208 36 c 0
570 179 m 0
 608 223 628 285 628 365 c 0
 628 445 608 507 570 551 c 0
 530 595 475 617 404 617 c 0
 333 617 278 595 240 551 c 0
 200 507 181 445 181 365 c 0
 181 285 200 223 240 179 c 0
 278 135 333 113 404 113 c 0
 475 113 530 135 570 179 c 0
462 788 m 0
 442 796 418 807 391 823 c 0
 361 841 340 850 327 850 c 0
 317 850 310 846 306 836 c 0
 302 828 300 811 300 788 c 1
 184 788 l 1
 184 851 193 897 210 927 c 0
 227 957 254 972 290 972 c 0
 325 972 367 957 417 927 c 0
 447 909 469 900 482 900 c 0
 491 900 498 904 502 914 c 0
 506 922 508 939 508 962 c 1
 624 962 l 1
 624 899 616 852 598 822 c 0
 582 793 555 778 519 778 c 0
 502 778 483 782 462 788 c 0
EndSplineSet
EndChar

StartChar: uni022C
Encoding: 556 556 136
Width: 809
Flags: W
LayerCount: 2
Fore
SplineSet
208 36 m 0
 154 66 111 109 82 166 c 0
 52 222 37 288 37 365 c 0
 37 442 52 508 82 564 c 0
 111 621 154 664 208 694 c 0
 264 725 329 740 404 740 c 0
 479 740 545 725 600 694 c 0
 655 664 698 621 727 564 c 0
 756 508 771 442 771 365 c 0
 771 288 756 222 727 166 c 0
 698 109 655 66 600 36 c 0
 545 5 479 -10 404 -10 c 0
 329 -10 264 5 208 36 c 0
570 179 m 0
 608 223 628 285 628 365 c 0
 628 445 608 507 570 551 c 0
 530 595 475 617 404 617 c 0
 333 617 278 595 240 551 c 0
 200 507 181 445 181 365 c 0
 181 285 200 223 240 179 c 0
 278 135 333 113 404 113 c 0
 475 113 530 135 570 179 c 0
462 788 m 0
 442 796 418 807 391 823 c 0
 361 841 340 850 327 850 c 0
 317 850 310 846 306 836 c 0
 302 828 300 811 300 788 c 1
 184 788 l 1
 184 851 193 897 210 927 c 0
 227 957 254 972 290 972 c 0
 325 972 367 957 417 927 c 0
 447 909 469 900 482 900 c 0
 491 900 498 904 502 914 c 0
 506 922 508 939 508 962 c 1
 624 962 l 1
 624 899 616 852 598 822 c 0
 582 793 555 778 519 778 c 0
 502 778 483 782 462 788 c 0
208 1169 m 1
 600 1169 l 1
 600 1065 l 1
 208 1065 l 1
 208 1169 l 1
EndSplineSet
EndChar

StartChar: OE
Encoding: 338 338 137
Width: 1030
Flags: W
LayerCount: 2
Fore
SplineSet
643 611 m 1
 643 438 l 1
 949 438 l 1
 949 323 l 1
 643 323 l 1
 643 119 l 1
 969 119 l 1
 969 0 l 1
 503 0 l 1
 503 1 l 1
 472 -6 439 -10 404 -10 c 0
 329 -10 264 5 208 36 c 0
 154 66 111 109 82 166 c 0
 52 222 37 288 37 365 c 0
 37 442 52 508 82 564 c 0
 111 621 154 664 208 694 c 0
 264 725 329 740 404 740 c 0
 439 740 472 736 503 729 c 1
 503 730 l 1
 969 730 l 1
 969 611 l 1
 643 611 l 1
503 134 m 1
 503 596 l 1
 475 610 442 617 404 617 c 0
 333 617 278 595 240 551 c 0
 200 507 181 445 181 365 c 0
 181 285 200 223 240 179 c 0
 278 135 333 113 404 113 c 0
 442 113 475 120 503 134 c 1
EndSplineSet
EndChar

StartChar: P
Encoding: 80 80 138
Width: 629
Flags: W
LayerCount: 2
Fore
SplineSet
522 671 m 0
 576 632 602 571 602 490 c 0
 602 410 577 350 528 310 c 0
 478 269 404 249 305 249 c 2
 215 249 l 1
 215 0 l 1
 75 0 l 1
 75 730 l 1
 278 730 l 2
 388 730 470 710 522 671 c 0
418 397 m 0
 445 416 459 447 459 489 c 0
 459 531 445 562 418 581 c 0
 390 600 346 610 285 610 c 2
 215 610 l 1
 215 368 l 1
 285 368 l 2
 346 368 390 378 418 397 c 0
EndSplineSet
EndChar

StartChar: Thorn
Encoding: 222 222 139
Width: 629
Flags: W
LayerCount: 2
Fore
SplineSet
522 556 m 0
 576 517 602 456 602 375 c 0
 602 215 503 135 305 135 c 2
 215 135 l 1
 215 0 l 1
 75 0 l 1
 75 730 l 1
 215 730 l 1
 215 615 l 1
 278 615 l 2
 388 615 470 595 522 556 c 0
417 282 m 0
 445 302 459 333 459 374 c 0
 459 416 445 447 418 466 c 0
 390 485 346 495 285 495 c 2
 215 495 l 1
 215 253 l 1
 285 253 l 2
 345 253 389 263 417 282 c 0
EndSplineSet
EndChar

StartChar: Q
Encoding: 81 81 140
Width: 812
Flags: W
LayerCount: 2
Fore
SplineSet
786 -61 m 1
 674 -139 l 1
 642 -95 604 -62 560 -42 c 0
 516 -20 464 -10 404 -10 c 0
 329 -10 264 5 208 36 c 0
 154 66 111 109 82 166 c 0
 52 222 37 288 37 365 c 0
 37 442 52 508 82 564 c 0
 111 621 154 664 208 694 c 0
 264 725 329 740 404 740 c 0
 479 740 545 725 600 694 c 0
 655 664 698 621 727 564 c 0
 756 508 771 442 771 365 c 0
 772 294 758 232 732 179 c 0
 704 126 666 84 615 53 c 1
 686 26 743 -12 786 -61 c 1
240 179 m 0
 278 135 333 113 404 113 c 0
 475 113 530 135 570 179 c 0
 608 223 628 285 628 365 c 0
 628 445 608 507 570 551 c 0
 530 595 475 617 404 617 c 0
 333 617 278 595 240 551 c 0
 200 507 181 445 181 365 c 0
 181 285 200 223 240 179 c 0
EndSplineSet
EndChar

StartChar: R
Encoding: 82 82 141
Width: 658
Flags: W
LayerCount: 2
Fore
SplineSet
216 286 m 1
 215 286 l 1
 215 0 l 1
 75 0 l 1
 75 730 l 1
 285 730 l 2
 393 730 473 712 524 676 c 0
 576 641 602 585 602 510 c 0
 602 379 527 305 376 289 c 1
 628 0 l 1
 464 0 l 1
 216 286 l 1
215 610 m 1
 215 399 l 1
 292 399 l 2
 350 399 392 407 419 424 c 0
 446 441 459 467 459 504 c 0
 459 541 446 568 419 584 c 0
 392 602 350 610 292 610 c 2
 215 610 l 1
EndSplineSet
EndChar

StartChar: Racute
Encoding: 340 340 142
Width: 658
Flags: W
LayerCount: 2
Fore
SplineSet
216 286 m 1
 215 286 l 1
 215 0 l 1
 75 0 l 1
 75 730 l 1
 285 730 l 2
 393 730 473 712 524 676 c 0
 576 641 602 585 602 510 c 0
 602 379 527 305 376 289 c 1
 628 0 l 1
 464 0 l 1
 216 286 l 1
215 610 m 1
 215 399 l 1
 292 399 l 2
 350 399 392 407 419 424 c 0
 446 441 459 467 459 504 c 0
 459 541 446 568 419 584 c 0
 392 602 350 610 292 610 c 2
 215 610 l 1
342 770 m 1
 212 770 l 1
 295 980 l 1
 465 980 l 1
 342 770 l 1
EndSplineSet
EndChar

StartChar: Rcaron
Encoding: 344 344 143
Width: 658
Flags: W
LayerCount: 2
Fore
SplineSet
216 286 m 1
 215 286 l 1
 215 0 l 1
 75 0 l 1
 75 730 l 1
 285 730 l 2
 393 730 473 712 524 676 c 0
 576 641 602 585 602 510 c 0
 602 379 527 305 376 289 c 1
 628 0 l 1
 464 0 l 1
 216 286 l 1
215 610 m 1
 215 399 l 1
 292 399 l 2
 350 399 392 407 419 424 c 0
 446 441 459 467 459 504 c 0
 459 541 446 568 419 584 c 0
 392 602 350 610 292 610 c 2
 215 610 l 1
80 980 m 1
 236 980 l 1
 316 827 l 1
 318 827 l 1
 398 980 l 1
 554 980 l 1
 431 770 l 1
 202 770 l 1
 80 980 l 1
EndSplineSet
EndChar

StartChar: uni0156
Encoding: 342 342 144
Width: 658
Flags: W
LayerCount: 2
Fore
SplineSet
216 286 m 1
 215 286 l 1
 215 0 l 1
 75 0 l 1
 75 730 l 1
 285 730 l 2
 393 730 473 712 524 676 c 0
 576 641 602 585 602 510 c 0
 602 379 527 305 376 289 c 1
 628 0 l 1
 464 0 l 1
 216 286 l 1
215 610 m 1
 215 399 l 1
 292 399 l 2
 350 399 392 407 419 424 c 0
 446 441 459 467 459 504 c 0
 459 541 446 568 419 584 c 0
 392 602 350 610 292 610 c 2
 215 610 l 1
320 -250 m 1
 190 -250 l 1
 273 -40 l 1
 443 -40 l 1
 320 -250 l 1
EndSplineSet
EndChar

StartChar: uni0210
Encoding: 528 528 145
Width: 658
Flags: W
LayerCount: 2
Fore
SplineSet
216 286 m 1
 215 286 l 1
 215 0 l 1
 75 0 l 1
 75 730 l 1
 285 730 l 2
 393 730 473 712 524 676 c 0
 576 641 602 585 602 510 c 0
 602 379 527 305 376 289 c 1
 628 0 l 1
 464 0 l 1
 216 286 l 1
215 610 m 1
 215 399 l 1
 292 399 l 2
 350 399 392 407 419 424 c 0
 446 441 459 467 459 504 c 0
 459 541 446 568 419 584 c 0
 392 602 350 610 292 610 c 2
 215 610 l 1
49 980 m 1
 219 980 l 1
 302 770 l 1
 172 770 l 1
 49 980 l 1
289 980 m 1
 459 980 l 1
 542 770 l 1
 412 770 l 1
 289 980 l 1
EndSplineSet
EndChar

StartChar: uni0212
Encoding: 530 530 146
Width: 658
Flags: W
LayerCount: 2
Fore
SplineSet
216 286 m 1
 215 286 l 1
 215 0 l 1
 75 0 l 1
 75 730 l 1
 285 730 l 2
 393 730 473 712 524 676 c 0
 576 641 602 585 602 510 c 0
 602 379 527 305 376 289 c 1
 628 0 l 1
 464 0 l 1
 216 286 l 1
215 610 m 1
 215 399 l 1
 292 399 l 2
 350 399 392 407 419 424 c 0
 446 441 459 467 459 504 c 0
 459 541 446 568 419 584 c 0
 392 602 350 610 292 610 c 2
 215 610 l 1
428 951 m 0
 462 935 488 913 506 884 c 0
 526 856 536 824 537 788 c 1
 402 788 l 1
 395 845 366 874 317 874 c 0
 267 874 238 845 231 788 c 1
 97 788 l 1
 98 824 108 856 128 884 c 0
 146 913 172 935 206 951 c 0
 238 967 276 975 317 975 c 0
 358 975 396 967 428 951 c 0
EndSplineSet
EndChar

StartChar: S
Encoding: 83 83 147
Width: 623
Flags: W
LayerCount: 2
Fore
SplineSet
160 6 m 0
 117 17 79 32 48 52 c 1
 93 167 l 1
 124 150 158 136 194 126 c 0
 231 117 266 112 300 112 c 0
 341 112 373 120 396 135 c 0
 419 150 430 172 430 201 c 0
 430 220 425 235 416 247 c 0
 406 259 392 269 375 277 c 0
 358 285 334 294 303 304 c 0
 244 323 197 343 161 364 c 0
 125 384 98 408 79 436 c 0
 60 463 51 497 51 537 c 0
 51 602 74 652 120 688 c 0
 167 722 233 740 320 740 c 0
 363 740 406 736 448 726 c 0
 492 718 528 706 558 691 c 1
 513 576 l 1
 486 589 456 600 424 607 c 0
 390 614 358 618 327 618 c 0
 285 618 253 611 230 598 c 0
 208 584 197 564 197 537 c 0
 197 512 207 492 228 478 c 0
 248 464 280 450 325 437 c 0
 384 416 431 396 466 376 c 0
 502 355 529 331 548 303 c 0
 567 275 576 241 576 201 c 0
 576 134 552 82 504 45 c 0
 456 8 388 -10 300 -10 c 0
 250 -10 203 -5 160 6 c 0
EndSplineSet
EndChar

StartChar: Sacute
Encoding: 346 346 148
Width: 623
Flags: W
LayerCount: 2
Fore
SplineSet
160 6 m 0
 117 17 79 32 48 52 c 1
 93 167 l 1
 124 150 158 136 194 126 c 0
 231 117 266 112 300 112 c 0
 341 112 373 120 396 135 c 0
 419 150 430 172 430 201 c 0
 430 220 425 235 416 247 c 0
 406 259 392 269 375 277 c 0
 358 285 334 294 303 304 c 0
 244 323 197 343 161 364 c 0
 125 384 98 408 79 436 c 0
 60 463 51 497 51 537 c 0
 51 602 74 652 120 688 c 0
 167 722 233 740 320 740 c 0
 363 740 406 736 448 726 c 0
 492 718 528 706 558 691 c 1
 513 576 l 1
 486 589 456 600 424 607 c 0
 390 614 358 618 327 618 c 0
 285 618 253 611 230 598 c 0
 208 584 197 564 197 537 c 0
 197 512 207 492 228 478 c 0
 248 464 280 450 325 437 c 0
 384 416 431 396 466 376 c 0
 502 355 529 331 548 303 c 0
 567 275 576 241 576 201 c 0
 576 134 552 82 504 45 c 0
 456 8 388 -10 300 -10 c 0
 250 -10 203 -5 160 6 c 0
335 770 m 1
 205 770 l 1
 288 980 l 1
 458 980 l 1
 335 770 l 1
EndSplineSet
EndChar

StartChar: Scaron
Encoding: 352 352 149
Width: 623
Flags: W
LayerCount: 2
Fore
SplineSet
160 6 m 0
 117 17 79 32 48 52 c 1
 93 167 l 1
 124 150 158 136 194 126 c 0
 231 117 266 112 300 112 c 0
 341 112 373 120 396 135 c 0
 419 150 430 172 430 201 c 0
 430 220 425 235 416 247 c 0
 406 259 392 269 375 277 c 0
 358 285 334 294 303 304 c 0
 244 323 197 343 161 364 c 0
 125 384 98 408 79 436 c 0
 60 463 51 497 51 537 c 0
 51 602 74 652 120 688 c 0
 167 722 233 740 320 740 c 0
 363 740 406 736 448 726 c 0
 492 718 528 706 558 691 c 1
 513 576 l 1
 486 589 456 600 424 607 c 0
 390 614 358 618 327 618 c 0
 285 618 253 611 230 598 c 0
 208 584 197 564 197 537 c 0
 197 512 207 492 228 478 c 0
 248 464 280 450 325 437 c 0
 384 416 431 396 466 376 c 0
 502 355 529 331 548 303 c 0
 567 275 576 241 576 201 c 0
 576 134 552 82 504 45 c 0
 456 8 388 -10 300 -10 c 0
 250 -10 203 -5 160 6 c 0
73 980 m 1
 229 980 l 1
 309 827 l 1
 311 827 l 1
 391 980 l 1
 547 980 l 1
 424 770 l 1
 195 770 l 1
 73 980 l 1
EndSplineSet
EndChar

StartChar: Scedilla
Encoding: 350 350 150
Width: 623
Flags: W
LayerCount: 2
Fore
SplineSet
534 74 m 0
 506 40 466 16 413 3 c 1
 446 -30 462 -65 462 -102 c 0
 462 -139 446 -167 416 -188 c 0
 384 -208 340 -218 283 -218 c 0
 240 -218 200 -211 165 -197 c 1
 181 -96 l 1
 212 -109 242 -115 273 -115 c 0
 294 -115 309 -112 320 -106 c 0
 331 -101 336 -92 336 -81 c 0
 336 -59 315 -35 272 -9 c 1
 228 -8 187 -2 148 8 c 0
 109 19 76 33 48 52 c 1
 93 167 l 1
 124 150 158 136 194 126 c 0
 231 117 266 112 300 112 c 0
 341 112 373 120 396 135 c 0
 419 150 430 172 430 201 c 0
 430 220 425 235 416 247 c 0
 406 259 392 269 375 277 c 0
 358 285 334 294 303 304 c 0
 244 323 197 343 161 364 c 0
 125 384 98 408 79 436 c 0
 60 463 51 497 51 537 c 0
 51 602 74 652 120 688 c 0
 167 722 233 740 320 740 c 0
 363 740 406 736 448 726 c 0
 492 718 528 706 558 691 c 1
 513 576 l 1
 486 589 456 600 424 607 c 0
 390 614 358 618 327 618 c 0
 285 618 253 611 230 598 c 0
 208 584 197 564 197 537 c 0
 197 512 207 492 228 478 c 0
 248 464 280 450 325 437 c 0
 384 416 431 396 466 376 c 0
 502 355 529 331 548 303 c 0
 567 275 576 241 576 201 c 0
 576 150 562 108 534 74 c 0
EndSplineSet
EndChar

StartChar: Scircumflex
Encoding: 348 348 151
Width: 623
Flags: W
LayerCount: 2
Fore
SplineSet
160 6 m 0
 117 17 79 32 48 52 c 1
 93 167 l 1
 124 150 158 136 194 126 c 0
 231 117 266 112 300 112 c 0
 341 112 373 120 396 135 c 0
 419 150 430 172 430 201 c 0
 430 220 425 235 416 247 c 0
 406 259 392 269 375 277 c 0
 358 285 334 294 303 304 c 0
 244 323 197 343 161 364 c 0
 125 384 98 408 79 436 c 0
 60 463 51 497 51 537 c 0
 51 602 74 652 120 688 c 0
 167 722 233 740 320 740 c 0
 363 740 406 736 448 726 c 0
 492 718 528 706 558 691 c 1
 513 576 l 1
 486 589 456 600 424 607 c 0
 390 614 358 618 327 618 c 0
 285 618 253 611 230 598 c 0
 208 584 197 564 197 537 c 0
 197 512 207 492 228 478 c 0
 248 464 280 450 325 437 c 0
 384 416 431 396 466 376 c 0
 502 355 529 331 548 303 c 0
 567 275 576 241 576 201 c 0
 576 134 552 82 504 45 c 0
 456 8 388 -10 300 -10 c 0
 250 -10 203 -5 160 6 c 0
195 980 m 1
 424 980 l 1
 547 770 l 1
 391 770 l 1
 311 923 l 1
 309 923 l 1
 229 770 l 1
 73 770 l 1
 195 980 l 1
EndSplineSet
EndChar

StartChar: uni0218
Encoding: 536 536 152
Width: 623
Flags: W
LayerCount: 2
Fore
SplineSet
160 6 m 0
 117 17 79 32 48 52 c 1
 93 167 l 1
 124 150 158 136 194 126 c 0
 231 117 266 112 300 112 c 0
 341 112 373 120 396 135 c 0
 419 150 430 172 430 201 c 0
 430 220 425 235 416 247 c 0
 406 259 392 269 375 277 c 0
 358 285 334 294 303 304 c 0
 244 323 197 343 161 364 c 0
 125 384 98 408 79 436 c 0
 60 463 51 497 51 537 c 0
 51 602 74 652 120 688 c 0
 167 722 233 740 320 740 c 0
 363 740 406 736 448 726 c 0
 492 718 528 706 558 691 c 1
 513 576 l 1
 486 589 456 600 424 607 c 0
 390 614 358 618 327 618 c 0
 285 618 253 611 230 598 c 0
 208 584 197 564 197 537 c 0
 197 512 207 492 228 478 c 0
 248 464 280 450 325 437 c 0
 384 416 431 396 466 376 c 0
 502 355 529 331 548 303 c 0
 567 275 576 241 576 201 c 0
 576 134 552 82 504 45 c 0
 456 8 388 -10 300 -10 c 0
 250 -10 203 -5 160 6 c 0
313 -250 m 1
 183 -250 l 1
 266 -40 l 1
 436 -40 l 1
 313 -250 l 1
EndSplineSet
EndChar

StartChar: uni1E9E
Encoding: 7838 7838 153
Width: 693
Flags: W
LayerCount: 2
Fore
SplineSet
290 12 m 1
 309 132 l 1
 345 119 377 113 406 113 c 0
 445 113 474 121 494 136 c 0
 515 151 525 174 525 203 c 0
 525 235 512 258 487 272 c 0
 462 286 420 293 363 293 c 2
 357 293 l 1
 357 400 l 1
 460 541 l 1
 459 566 448 585 429 598 c 0
 410 611 380 617 341 617 c 0
 296 617 263 608 244 590 c 0
 225 573 215 543 215 502 c 2
 215 0 l 1
 75 0 l 1
 75 502 l 2
 75 661 164 740 341 740 c 0
 514 740 600 667 600 522 c 1
 499 389 l 1
 499 387 l 1
 554 380 596 361 625 330 c 0
 654 298 668 255 668 200 c 0
 668 133 647 81 606 44 c 0
 564 8 504 -10 426 -10 c 0
 381 -10 335 -3 290 12 c 1
EndSplineSet
EndChar

StartChar: uni018F
Encoding: 399 399 154
Width: 759
Flags: W
LayerCount: 2
Fore
SplineSet
620 643 m 0
 688 578 722 486 722 365 c 0
 722 287 708 220 680 164 c 0
 653 107 613 64 560 34 c 0
 508 5 446 -10 374 -10 c 0
 303 -10 243 4 192 34 c 0
 141 62 102 104 76 159 c 0
 48 214 35 279 35 356 c 0
 35 386 36 409 39 425 c 1
 582 425 l 1
 579 490 557 539 518 570 c 0
 478 601 418 617 338 617 c 0
 257 617 180 603 106 574 c 1
 80 692 l 1
 113 707 152 719 196 728 c 0
 240 736 284 740 329 740 c 0
 456 740 553 708 620 643 c 0
580 306 m 1
 177 306 l 1
 189 177 256 113 379 113 c 0
 501 113 568 177 580 306 c 1
EndSplineSet
EndChar

StartChar: T
Encoding: 84 84 155
Width: 640
Flags: W
LayerCount: 2
Fore
SplineSet
248 607 m 1
 27 607 l 1
 27 730 l 1
 612 730 l 1
 612 607 l 1
 392 607 l 1
 392 0 l 1
 248 0 l 1
 248 607 l 1
EndSplineSet
EndChar

StartChar: Tbar
Encoding: 358 358 156
Width: 694
Flags: W
LayerCount: 2
Fore
SplineSet
640 607 m 1
 419 607 l 1
 419 368 l 1
 584 368 l 1
 584 262 l 1
 419 262 l 1
 419 0 l 1
 275 0 l 1
 275 262 l 1
 111 262 l 1
 111 368 l 1
 275 368 l 1
 275 607 l 1
 55 607 l 1
 55 730 l 1
 640 730 l 1
 640 607 l 1
EndSplineSet
EndChar

StartChar: Tcaron
Encoding: 356 356 157
Width: 640
Flags: W
LayerCount: 2
Fore
SplineSet
248 607 m 1
 27 607 l 1
 27 730 l 1
 612 730 l 1
 612 607 l 1
 392 607 l 1
 392 0 l 1
 248 0 l 1
 248 607 l 1
83 980 m 1
 239 980 l 1
 319 827 l 1
 321 827 l 1
 401 980 l 1
 557 980 l 1
 434 770 l 1
 205 770 l 1
 83 980 l 1
EndSplineSet
EndChar

StartChar: uni0162
Encoding: 354 354 158
Width: 640
Flags: W
LayerCount: 2
Fore
SplineSet
392 607 m 1
 392 16 l 1
 434 -22 455 -61 455 -102 c 0
 455 -139 440 -167 408 -188 c 0
 378 -208 333 -218 276 -218 c 0
 232 -218 193 -211 158 -197 c 1
 174 -96 l 1
 205 -109 235 -115 266 -115 c 0
 286 -115 301 -112 312 -106 c 0
 323 -100 328 -92 328 -81 c 0
 328 -56 301 -29 248 0 c 1
 248 607 l 1
 27 607 l 1
 27 730 l 1
 612 730 l 1
 612 607 l 1
 392 607 l 1
EndSplineSet
EndChar

StartChar: uni021A
Encoding: 538 538 159
Width: 640
Flags: W
LayerCount: 2
Fore
SplineSet
248 607 m 1
 27 607 l 1
 27 730 l 1
 612 730 l 1
 612 607 l 1
 392 607 l 1
 392 0 l 1
 248 0 l 1
 248 607 l 1
323 -250 m 1
 193 -250 l 1
 276 -40 l 1
 446 -40 l 1
 323 -250 l 1
EndSplineSet
EndChar

StartChar: U
Encoding: 85 85 160
Width: 709
Flags: W
LayerCount: 2
Fore
SplineSet
141 62 m 0
 92 109 68 179 68 270 c 2
 68 730 l 1
 208 730 l 1
 208 287 l 2
 208 226 220 181 242 154 c 0
 266 127 303 113 354 113 c 0
 406 113 444 127 466 154 c 0
 490 181 501 226 501 287 c 2
 501 730 l 1
 641 730 l 1
 641 270 l 2
 641 179 616 109 568 62 c 0
 518 14 447 -10 354 -10 c 0
 261 -10 190 14 141 62 c 0
EndSplineSet
EndChar

StartChar: Uacute
Encoding: 218 218 161
Width: 709
Flags: W
LayerCount: 2
Fore
SplineSet
141 62 m 0
 92 109 68 179 68 270 c 2
 68 730 l 1
 208 730 l 1
 208 287 l 2
 208 226 220 181 242 154 c 0
 266 127 303 113 354 113 c 0
 406 113 444 127 466 154 c 0
 490 181 501 226 501 287 c 2
 501 730 l 1
 641 730 l 1
 641 270 l 2
 641 179 616 109 568 62 c 0
 518 14 447 -10 354 -10 c 0
 261 -10 190 14 141 62 c 0
380 770 m 1
 250 770 l 1
 333 980 l 1
 503 980 l 1
 380 770 l 1
EndSplineSet
EndChar

StartChar: Ubreve
Encoding: 364 364 162
Width: 709
Flags: W
LayerCount: 2
Fore
SplineSet
141 62 m 0
 92 109 68 179 68 270 c 2
 68 730 l 1
 208 730 l 1
 208 287 l 2
 208 226 220 181 242 154 c 0
 266 127 303 113 354 113 c 0
 406 113 444 127 466 154 c 0
 490 181 501 226 501 287 c 2
 501 730 l 1
 641 730 l 1
 641 270 l 2
 641 179 616 109 568 62 c 0
 518 14 447 -10 354 -10 c 0
 261 -10 190 14 141 62 c 0
244 799 m 0
 210 815 184 837 166 866 c 0
 146 894 136 926 135 962 c 1
 269 962 l 1
 276 905 305 876 355 876 c 0
 404 876 433 905 440 962 c 1
 575 962 l 1
 574 926 564 894 544 866 c 0
 526 837 500 815 466 799 c 0
 434 783 396 775 355 775 c 0
 314 775 276 783 244 799 c 0
EndSplineSet
EndChar

StartChar: Ucircumflex
Encoding: 219 219 163
Width: 709
Flags: W
LayerCount: 2
Fore
SplineSet
141 62 m 0
 92 109 68 179 68 270 c 2
 68 730 l 1
 208 730 l 1
 208 287 l 2
 208 226 220 181 242 154 c 0
 266 127 303 113 354 113 c 0
 406 113 444 127 466 154 c 0
 490 181 501 226 501 287 c 2
 501 730 l 1
 641 730 l 1
 641 270 l 2
 641 179 616 109 568 62 c 0
 518 14 447 -10 354 -10 c 0
 261 -10 190 14 141 62 c 0
239 980 m 1
 468 980 l 1
 591 770 l 1
 435 770 l 1
 355 923 l 1
 353 923 l 1
 273 770 l 1
 117 770 l 1
 239 980 l 1
EndSplineSet
EndChar

StartChar: uni0214
Encoding: 532 532 164
Width: 709
Flags: W
LayerCount: 2
Fore
SplineSet
141 62 m 0
 92 109 68 179 68 270 c 2
 68 730 l 1
 208 730 l 1
 208 287 l 2
 208 226 220 181 242 154 c 0
 266 127 303 113 354 113 c 0
 406 113 444 127 466 154 c 0
 490 181 501 226 501 287 c 2
 501 730 l 1
 641 730 l 1
 641 270 l 2
 641 179 616 109 568 62 c 0
 518 14 447 -10 354 -10 c 0
 261 -10 190 14 141 62 c 0
86 980 m 1
 256 980 l 1
 339 770 l 1
 209 770 l 1
 86 980 l 1
326 980 m 1
 496 980 l 1
 579 770 l 1
 449 770 l 1
 326 980 l 1
EndSplineSet
EndChar

StartChar: Udieresis
Encoding: 220 220 165
Width: 709
Flags: W
LayerCount: 2
Fore
SplineSet
141 62 m 0
 92 109 68 179 68 270 c 2
 68 730 l 1
 208 730 l 1
 208 287 l 2
 208 226 220 181 242 154 c 0
 266 127 303 113 354 113 c 0
 406 113 444 127 466 154 c 0
 490 181 501 226 501 287 c 2
 501 730 l 1
 641 730 l 1
 641 270 l 2
 641 179 616 109 568 62 c 0
 518 14 447 -10 354 -10 c 0
 261 -10 190 14 141 62 c 0
151 949 m 1
 299 949 l 1
 299 801 l 1
 151 801 l 1
 151 949 l 1
411 949 m 1
 558 949 l 1
 558 801 l 1
 411 801 l 1
 411 949 l 1
EndSplineSet
EndChar

StartChar: uni1EE4
Encoding: 7908 7908 166
Width: 709
Flags: W
LayerCount: 2
Fore
SplineSet
141 62 m 0
 92 109 68 179 68 270 c 2
 68 730 l 1
 208 730 l 1
 208 287 l 2
 208 226 220 181 242 154 c 0
 266 127 303 113 354 113 c 0
 406 113 444 127 466 154 c 0
 490 181 501 226 501 287 c 2
 501 730 l 1
 641 730 l 1
 641 270 l 2
 641 179 616 109 568 62 c 0
 518 14 447 -10 354 -10 c 0
 261 -10 190 14 141 62 c 0
280 -71 m 1
 428 -71 l 1
 428 -219 l 1
 280 -219 l 1
 280 -71 l 1
EndSplineSet
EndChar

StartChar: Ugrave
Encoding: 217 217 167
Width: 709
Flags: W
LayerCount: 2
Fore
SplineSet
141 62 m 0
 92 109 68 179 68 270 c 2
 68 730 l 1
 208 730 l 1
 208 287 l 2
 208 226 220 181 242 154 c 0
 266 127 303 113 354 113 c 0
 406 113 444 127 466 154 c 0
 490 181 501 226 501 287 c 2
 501 730 l 1
 641 730 l 1
 641 270 l 2
 641 179 616 109 568 62 c 0
 518 14 447 -10 354 -10 c 0
 261 -10 190 14 141 62 c 0
206 980 m 1
 376 980 l 1
 459 770 l 1
 329 770 l 1
 206 980 l 1
EndSplineSet
EndChar

StartChar: uni1EE6
Encoding: 7910 7910 168
Width: 709
Flags: W
LayerCount: 2
Fore
SplineSet
141 62 m 0
 92 109 68 179 68 270 c 2
 68 730 l 1
 208 730 l 1
 208 287 l 2
 208 226 220 181 242 154 c 0
 266 127 303 113 354 113 c 0
 406 113 444 127 466 154 c 0
 490 181 501 226 501 287 c 2
 501 730 l 1
 641 730 l 1
 641 270 l 2
 641 179 616 109 568 62 c 0
 518 14 447 -10 354 -10 c 0
 261 -10 190 14 141 62 c 0
390 849 m 0
 390 863 386 872 377 877 c 0
 368 882 352 884 329 884 c 0
 284 884 239 877 195 864 c 1
 183 967 l 1
 235 979 292 985 355 985 c 0
 400 985 435 982 459 978 c 0
 483 972 500 964 510 952 c 0
 521 939 526 921 526 898 c 0
 526 881 524 862 520 842 c 0
 516 820 511 802 504 785 c 1
 378 785 l 1
 386 812 390 833 390 849 c 0
EndSplineSet
EndChar

StartChar: Uhorn
Encoding: 431 431 169
Width: 829
Flags: W
LayerCount: 2
Fore
SplineSet
853 712 m 0
 853 662 841 623 817 596 c 0
 793 569 759 555 715 555 c 0
 690 555 665 559 641 568 c 1
 641 270 l 2
 641 179 616 109 568 62 c 0
 518 14 447 -10 354 -10 c 0
 261 -10 190 14 141 62 c 0
 92 109 68 179 68 270 c 2
 68 730 l 1
 208 730 l 1
 208 287 l 2
 208 226 220 181 242 154 c 0
 266 127 303 113 354 113 c 0
 406 113 444 127 466 154 c 0
 490 181 501 226 501 287 c 2
 501 730 l 1
 641 730 l 1
 641 671 l 1
 649 667 658 665 668 665 c 0
 684 665 696 670 706 682 c 0
 714 692 719 708 719 727 c 0
 719 742 717 761 712 784 c 0
 708 806 703 824 697 838 c 1
 832 838 l 1
 846 798 853 756 853 712 c 0
EndSplineSet
EndChar

StartChar: uni1EE8
Encoding: 7912 7912 170
Width: 829
Flags: W
LayerCount: 2
Fore
SplineSet
853 712 m 0
 853 662 841 623 817 596 c 0
 793 569 759 555 715 555 c 0
 690 555 665 559 641 568 c 1
 641 270 l 2
 641 179 616 109 568 62 c 0
 518 14 447 -10 354 -10 c 0
 261 -10 190 14 141 62 c 0
 92 109 68 179 68 270 c 2
 68 730 l 1
 208 730 l 1
 208 287 l 2
 208 226 220 181 242 154 c 0
 266 127 303 113 354 113 c 0
 406 113 444 127 466 154 c 0
 490 181 501 226 501 287 c 2
 501 730 l 1
 641 730 l 1
 641 671 l 1
 649 667 658 665 668 665 c 0
 684 665 696 670 706 682 c 0
 714 692 719 708 719 727 c 0
 719 742 717 761 712 784 c 0
 708 806 703 824 697 838 c 1
 832 838 l 1
 846 798 853 756 853 712 c 0
380 770 m 1
 250 770 l 1
 333 980 l 1
 503 980 l 1
 380 770 l 1
EndSplineSet
EndChar

StartChar: uni1EF0
Encoding: 7920 7920 171
Width: 829
Flags: W
LayerCount: 2
Fore
SplineSet
853 712 m 0
 853 662 841 623 817 596 c 0
 793 569 759 555 715 555 c 0
 690 555 665 559 641 568 c 1
 641 270 l 2
 641 179 616 109 568 62 c 0
 518 14 447 -10 354 -10 c 0
 261 -10 190 14 141 62 c 0
 92 109 68 179 68 270 c 2
 68 730 l 1
 208 730 l 1
 208 287 l 2
 208 226 220 181 242 154 c 0
 266 127 303 113 354 113 c 0
 406 113 444 127 466 154 c 0
 490 181 501 226 501 287 c 2
 501 730 l 1
 641 730 l 1
 641 671 l 1
 649 667 658 665 668 665 c 0
 684 665 696 670 706 682 c 0
 714 692 719 708 719 727 c 0
 719 742 717 761 712 784 c 0
 708 806 703 824 697 838 c 1
 832 838 l 1
 846 798 853 756 853 712 c 0
280 -71 m 1
 428 -71 l 1
 428 -219 l 1
 280 -219 l 1
 280 -71 l 1
EndSplineSet
EndChar

StartChar: uni1EEA
Encoding: 7914 7914 172
Width: 829
Flags: W
LayerCount: 2
Fore
SplineSet
853 712 m 0
 853 662 841 623 817 596 c 0
 793 569 759 555 715 555 c 0
 690 555 665 559 641 568 c 1
 641 270 l 2
 641 179 616 109 568 62 c 0
 518 14 447 -10 354 -10 c 0
 261 -10 190 14 141 62 c 0
 92 109 68 179 68 270 c 2
 68 730 l 1
 208 730 l 1
 208 287 l 2
 208 226 220 181 242 154 c 0
 266 127 303 113 354 113 c 0
 406 113 444 127 466 154 c 0
 490 181 501 226 501 287 c 2
 501 730 l 1
 641 730 l 1
 641 671 l 1
 649 667 658 665 668 665 c 0
 684 665 696 670 706 682 c 0
 714 692 719 708 719 727 c 0
 719 742 717 761 712 784 c 0
 708 806 703 824 697 838 c 1
 832 838 l 1
 846 798 853 756 853 712 c 0
206 980 m 1
 376 980 l 1
 459 770 l 1
 329 770 l 1
 206 980 l 1
EndSplineSet
EndChar

StartChar: uni1EEC
Encoding: 7916 7916 173
Width: 829
Flags: W
LayerCount: 2
Fore
SplineSet
853 712 m 0
 853 662 841 623 817 596 c 0
 793 569 759 555 715 555 c 0
 690 555 665 559 641 568 c 1
 641 270 l 2
 641 179 616 109 568 62 c 0
 518 14 447 -10 354 -10 c 0
 261 -10 190 14 141 62 c 0
 92 109 68 179 68 270 c 2
 68 730 l 1
 208 730 l 1
 208 287 l 2
 208 226 220 181 242 154 c 0
 266 127 303 113 354 113 c 0
 406 113 444 127 466 154 c 0
 490 181 501 226 501 287 c 2
 501 730 l 1
 641 730 l 1
 641 671 l 1
 649 667 658 665 668 665 c 0
 684 665 696 670 706 682 c 0
 714 692 719 708 719 727 c 0
 719 742 717 761 712 784 c 0
 708 806 703 824 697 838 c 1
 832 838 l 1
 846 798 853 756 853 712 c 0
390 849 m 0
 390 863 386 872 377 877 c 0
 368 882 352 884 329 884 c 0
 284 884 239 877 195 864 c 1
 183 967 l 1
 235 979 292 985 355 985 c 0
 400 985 435 982 459 978 c 0
 483 972 500 964 510 952 c 0
 521 939 526 921 526 898 c 0
 526 881 524 862 520 842 c 0
 516 820 511 802 504 785 c 1
 378 785 l 1
 386 812 390 833 390 849 c 0
EndSplineSet
EndChar

StartChar: uni1EEE
Encoding: 7918 7918 174
Width: 829
Flags: W
LayerCount: 2
Fore
SplineSet
853 712 m 0
 853 662 841 623 817 596 c 0
 793 569 759 555 715 555 c 0
 690 555 665 559 641 568 c 1
 641 270 l 2
 641 179 616 109 568 62 c 0
 518 14 447 -10 354 -10 c 0
 261 -10 190 14 141 62 c 0
 92 109 68 179 68 270 c 2
 68 730 l 1
 208 730 l 1
 208 287 l 2
 208 226 220 181 242 154 c 0
 266 127 303 113 354 113 c 0
 406 113 444 127 466 154 c 0
 490 181 501 226 501 287 c 2
 501 730 l 1
 641 730 l 1
 641 671 l 1
 649 667 658 665 668 665 c 0
 684 665 696 670 706 682 c 0
 714 692 719 708 719 727 c 0
 719 742 717 761 712 784 c 0
 708 806 703 824 697 838 c 1
 832 838 l 1
 846 798 853 756 853 712 c 0
412 788 m 0
 392 796 368 807 341 823 c 0
 311 841 290 850 277 850 c 0
 267 850 260 846 256 836 c 0
 252 828 250 811 250 788 c 1
 134 788 l 1
 134 851 143 897 160 927 c 0
 177 957 204 972 240 972 c 0
 275 972 317 957 367 927 c 0
 397 909 419 900 432 900 c 0
 441 900 448 904 452 914 c 0
 456 922 458 939 458 962 c 1
 574 962 l 1
 574 899 566 852 548 822 c 0
 532 793 505 778 469 778 c 0
 452 778 433 782 412 788 c 0
EndSplineSet
EndChar

StartChar: Uhungarumlaut
Encoding: 368 368 175
Width: 709
Flags: W
LayerCount: 2
Fore
SplineSet
141 62 m 0
 92 109 68 179 68 270 c 2
 68 730 l 1
 208 730 l 1
 208 287 l 2
 208 226 220 181 242 154 c 0
 266 127 303 113 354 113 c 0
 406 113 444 127 466 154 c 0
 490 181 501 226 501 287 c 2
 501 730 l 1
 641 730 l 1
 641 270 l 2
 641 179 616 109 568 62 c 0
 518 14 447 -10 354 -10 c 0
 261 -10 190 14 141 62 c 0
263 770 m 1
 133 770 l 1
 216 980 l 1
 386 980 l 1
 263 770 l 1
503 770 m 1
 373 770 l 1
 456 980 l 1
 626 980 l 1
 503 770 l 1
EndSplineSet
EndChar

StartChar: uni0216
Encoding: 534 534 176
Width: 709
Flags: W
LayerCount: 2
Fore
SplineSet
141 62 m 0
 92 109 68 179 68 270 c 2
 68 730 l 1
 208 730 l 1
 208 287 l 2
 208 226 220 181 242 154 c 0
 266 127 303 113 354 113 c 0
 406 113 444 127 466 154 c 0
 490 181 501 226 501 287 c 2
 501 730 l 1
 641 730 l 1
 641 270 l 2
 641 179 616 109 568 62 c 0
 518 14 447 -10 354 -10 c 0
 261 -10 190 14 141 62 c 0
466 951 m 0
 500 935 526 913 544 884 c 0
 564 856 574 824 575 788 c 1
 440 788 l 1
 433 845 404 874 355 874 c 0
 305 874 276 845 269 788 c 1
 135 788 l 1
 136 824 146 856 166 884 c 0
 184 913 210 935 244 951 c 0
 276 967 314 975 355 975 c 0
 396 975 434 967 466 951 c 0
EndSplineSet
EndChar

StartChar: Umacron
Encoding: 362 362 177
Width: 709
Flags: W
LayerCount: 2
Fore
SplineSet
141 62 m 0
 92 109 68 179 68 270 c 2
 68 730 l 1
 208 730 l 1
 208 287 l 2
 208 226 220 181 242 154 c 0
 266 127 303 113 354 113 c 0
 406 113 444 127 466 154 c 0
 490 181 501 226 501 287 c 2
 501 730 l 1
 641 730 l 1
 641 270 l 2
 641 179 616 109 568 62 c 0
 518 14 447 -10 354 -10 c 0
 261 -10 190 14 141 62 c 0
158 927 m 1
 550 927 l 1
 550 823 l 1
 158 823 l 1
 158 927 l 1
EndSplineSet
EndChar

StartChar: Uogonek
Encoding: 370 370 178
Width: 709
Flags: W
LayerCount: 2
Fore
SplineSet
402 -71 m 0
 402 -82 407 -91 418 -96 c 0
 429 -102 444 -105 465 -105 c 0
 496 -105 526 -99 557 -86 c 1
 573 -187 l 1
 538 -201 499 -208 455 -208 c 0
 398 -208 354 -198 322 -178 c 0
 292 -157 276 -129 276 -92 c 0
 276 -63 286 -35 307 -8 c 1
 228 0 169 28 128 74 c 0
 88 122 68 187 68 270 c 2
 68 730 l 1
 208 730 l 1
 208 287 l 2
 208 226 220 181 242 154 c 0
 266 127 303 113 354 113 c 0
 406 113 444 127 466 154 c 0
 490 181 501 226 501 287 c 2
 501 730 l 1
 641 730 l 1
 641 270 l 2
 641 203 628 147 600 103 c 0
 574 59 534 28 482 10 c 1
 429 -19 402 -46 402 -71 c 0
EndSplineSet
EndChar

StartChar: Uring
Encoding: 366 366 179
Width: 709
Flags: W
LayerCount: 2
Fore
SplineSet
141 62 m 0
 92 109 68 179 68 270 c 2
 68 730 l 1
 208 730 l 1
 208 287 l 2
 208 226 220 181 242 154 c 0
 266 127 303 113 354 113 c 0
 406 113 444 127 466 154 c 0
 490 181 501 226 501 287 c 2
 501 730 l 1
 641 730 l 1
 641 270 l 2
 641 179 616 109 568 62 c 0
 518 14 447 -10 354 -10 c 0
 261 -10 190 14 141 62 c 0
277 739 m 0
 253 753 234 772 220 796 c 0
 206 820 199 846 199 875 c 0
 199 904 206 930 220 954 c 0
 234 978 253 997 277 1011 c 0
 301 1025 327 1032 355 1032 c 0
 384 1032 410 1025 434 1011 c 0
 458 997 477 978 491 954 c 0
 505 930 512 904 512 875 c 0
 512 846 505 820 491 796 c 0
 477 772 458 753 434 739 c 0
 410 725 384 718 355 718 c 0
 327 718 301 725 277 739 c 0
402 829 m 0
 414 842 420 857 420 875 c 0
 420 893 414 908 402 921 c 0
 389 934 374 940 355 940 c 0
 337 940 322 934 309 921 c 0
 296 908 290 893 290 875 c 0
 290 857 296 842 309 829 c 0
 322 816 337 810 355 810 c 0
 374 810 389 816 402 829 c 0
EndSplineSet
EndChar

StartChar: Utilde
Encoding: 360 360 180
Width: 709
Flags: W
LayerCount: 2
Fore
SplineSet
141 62 m 0
 92 109 68 179 68 270 c 2
 68 730 l 1
 208 730 l 1
 208 287 l 2
 208 226 220 181 242 154 c 0
 266 127 303 113 354 113 c 0
 406 113 444 127 466 154 c 0
 490 181 501 226 501 287 c 2
 501 730 l 1
 641 730 l 1
 641 270 l 2
 641 179 616 109 568 62 c 0
 518 14 447 -10 354 -10 c 0
 261 -10 190 14 141 62 c 0
412 788 m 0
 392 796 368 807 341 823 c 0
 311 841 290 850 277 850 c 0
 267 850 260 846 256 836 c 0
 252 828 250 811 250 788 c 1
 134 788 l 1
 134 851 143 897 160 927 c 0
 177 957 204 972 240 972 c 0
 275 972 317 957 367 927 c 0
 397 909 419 900 432 900 c 0
 441 900 448 904 452 914 c 0
 456 922 458 939 458 962 c 1
 574 962 l 1
 574 899 566 852 548 822 c 0
 532 793 505 778 469 778 c 0
 452 778 433 782 412 788 c 0
EndSplineSet
EndChar

StartChar: V
Encoding: 86 86 181
Width: 684
Flags: W
LayerCount: 2
Fore
SplineSet
10 730 m 1
 164 730 l 1
 341 140 l 1
 343 140 l 1
 520 730 l 1
 674 730 l 1
 434 0 l 1
 251 0 l 1
 10 730 l 1
EndSplineSet
EndChar

StartChar: W
Encoding: 87 87 182
Width: 941
Flags: W
LayerCount: 2
Fore
SplineSet
469 583 m 1
 467 583 l 1
 356 0 l 1
 190 0 l 1
 21 730 l 1
 164 730 l 1
 274 147 l 1
 276 147 l 1
 383 730 l 1
 557 730 l 1
 664 147 l 1
 666 147 l 1
 776 730 l 1
 915 730 l 1
 746 0 l 1
 580 0 l 1
 469 583 l 1
EndSplineSet
EndChar

StartChar: Wacute
Encoding: 7810 7810 183
Width: 941
Flags: W
LayerCount: 2
Fore
SplineSet
469 583 m 1
 467 583 l 1
 356 0 l 1
 190 0 l 1
 21 730 l 1
 164 730 l 1
 274 147 l 1
 276 147 l 1
 383 730 l 1
 557 730 l 1
 664 147 l 1
 666 147 l 1
 776 730 l 1
 915 730 l 1
 746 0 l 1
 580 0 l 1
 469 583 l 1
496 770 m 1
 366 770 l 1
 449 980 l 1
 619 980 l 1
 496 770 l 1
EndSplineSet
EndChar

StartChar: Wcircumflex
Encoding: 372 372 184
Width: 941
Flags: W
LayerCount: 2
Fore
SplineSet
469 583 m 1
 467 583 l 1
 356 0 l 1
 190 0 l 1
 21 730 l 1
 164 730 l 1
 274 147 l 1
 276 147 l 1
 383 730 l 1
 557 730 l 1
 664 147 l 1
 666 147 l 1
 776 730 l 1
 915 730 l 1
 746 0 l 1
 580 0 l 1
 469 583 l 1
355 980 m 1
 584 980 l 1
 707 770 l 1
 551 770 l 1
 471 923 l 1
 469 923 l 1
 389 770 l 1
 233 770 l 1
 355 980 l 1
EndSplineSet
EndChar

StartChar: Wdieresis
Encoding: 7812 7812 185
Width: 941
Flags: W
LayerCount: 2
Fore
SplineSet
469 583 m 1
 467 583 l 1
 356 0 l 1
 190 0 l 1
 21 730 l 1
 164 730 l 1
 274 147 l 1
 276 147 l 1
 383 730 l 1
 557 730 l 1
 664 147 l 1
 666 147 l 1
 776 730 l 1
 915 730 l 1
 746 0 l 1
 580 0 l 1
 469 583 l 1
267 949 m 1
 415 949 l 1
 415 801 l 1
 267 801 l 1
 267 949 l 1
527 949 m 1
 674 949 l 1
 674 801 l 1
 527 801 l 1
 527 949 l 1
EndSplineSet
EndChar

StartChar: Wgrave
Encoding: 7808 7808 186
Width: 941
Flags: W
LayerCount: 2
Fore
SplineSet
469 583 m 1
 467 583 l 1
 356 0 l 1
 190 0 l 1
 21 730 l 1
 164 730 l 1
 274 147 l 1
 276 147 l 1
 383 730 l 1
 557 730 l 1
 664 147 l 1
 666 147 l 1
 776 730 l 1
 915 730 l 1
 746 0 l 1
 580 0 l 1
 469 583 l 1
322 980 m 1
 492 980 l 1
 575 770 l 1
 445 770 l 1
 322 980 l 1
EndSplineSet
EndChar

StartChar: X
Encoding: 88 88 187
Width: 691
Flags: W
LayerCount: 2
Fore
SplineSet
242 366 m 1
 41 730 l 1
 199 730 l 1
 345 446 l 1
 347 446 l 1
 492 730 l 1
 650 730 l 1
 450 366 l 1
 652 0 l 1
 494 0 l 1
 347 288 l 1
 345 288 l 1
 197 0 l 1
 39 0 l 1
 242 366 l 1
EndSplineSet
EndChar

StartChar: Y
Encoding: 89 89 188
Width: 665
Flags: W
LayerCount: 2
Fore
SplineSet
260 286 m 1
 6 730 l 1
 163 730 l 1
 332 411 l 1
 334 411 l 1
 502 730 l 1
 659 730 l 1
 406 286 l 1
 406 0 l 1
 260 0 l 1
 260 286 l 1
EndSplineSet
EndChar

StartChar: Yacute
Encoding: 221 221 189
Width: 665
Flags: W
LayerCount: 2
Fore
SplineSet
260 286 m 1
 6 730 l 1
 163 730 l 1
 332 411 l 1
 334 411 l 1
 502 730 l 1
 659 730 l 1
 406 286 l 1
 406 0 l 1
 260 0 l 1
 260 286 l 1
358 770 m 1
 228 770 l 1
 311 980 l 1
 481 980 l 1
 358 770 l 1
EndSplineSet
EndChar

StartChar: Ycircumflex
Encoding: 374 374 190
Width: 665
Flags: W
LayerCount: 2
Fore
SplineSet
260 286 m 1
 6 730 l 1
 163 730 l 1
 332 411 l 1
 334 411 l 1
 502 730 l 1
 659 730 l 1
 406 286 l 1
 406 0 l 1
 260 0 l 1
 260 286 l 1
218 980 m 1
 447 980 l 1
 570 770 l 1
 414 770 l 1
 334 923 l 1
 332 923 l 1
 252 770 l 1
 96 770 l 1
 218 980 l 1
EndSplineSet
EndChar

StartChar: Ydieresis
Encoding: 376 376 191
Width: 665
Flags: W
LayerCount: 2
Fore
SplineSet
260 286 m 1
 6 730 l 1
 163 730 l 1
 332 411 l 1
 334 411 l 1
 502 730 l 1
 659 730 l 1
 406 286 l 1
 406 0 l 1
 260 0 l 1
 260 286 l 1
129 949 m 1
 277 949 l 1
 277 801 l 1
 129 801 l 1
 129 949 l 1
389 949 m 1
 536 949 l 1
 536 801 l 1
 389 801 l 1
 389 949 l 1
EndSplineSet
EndChar

StartChar: uni1EF4
Encoding: 7924 7924 192
Width: 665
Flags: W
LayerCount: 2
Fore
SplineSet
260 286 m 1
 6 730 l 1
 163 730 l 1
 332 411 l 1
 334 411 l 1
 502 730 l 1
 659 730 l 1
 406 286 l 1
 406 0 l 1
 260 0 l 1
 260 286 l 1
259 -71 m 1
 407 -71 l 1
 407 -219 l 1
 259 -219 l 1
 259 -71 l 1
EndSplineSet
EndChar

StartChar: Ygrave
Encoding: 7922 7922 193
Width: 665
Flags: W
LayerCount: 2
Fore
SplineSet
260 286 m 1
 6 730 l 1
 163 730 l 1
 332 411 l 1
 334 411 l 1
 502 730 l 1
 659 730 l 1
 406 286 l 1
 406 0 l 1
 260 0 l 1
 260 286 l 1
184 980 m 1
 354 980 l 1
 437 770 l 1
 307 770 l 1
 184 980 l 1
EndSplineSet
EndChar

StartChar: uni1EF6
Encoding: 7926 7926 194
Width: 665
Flags: W
LayerCount: 2
Fore
SplineSet
260 286 m 1
 6 730 l 1
 163 730 l 1
 332 411 l 1
 334 411 l 1
 502 730 l 1
 659 730 l 1
 406 286 l 1
 406 0 l 1
 260 0 l 1
 260 286 l 1
368 849 m 0
 368 863 364 872 355 877 c 0
 346 882 330 884 307 884 c 0
 262 884 217 877 173 864 c 1
 161 967 l 1
 213 979 270 985 333 985 c 0
 378 985 413 982 437 978 c 0
 461 972 478 964 488 952 c 0
 499 939 504 921 504 898 c 0
 504 881 502 862 498 842 c 0
 494 820 489 802 482 785 c 1
 356 785 l 1
 364 812 368 833 368 849 c 0
EndSplineSet
EndChar

StartChar: uni0232
Encoding: 562 562 195
Width: 665
Flags: W
LayerCount: 2
Fore
SplineSet
260 286 m 1
 6 730 l 1
 163 730 l 1
 332 411 l 1
 334 411 l 1
 502 730 l 1
 659 730 l 1
 406 286 l 1
 406 0 l 1
 260 0 l 1
 260 286 l 1
136 927 m 1
 528 927 l 1
 528 823 l 1
 136 823 l 1
 136 927 l 1
EndSplineSet
EndChar

StartChar: uni1EF8
Encoding: 7928 7928 196
Width: 665
Flags: W
LayerCount: 2
Fore
SplineSet
260 286 m 1
 6 730 l 1
 163 730 l 1
 332 411 l 1
 334 411 l 1
 502 730 l 1
 659 730 l 1
 406 286 l 1
 406 0 l 1
 260 0 l 1
 260 286 l 1
390 788 m 0
 370 796 346 807 319 823 c 0
 289 841 268 850 255 850 c 0
 245 850 238 846 234 836 c 0
 230 828 228 811 228 788 c 1
 112 788 l 1
 112 851 121 897 138 927 c 0
 155 957 182 972 218 972 c 0
 253 972 295 957 345 927 c 0
 375 909 397 900 410 900 c 0
 419 900 426 904 430 914 c 0
 434 922 436 939 436 962 c 1
 552 962 l 1
 552 899 544 852 526 822 c 0
 510 793 483 778 447 778 c 0
 430 778 411 782 390 788 c 0
EndSplineSet
EndChar

StartChar: Z
Encoding: 90 90 197
Width: 640
Flags: W
LayerCount: 2
Fore
SplineSet
60 122 m 1
 412 606 l 1
 412 608 l 1
 60 608 l 1
 60 730 l 1
 580 730 l 1
 580 608 l 1
 228 124 l 1
 228 122 l 1
 580 122 l 1
 580 0 l 1
 60 0 l 1
 60 122 l 1
EndSplineSet
EndChar

StartChar: Zacute
Encoding: 377 377 198
Width: 640
Flags: W
LayerCount: 2
Fore
SplineSet
60 122 m 1
 412 606 l 1
 412 608 l 1
 60 608 l 1
 60 730 l 1
 580 730 l 1
 580 608 l 1
 228 124 l 1
 228 122 l 1
 580 122 l 1
 580 0 l 1
 60 0 l 1
 60 122 l 1
345 770 m 1
 215 770 l 1
 298 980 l 1
 468 980 l 1
 345 770 l 1
EndSplineSet
EndChar

StartChar: Zcaron
Encoding: 381 381 199
Width: 640
Flags: W
LayerCount: 2
Fore
SplineSet
60 122 m 1
 412 606 l 1
 412 608 l 1
 60 608 l 1
 60 730 l 1
 580 730 l 1
 580 608 l 1
 228 124 l 1
 228 122 l 1
 580 122 l 1
 580 0 l 1
 60 0 l 1
 60 122 l 1
83 980 m 1
 239 980 l 1
 319 827 l 1
 321 827 l 1
 401 980 l 1
 557 980 l 1
 434 770 l 1
 205 770 l 1
 83 980 l 1
EndSplineSet
EndChar

StartChar: Zdotaccent
Encoding: 379 379 200
Width: 640
Flags: W
LayerCount: 2
Fore
SplineSet
60 122 m 1
 412 606 l 1
 412 608 l 1
 60 608 l 1
 60 730 l 1
 580 730 l 1
 580 608 l 1
 228 124 l 1
 228 122 l 1
 580 122 l 1
 580 0 l 1
 60 0 l 1
 60 122 l 1
246 949 m 1
 394 949 l 1
 394 801 l 1
 246 801 l 1
 246 949 l 1
EndSplineSet
EndChar

StartChar: a
Encoding: 97 97 201
Width: 559
Flags: W
LayerCount: 2
Fore
SplineSet
406 510 m 0
 438 496 461 474 476 444 c 0
 491 414 498 374 498 323 c 2
 498 0 l 1
 367 0 l 1
 366 66 l 1
 364 66 l 1
 345 41 320 22 292 10 c 0
 262 -4 231 -10 196 -10 c 0
 145 -10 104 4 73 33 c 0
 42 62 27 100 27 147 c 0
 27 208 53 254 104 286 c 0
 156 319 230 335 325 335 c 2
 360 335 l 1
 359 359 356 377 351 390 c 0
 346 402 337 410 324 416 c 0
 311 420 293 423 269 423 c 0
 204 423 140 409 77 380 c 1
 45 481 l 1
 114 514 193 530 280 530 c 0
 333 530 375 523 406 510 c 0
298 108 m 0
 316 118 332 131 343 148 c 0
 354 164 360 181 360 200 c 2
 360 244 l 1
 325 244 l 2
 214 244 158 216 158 159 c 0
 158 139 165 123 179 112 c 0
 193 100 212 94 236 94 c 0
 258 94 278 99 298 108 c 0
EndSplineSet
EndChar

StartChar: aacute
Encoding: 225 225 202
Width: 559
Flags: W
LayerCount: 2
Fore
SplineSet
406 510 m 0
 438 496 461 474 476 444 c 0
 491 414 498 374 498 323 c 2
 498 0 l 1
 367 0 l 1
 366 66 l 1
 364 66 l 1
 345 41 320 22 292 10 c 0
 262 -4 231 -10 196 -10 c 0
 145 -10 104 4 73 33 c 0
 42 62 27 100 27 147 c 0
 27 208 53 254 104 286 c 0
 156 319 230 335 325 335 c 2
 360 335 l 1
 359 359 356 377 351 390 c 0
 346 402 337 410 324 416 c 0
 311 420 293 423 269 423 c 0
 204 423 140 409 77 380 c 1
 45 481 l 1
 114 514 193 530 280 530 c 0
 333 530 375 523 406 510 c 0
298 108 m 0
 316 118 332 131 343 148 c 0
 354 164 360 181 360 200 c 2
 360 244 l 1
 325 244 l 2
 214 244 158 216 158 159 c 0
 158 139 165 123 179 112 c 0
 193 100 212 94 236 94 c 0
 258 94 278 99 298 108 c 0
292 560 m 1
 162 560 l 1
 245 770 l 1
 415 770 l 1
 292 560 l 1
EndSplineSet
EndChar

StartChar: abreve
Encoding: 259 259 203
Width: 559
Flags: W
LayerCount: 2
Fore
SplineSet
406 510 m 0
 438 496 461 474 476 444 c 0
 491 414 498 374 498 323 c 2
 498 0 l 1
 367 0 l 1
 366 66 l 1
 364 66 l 1
 345 41 320 22 292 10 c 0
 262 -4 231 -10 196 -10 c 0
 145 -10 104 4 73 33 c 0
 42 62 27 100 27 147 c 0
 27 208 53 254 104 286 c 0
 156 319 230 335 325 335 c 2
 360 335 l 1
 359 359 356 377 351 390 c 0
 346 402 337 410 324 416 c 0
 311 420 293 423 269 423 c 0
 204 423 140 409 77 380 c 1
 45 481 l 1
 114 514 193 530 280 530 c 0
 333 530 375 523 406 510 c 0
298 108 m 0
 316 118 332 131 343 148 c 0
 354 164 360 181 360 200 c 2
 360 244 l 1
 325 244 l 2
 214 244 158 216 158 159 c 0
 158 139 165 123 179 112 c 0
 193 100 212 94 236 94 c 0
 258 94 278 99 298 108 c 0
156 589 m 0
 122 605 96 627 78 656 c 0
 58 684 48 716 47 752 c 1
 181 752 l 1
 188 695 217 666 267 666 c 0
 316 666 345 695 352 752 c 1
 487 752 l 1
 486 716 476 684 456 656 c 0
 438 627 412 605 378 589 c 0
 346 573 308 565 267 565 c 0
 226 565 188 573 156 589 c 0
EndSplineSet
EndChar

StartChar: uni1EAF
Encoding: 7855 7855 204
Width: 559
Flags: W
LayerCount: 2
Fore
SplineSet
156 589 m 0
 122 605 96 627 78 656 c 0
 58 684 48 716 47 752 c 1
 167 752 l 1
 245 950 l 1
 415 950 l 1
 292 740 l 1
 183 740 l 1
 192 691 220 666 267 666 c 0
 316 666 345 695 352 752 c 1
 487 752 l 1
 486 716 476 684 456 656 c 0
 438 627 412 605 378 589 c 0
 346 573 308 565 267 565 c 0
 226 565 188 573 156 589 c 0
406 510 m 0
 438 496 461 474 476 444 c 0
 491 414 498 374 498 323 c 2
 498 0 l 1
 367 0 l 1
 366 66 l 1
 364 66 l 1
 345 41 320 22 292 10 c 0
 262 -4 231 -10 196 -10 c 0
 145 -10 104 4 73 33 c 0
 42 62 27 100 27 147 c 0
 27 208 53 254 104 286 c 0
 156 319 230 335 325 335 c 2
 360 335 l 1
 359 359 356 377 351 390 c 0
 346 402 337 410 324 416 c 0
 311 420 293 423 269 423 c 0
 204 423 140 409 77 380 c 1
 45 481 l 1
 114 514 193 530 280 530 c 0
 333 530 375 523 406 510 c 0
298 108 m 0
 316 118 332 131 343 148 c 0
 354 164 360 181 360 200 c 2
 360 244 l 1
 325 244 l 2
 214 244 158 216 158 159 c 0
 158 139 165 123 179 112 c 0
 193 100 212 94 236 94 c 0
 258 94 278 99 298 108 c 0
EndSplineSet
EndChar

StartChar: uni1EB7
Encoding: 7863 7863 205
Width: 559
Flags: W
LayerCount: 2
Fore
SplineSet
406 510 m 0
 438 496 461 474 476 444 c 0
 491 414 498 374 498 323 c 2
 498 0 l 1
 367 0 l 1
 366 66 l 1
 364 66 l 1
 345 41 320 22 292 10 c 0
 262 -4 231 -10 196 -10 c 0
 145 -10 104 4 73 33 c 0
 42 62 27 100 27 147 c 0
 27 208 53 254 104 286 c 0
 156 319 230 335 325 335 c 2
 360 335 l 1
 359 359 356 377 351 390 c 0
 346 402 337 410 324 416 c 0
 311 420 293 423 269 423 c 0
 204 423 140 409 77 380 c 1
 45 481 l 1
 114 514 193 530 280 530 c 0
 333 530 375 523 406 510 c 0
298 108 m 0
 316 118 332 131 343 148 c 0
 354 164 360 181 360 200 c 2
 360 244 l 1
 325 244 l 2
 214 244 158 216 158 159 c 0
 158 139 165 123 179 112 c 0
 193 100 212 94 236 94 c 0
 258 94 278 99 298 108 c 0
193 -71 m 1
 341 -71 l 1
 341 -219 l 1
 193 -219 l 1
 193 -71 l 1
156 589 m 0
 122 605 96 627 78 656 c 0
 58 684 48 716 47 752 c 1
 181 752 l 1
 188 695 217 666 267 666 c 0
 316 666 345 695 352 752 c 1
 487 752 l 1
 486 716 476 684 456 656 c 0
 438 627 412 605 378 589 c 0
 346 573 308 565 267 565 c 0
 226 565 188 573 156 589 c 0
EndSplineSet
EndChar

StartChar: uni1EB1
Encoding: 7857 7857 206
Width: 559
Flags: W
LayerCount: 2
Fore
SplineSet
322 684 m 0
 336 697 345 715 350 740 c 1
 241 740 l 1
 118 950 l 1
 288 950 l 1
 366 752 l 1
 487 752 l 1
 486 716 476 684 456 656 c 0
 438 627 412 605 378 589 c 0
 346 573 308 565 267 565 c 0
 226 565 188 573 156 589 c 0
 122 605 96 627 78 656 c 0
 58 684 48 716 47 752 c 1
 181 752 l 1
 188 695 217 666 267 666 c 0
 290 666 308 672 322 684 c 0
406 510 m 0
 438 496 461 474 476 444 c 0
 491 414 498 374 498 323 c 2
 498 0 l 1
 367 0 l 1
 366 66 l 1
 364 66 l 1
 345 41 320 22 292 10 c 0
 262 -4 231 -10 196 -10 c 0
 145 -10 104 4 73 33 c 0
 42 62 27 100 27 147 c 0
 27 208 53 254 104 286 c 0
 156 319 230 335 325 335 c 2
 360 335 l 1
 359 359 356 377 351 390 c 0
 346 402 337 410 324 416 c 0
 311 420 293 423 269 423 c 0
 204 423 140 409 77 380 c 1
 45 481 l 1
 114 514 193 530 280 530 c 0
 333 530 375 523 406 510 c 0
298 108 m 0
 316 118 332 131 343 148 c 0
 354 164 360 181 360 200 c 2
 360 244 l 1
 325 244 l 2
 214 244 158 216 158 159 c 0
 158 139 165 123 179 112 c 0
 193 100 212 94 236 94 c 0
 258 94 278 99 298 108 c 0
EndSplineSet
EndChar

StartChar: uni1EB3
Encoding: 7859 7859 207
Width: 559
Flags: W
LayerCount: 2
Fore
SplineSet
350 742 m 1
 290 742 l 1
 298 769 302 790 302 806 c 0
 302 820 298 829 289 834 c 0
 280 839 264 841 241 841 c 0
 196 841 151 834 107 821 c 1
 95 924 l 1
 147 936 204 942 267 942 c 0
 312 942 347 940 371 934 c 0
 395 930 412 921 422 908 c 0
 433 896 438 878 438 855 c 0
 438 840 436 823 433 804 c 0
 430 785 425 768 420 752 c 1
 487 752 l 1
 486 716 476 684 456 656 c 0
 438 627 412 605 378 589 c 0
 346 573 308 565 267 565 c 0
 226 565 188 573 156 589 c 0
 122 605 96 627 78 656 c 0
 58 684 48 716 47 752 c 1
 181 752 l 1
 188 695 217 666 267 666 c 0
 313 666 341 691 350 742 c 1
406 510 m 0
 438 496 461 474 476 444 c 0
 491 414 498 374 498 323 c 2
 498 0 l 1
 367 0 l 1
 366 66 l 1
 364 66 l 1
 345 41 320 22 292 10 c 0
 262 -4 231 -10 196 -10 c 0
 145 -10 104 4 73 33 c 0
 42 62 27 100 27 147 c 0
 27 208 53 254 104 286 c 0
 156 319 230 335 325 335 c 2
 360 335 l 1
 359 359 356 377 351 390 c 0
 346 402 337 410 324 416 c 0
 311 420 293 423 269 423 c 0
 204 423 140 409 77 380 c 1
 45 481 l 1
 114 514 193 530 280 530 c 0
 333 530 375 523 406 510 c 0
298 108 m 0
 316 118 332 131 343 148 c 0
 354 164 360 181 360 200 c 2
 360 244 l 1
 325 244 l 2
 214 244 158 216 158 159 c 0
 158 139 165 123 179 112 c 0
 193 100 212 94 236 94 c 0
 258 94 278 99 298 108 c 0
EndSplineSet
EndChar

StartChar: uni1EB5
Encoding: 7861 7861 208
Width: 559
Flags: W
LayerCount: 2
Fore
SplineSet
406 510 m 0
 438 496 461 474 476 444 c 0
 491 414 498 374 498 323 c 2
 498 0 l 1
 367 0 l 1
 366 66 l 1
 364 66 l 1
 345 41 320 22 292 10 c 0
 262 -4 231 -10 196 -10 c 0
 145 -10 104 4 73 33 c 0
 42 62 27 100 27 147 c 0
 27 208 53 254 104 286 c 0
 156 319 230 335 325 335 c 2
 360 335 l 1
 359 359 356 377 351 390 c 0
 346 402 337 410 324 416 c 0
 311 420 293 423 269 423 c 0
 204 423 140 409 77 380 c 1
 45 481 l 1
 114 514 193 530 280 530 c 0
 333 530 375 523 406 510 c 0
298 108 m 0
 316 118 332 131 343 148 c 0
 354 164 360 181 360 200 c 2
 360 244 l 1
 325 244 l 2
 214 244 158 216 158 159 c 0
 158 139 165 123 179 112 c 0
 193 100 212 94 236 94 c 0
 258 94 278 99 298 108 c 0
156 589 m 0
 122 605 96 627 78 656 c 0
 58 684 48 716 47 752 c 1
 181 752 l 1
 188 695 217 666 267 666 c 0
 316 666 345 695 352 752 c 1
 487 752 l 1
 486 716 476 684 456 656 c 0
 438 627 412 605 378 589 c 0
 346 573 308 565 267 565 c 0
 226 565 188 573 156 589 c 0
324 802 m 0
 304 808 280 820 253 836 c 0
 223 854 202 863 189 863 c 0
 179 863 172 858 168 850 c 0
 164 840 162 824 162 801 c 1
 46 801 l 1
 46 864 55 910 72 940 c 0
 89 970 116 985 152 985 c 0
 187 985 229 970 279 940 c 0
 309 922 331 913 344 913 c 0
 353 913 360 918 364 926 c 0
 368 936 370 952 370 975 c 1
 486 975 l 1
 486 912 478 865 460 836 c 0
 444 806 417 791 381 791 c 0
 364 791 345 794 324 802 c 0
EndSplineSet
EndChar

StartChar: acircumflex
Encoding: 226 226 209
Width: 559
Flags: W
LayerCount: 2
Fore
SplineSet
406 510 m 0
 438 496 461 474 476 444 c 0
 491 414 498 374 498 323 c 2
 498 0 l 1
 367 0 l 1
 366 66 l 1
 364 66 l 1
 345 41 320 22 292 10 c 0
 262 -4 231 -10 196 -10 c 0
 145 -10 104 4 73 33 c 0
 42 62 27 100 27 147 c 0
 27 208 53 254 104 286 c 0
 156 319 230 335 325 335 c 2
 360 335 l 1
 359 359 356 377 351 390 c 0
 346 402 337 410 324 416 c 0
 311 420 293 423 269 423 c 0
 204 423 140 409 77 380 c 1
 45 481 l 1
 114 514 193 530 280 530 c 0
 333 530 375 523 406 510 c 0
298 108 m 0
 316 118 332 131 343 148 c 0
 354 164 360 181 360 200 c 2
 360 244 l 1
 325 244 l 2
 214 244 158 216 158 159 c 0
 158 139 165 123 179 112 c 0
 193 100 212 94 236 94 c 0
 258 94 278 99 298 108 c 0
152 770 m 1
 381 770 l 1
 504 560 l 1
 348 560 l 1
 268 713 l 1
 266 713 l 1
 186 560 l 1
 30 560 l 1
 152 770 l 1
EndSplineSet
EndChar

StartChar: uni1EA5
Encoding: 7845 7845 210
Width: 559
Flags: W
LayerCount: 2
Fore
SplineSet
489 740 m 1
 399 740 l 1
 504 560 l 1
 348 560 l 1
 268 713 l 1
 266 713 l 1
 186 560 l 1
 30 560 l 1
 152 770 l 1
 371 770 l 1
 442 950 l 1
 612 950 l 1
 489 740 l 1
406 510 m 0
 438 496 461 474 476 444 c 0
 491 414 498 374 498 323 c 2
 498 0 l 1
 367 0 l 1
 366 66 l 1
 364 66 l 1
 345 41 320 22 292 10 c 0
 262 -4 231 -10 196 -10 c 0
 145 -10 104 4 73 33 c 0
 42 62 27 100 27 147 c 0
 27 208 53 254 104 286 c 0
 156 319 230 335 325 335 c 2
 360 335 l 1
 359 359 356 377 351 390 c 0
 346 402 337 410 324 416 c 0
 311 420 293 423 269 423 c 0
 204 423 140 409 77 380 c 1
 45 481 l 1
 114 514 193 530 280 530 c 0
 333 530 375 523 406 510 c 0
298 108 m 0
 316 118 332 131 343 148 c 0
 354 164 360 181 360 200 c 2
 360 244 l 1
 325 244 l 2
 214 244 158 216 158 159 c 0
 158 139 165 123 179 112 c 0
 193 100 212 94 236 94 c 0
 258 94 278 99 298 108 c 0
EndSplineSet
EndChar

StartChar: uni1EAD
Encoding: 7853 7853 211
Width: 559
Flags: W
LayerCount: 2
Fore
SplineSet
406 510 m 0
 438 496 461 474 476 444 c 0
 491 414 498 374 498 323 c 2
 498 0 l 1
 367 0 l 1
 366 66 l 1
 364 66 l 1
 345 41 320 22 292 10 c 0
 262 -4 231 -10 196 -10 c 0
 145 -10 104 4 73 33 c 0
 42 62 27 100 27 147 c 0
 27 208 53 254 104 286 c 0
 156 319 230 335 325 335 c 2
 360 335 l 1
 359 359 356 377 351 390 c 0
 346 402 337 410 324 416 c 0
 311 420 293 423 269 423 c 0
 204 423 140 409 77 380 c 1
 45 481 l 1
 114 514 193 530 280 530 c 0
 333 530 375 523 406 510 c 0
298 108 m 0
 316 118 332 131 343 148 c 0
 354 164 360 181 360 200 c 2
 360 244 l 1
 325 244 l 2
 214 244 158 216 158 159 c 0
 158 139 165 123 179 112 c 0
 193 100 212 94 236 94 c 0
 258 94 278 99 298 108 c 0
193 -71 m 1
 341 -71 l 1
 341 -219 l 1
 193 -219 l 1
 193 -71 l 1
152 770 m 1
 381 770 l 1
 504 560 l 1
 348 560 l 1
 268 713 l 1
 266 713 l 1
 186 560 l 1
 30 560 l 1
 152 770 l 1
EndSplineSet
EndChar

StartChar: uni1EA7
Encoding: 7847 7847 212
Width: 559
Flags: W
LayerCount: 2
Fore
SplineSet
135 740 m 1
 44 740 l 1
 -79 950 l 1
 91 950 l 1
 162 770 l 1
 381 770 l 1
 504 560 l 1
 348 560 l 1
 268 713 l 1
 266 713 l 1
 186 560 l 1
 30 560 l 1
 135 740 l 1
406 510 m 0
 438 496 461 474 476 444 c 0
 491 414 498 374 498 323 c 2
 498 0 l 1
 367 0 l 1
 366 66 l 1
 364 66 l 1
 345 41 320 22 292 10 c 0
 262 -4 231 -10 196 -10 c 0
 145 -10 104 4 73 33 c 0
 42 62 27 100 27 147 c 0
 27 208 53 254 104 286 c 0
 156 319 230 335 325 335 c 2
 360 335 l 1
 359 359 356 377 351 390 c 0
 346 402 337 410 324 416 c 0
 311 420 293 423 269 423 c 0
 204 423 140 409 77 380 c 1
 45 481 l 1
 114 514 193 530 280 530 c 0
 333 530 375 523 406 510 c 0
298 108 m 0
 316 118 332 131 343 148 c 0
 354 164 360 181 360 200 c 2
 360 244 l 1
 325 244 l 2
 214 244 158 216 158 159 c 0
 158 139 165 123 179 112 c 0
 193 100 212 94 236 94 c 0
 258 94 278 99 298 108 c 0
EndSplineSet
EndChar

StartChar: uni1EA9
Encoding: 7849 7849 213
Width: 559
Flags: W
LayerCount: 2
Fore
SplineSet
400 738 m 1
 504 560 l 1
 348 560 l 1
 268 713 l 1
 266 713 l 1
 186 560 l 1
 30 560 l 1
 152 770 l 1
 369 770 l 1
 372 786 373 797 373 802 c 0
 373 816 369 825 360 830 c 0
 351 835 335 837 312 837 c 0
 267 837 222 830 178 817 c 1
 166 920 l 1
 218 932 275 938 338 938 c 0
 383 938 418 936 442 930 c 0
 466 926 483 917 494 904 c 0
 504 892 509 874 509 851 c 0
 509 834 507 816 503 794 c 0
 499 774 494 755 487 738 c 1
 400 738 l 1
406 510 m 0
 438 496 461 474 476 444 c 0
 491 414 498 374 498 323 c 2
 498 0 l 1
 367 0 l 1
 366 66 l 1
 364 66 l 1
 345 41 320 22 292 10 c 0
 262 -4 231 -10 196 -10 c 0
 145 -10 104 4 73 33 c 0
 42 62 27 100 27 147 c 0
 27 208 53 254 104 286 c 0
 156 319 230 335 325 335 c 2
 360 335 l 1
 359 359 356 377 351 390 c 0
 346 402 337 410 324 416 c 0
 311 420 293 423 269 423 c 0
 204 423 140 409 77 380 c 1
 45 481 l 1
 114 514 193 530 280 530 c 0
 333 530 375 523 406 510 c 0
298 108 m 0
 316 118 332 131 343 148 c 0
 354 164 360 181 360 200 c 2
 360 244 l 1
 325 244 l 2
 214 244 158 216 158 159 c 0
 158 139 165 123 179 112 c 0
 193 100 212 94 236 94 c 0
 258 94 278 99 298 108 c 0
EndSplineSet
EndChar

StartChar: uni1EAB
Encoding: 7851 7851 214
Width: 559
Flags: W
LayerCount: 2
Fore
SplineSet
406 510 m 0
 438 496 461 474 476 444 c 0
 491 414 498 374 498 323 c 2
 498 0 l 1
 367 0 l 1
 366 66 l 1
 364 66 l 1
 345 41 320 22 292 10 c 0
 262 -4 231 -10 196 -10 c 0
 145 -10 104 4 73 33 c 0
 42 62 27 100 27 147 c 0
 27 208 53 254 104 286 c 0
 156 319 230 335 325 335 c 2
 360 335 l 1
 359 359 356 377 351 390 c 0
 346 402 337 410 324 416 c 0
 311 420 293 423 269 423 c 0
 204 423 140 409 77 380 c 1
 45 481 l 1
 114 514 193 530 280 530 c 0
 333 530 375 523 406 510 c 0
298 108 m 0
 316 118 332 131 343 148 c 0
 354 164 360 181 360 200 c 2
 360 244 l 1
 325 244 l 2
 214 244 158 216 158 159 c 0
 158 139 165 123 179 112 c 0
 193 100 212 94 236 94 c 0
 258 94 278 99 298 108 c 0
152 770 m 1
 381 770 l 1
 504 560 l 1
 348 560 l 1
 268 713 l 1
 266 713 l 1
 186 560 l 1
 30 560 l 1
 152 770 l 1
324 802 m 0
 304 808 280 820 253 836 c 0
 223 854 202 863 189 863 c 0
 179 863 172 858 168 850 c 0
 164 840 162 824 162 801 c 1
 46 801 l 1
 46 864 55 910 72 940 c 0
 89 970 116 985 152 985 c 0
 187 985 229 970 279 940 c 0
 309 922 331 913 344 913 c 0
 353 913 360 918 364 926 c 0
 368 936 370 952 370 975 c 1
 486 975 l 1
 486 912 478 865 460 836 c 0
 444 806 417 791 381 791 c 0
 364 791 345 794 324 802 c 0
EndSplineSet
EndChar

StartChar: uni0201
Encoding: 513 513 215
Width: 559
Flags: W
LayerCount: 2
Fore
SplineSet
406 510 m 0
 438 496 461 474 476 444 c 0
 491 414 498 374 498 323 c 2
 498 0 l 1
 367 0 l 1
 366 66 l 1
 364 66 l 1
 345 41 320 22 292 10 c 0
 262 -4 231 -10 196 -10 c 0
 145 -10 104 4 73 33 c 0
 42 62 27 100 27 147 c 0
 27 208 53 254 104 286 c 0
 156 319 230 335 325 335 c 2
 360 335 l 1
 359 359 356 377 351 390 c 0
 346 402 337 410 324 416 c 0
 311 420 293 423 269 423 c 0
 204 423 140 409 77 380 c 1
 45 481 l 1
 114 514 193 530 280 530 c 0
 333 530 375 523 406 510 c 0
298 108 m 0
 316 118 332 131 343 148 c 0
 354 164 360 181 360 200 c 2
 360 244 l 1
 325 244 l 2
 214 244 158 216 158 159 c 0
 158 139 165 123 179 112 c 0
 193 100 212 94 236 94 c 0
 258 94 278 99 298 108 c 0
-2 770 m 1
 168 770 l 1
 251 560 l 1
 121 560 l 1
 -2 770 l 1
238 770 m 1
 408 770 l 1
 491 560 l 1
 361 560 l 1
 238 770 l 1
EndSplineSet
EndChar

StartChar: adieresis
Encoding: 228 228 216
Width: 559
Flags: W
LayerCount: 2
Fore
SplineSet
406 510 m 0
 438 496 461 474 476 444 c 0
 491 414 498 374 498 323 c 2
 498 0 l 1
 367 0 l 1
 366 66 l 1
 364 66 l 1
 345 41 320 22 292 10 c 0
 262 -4 231 -10 196 -10 c 0
 145 -10 104 4 73 33 c 0
 42 62 27 100 27 147 c 0
 27 208 53 254 104 286 c 0
 156 319 230 335 325 335 c 2
 360 335 l 1
 359 359 356 377 351 390 c 0
 346 402 337 410 324 416 c 0
 311 420 293 423 269 423 c 0
 204 423 140 409 77 380 c 1
 45 481 l 1
 114 514 193 530 280 530 c 0
 333 530 375 523 406 510 c 0
298 108 m 0
 316 118 332 131 343 148 c 0
 354 164 360 181 360 200 c 2
 360 244 l 1
 325 244 l 2
 214 244 158 216 158 159 c 0
 158 139 165 123 179 112 c 0
 193 100 212 94 236 94 c 0
 258 94 278 99 298 108 c 0
63 739 m 1
 211 739 l 1
 211 591 l 1
 63 591 l 1
 63 739 l 1
323 739 m 1
 470 739 l 1
 470 591 l 1
 323 591 l 1
 323 739 l 1
EndSplineSet
EndChar

StartChar: uni1EA1
Encoding: 7841 7841 217
Width: 559
Flags: W
LayerCount: 2
Fore
SplineSet
406 510 m 0
 438 496 461 474 476 444 c 0
 491 414 498 374 498 323 c 2
 498 0 l 1
 367 0 l 1
 366 66 l 1
 364 66 l 1
 345 41 320 22 292 10 c 0
 262 -4 231 -10 196 -10 c 0
 145 -10 104 4 73 33 c 0
 42 62 27 100 27 147 c 0
 27 208 53 254 104 286 c 0
 156 319 230 335 325 335 c 2
 360 335 l 1
 359 359 356 377 351 390 c 0
 346 402 337 410 324 416 c 0
 311 420 293 423 269 423 c 0
 204 423 140 409 77 380 c 1
 45 481 l 1
 114 514 193 530 280 530 c 0
 333 530 375 523 406 510 c 0
298 108 m 0
 316 118 332 131 343 148 c 0
 354 164 360 181 360 200 c 2
 360 244 l 1
 325 244 l 2
 214 244 158 216 158 159 c 0
 158 139 165 123 179 112 c 0
 193 100 212 94 236 94 c 0
 258 94 278 99 298 108 c 0
193 -71 m 1
 341 -71 l 1
 341 -219 l 1
 193 -219 l 1
 193 -71 l 1
EndSplineSet
EndChar

StartChar: agrave
Encoding: 224 224 218
Width: 559
Flags: W
LayerCount: 2
Fore
SplineSet
406 510 m 0
 438 496 461 474 476 444 c 0
 491 414 498 374 498 323 c 2
 498 0 l 1
 367 0 l 1
 366 66 l 1
 364 66 l 1
 345 41 320 22 292 10 c 0
 262 -4 231 -10 196 -10 c 0
 145 -10 104 4 73 33 c 0
 42 62 27 100 27 147 c 0
 27 208 53 254 104 286 c 0
 156 319 230 335 325 335 c 2
 360 335 l 1
 359 359 356 377 351 390 c 0
 346 402 337 410 324 416 c 0
 311 420 293 423 269 423 c 0
 204 423 140 409 77 380 c 1
 45 481 l 1
 114 514 193 530 280 530 c 0
 333 530 375 523 406 510 c 0
298 108 m 0
 316 118 332 131 343 148 c 0
 354 164 360 181 360 200 c 2
 360 244 l 1
 325 244 l 2
 214 244 158 216 158 159 c 0
 158 139 165 123 179 112 c 0
 193 100 212 94 236 94 c 0
 258 94 278 99 298 108 c 0
118 770 m 1
 288 770 l 1
 371 560 l 1
 241 560 l 1
 118 770 l 1
EndSplineSet
EndChar

StartChar: uni1EA3
Encoding: 7843 7843 219
Width: 559
Flags: W
LayerCount: 2
Fore
SplineSet
406 510 m 0
 438 496 461 474 476 444 c 0
 491 414 498 374 498 323 c 2
 498 0 l 1
 367 0 l 1
 366 66 l 1
 364 66 l 1
 345 41 320 22 292 10 c 0
 262 -4 231 -10 196 -10 c 0
 145 -10 104 4 73 33 c 0
 42 62 27 100 27 147 c 0
 27 208 53 254 104 286 c 0
 156 319 230 335 325 335 c 2
 360 335 l 1
 359 359 356 377 351 390 c 0
 346 402 337 410 324 416 c 0
 311 420 293 423 269 423 c 0
 204 423 140 409 77 380 c 1
 45 481 l 1
 114 514 193 530 280 530 c 0
 333 530 375 523 406 510 c 0
298 108 m 0
 316 118 332 131 343 148 c 0
 354 164 360 181 360 200 c 2
 360 244 l 1
 325 244 l 2
 214 244 158 216 158 159 c 0
 158 139 165 123 179 112 c 0
 193 100 212 94 236 94 c 0
 258 94 278 99 298 108 c 0
302 639 m 0
 302 653 298 662 289 667 c 0
 280 672 264 674 241 674 c 0
 196 674 151 667 107 654 c 1
 95 757 l 1
 147 769 204 775 267 775 c 0
 312 775 347 772 371 768 c 0
 395 762 412 754 422 742 c 0
 433 729 438 711 438 688 c 0
 438 671 436 652 432 632 c 0
 428 610 423 592 416 575 c 1
 290 575 l 1
 298 602 302 623 302 639 c 0
EndSplineSet
EndChar

StartChar: uni0203
Encoding: 515 515 220
Width: 559
Flags: W
LayerCount: 2
Fore
SplineSet
406 510 m 0
 438 496 461 474 476 444 c 0
 491 414 498 374 498 323 c 2
 498 0 l 1
 367 0 l 1
 366 66 l 1
 364 66 l 1
 345 41 320 22 292 10 c 0
 262 -4 231 -10 196 -10 c 0
 145 -10 104 4 73 33 c 0
 42 62 27 100 27 147 c 0
 27 208 53 254 104 286 c 0
 156 319 230 335 325 335 c 2
 360 335 l 1
 359 359 356 377 351 390 c 0
 346 402 337 410 324 416 c 0
 311 420 293 423 269 423 c 0
 204 423 140 409 77 380 c 1
 45 481 l 1
 114 514 193 530 280 530 c 0
 333 530 375 523 406 510 c 0
298 108 m 0
 316 118 332 131 343 148 c 0
 354 164 360 181 360 200 c 2
 360 244 l 1
 325 244 l 2
 214 244 158 216 158 159 c 0
 158 139 165 123 179 112 c 0
 193 100 212 94 236 94 c 0
 258 94 278 99 298 108 c 0
378 741 m 0
 412 725 438 703 456 674 c 0
 476 646 486 614 487 578 c 1
 352 578 l 1
 345 635 316 664 267 664 c 0
 217 664 188 635 181 578 c 1
 47 578 l 1
 48 614 58 646 78 674 c 0
 96 703 122 725 156 741 c 0
 188 757 226 765 267 765 c 0
 308 765 346 757 378 741 c 0
EndSplineSet
EndChar

StartChar: amacron
Encoding: 257 257 221
Width: 559
Flags: W
LayerCount: 2
Fore
SplineSet
406 510 m 0
 438 496 461 474 476 444 c 0
 491 414 498 374 498 323 c 2
 498 0 l 1
 367 0 l 1
 366 66 l 1
 364 66 l 1
 345 41 320 22 292 10 c 0
 262 -4 231 -10 196 -10 c 0
 145 -10 104 4 73 33 c 0
 42 62 27 100 27 147 c 0
 27 208 53 254 104 286 c 0
 156 319 230 335 325 335 c 2
 360 335 l 1
 359 359 356 377 351 390 c 0
 346 402 337 410 324 416 c 0
 311 420 293 423 269 423 c 0
 204 423 140 409 77 380 c 1
 45 481 l 1
 114 514 193 530 280 530 c 0
 333 530 375 523 406 510 c 0
298 108 m 0
 316 118 332 131 343 148 c 0
 354 164 360 181 360 200 c 2
 360 244 l 1
 325 244 l 2
 214 244 158 216 158 159 c 0
 158 139 165 123 179 112 c 0
 193 100 212 94 236 94 c 0
 258 94 278 99 298 108 c 0
70 717 m 1
 462 717 l 1
 462 613 l 1
 70 613 l 1
 70 717 l 1
EndSplineSet
EndChar

StartChar: aogonek
Encoding: 261 261 222
Width: 559
Flags: W
LayerCount: 2
Fore
SplineSet
588 -197 m 1
 553 -211 514 -218 470 -218 c 0
 413 -218 368 -208 338 -188 c 0
 306 -167 291 -139 291 -102 c 0
 291 -79 297 -58 310 -36 c 0
 322 -16 341 6 367 27 c 1
 366 66 l 1
 364 66 l 1
 345 41 320 22 292 10 c 0
 262 -4 231 -10 196 -10 c 0
 145 -10 104 4 73 33 c 0
 42 62 27 100 27 147 c 0
 27 208 53 254 104 286 c 0
 156 319 230 335 325 335 c 2
 360 335 l 1
 359 359 356 377 351 390 c 0
 346 402 337 410 324 416 c 0
 311 420 293 423 269 423 c 0
 204 423 140 409 77 380 c 1
 45 481 l 1
 114 514 193 530 280 530 c 0
 333 530 375 523 406 510 c 0
 438 496 461 474 476 444 c 0
 491 414 498 374 498 323 c 2
 498 0 l 1
 444 -29 417 -56 417 -81 c 0
 417 -92 422 -101 433 -106 c 0
 444 -112 459 -115 480 -115 c 0
 511 -115 541 -109 572 -96 c 1
 588 -197 l 1
298 108 m 0
 316 118 332 131 343 148 c 0
 354 164 360 181 360 200 c 2
 360 244 l 1
 325 244 l 2
 214 244 158 216 158 159 c 0
 158 139 165 123 179 112 c 0
 193 100 212 94 236 94 c 0
 258 94 278 99 298 108 c 0
EndSplineSet
EndChar

StartChar: aring
Encoding: 229 229 223
Width: 559
Flags: W
LayerCount: 2
Fore
SplineSet
462 468 m 0
 486 436 498 388 498 323 c 2
 498 0 l 1
 367 0 l 1
 366 66 l 1
 364 66 l 1
 345 41 320 22 292 10 c 0
 262 -4 231 -10 196 -10 c 0
 145 -10 104 4 73 33 c 0
 42 62 27 100 27 147 c 0
 27 208 53 254 104 286 c 0
 156 319 230 335 325 335 c 2
 360 335 l 1
 359 359 356 377 351 390 c 0
 346 402 337 410 324 416 c 0
 311 420 293 423 269 423 c 0
 204 423 140 409 77 380 c 1
 45 481 l 1
 92 502 142 517 197 525 c 1
 171 538 150 556 134 582 c 0
 119 606 111 634 111 665 c 0
 111 694 118 720 132 744 c 0
 146 768 165 787 189 801 c 0
 213 815 239 822 267 822 c 0
 296 822 322 815 346 801 c 0
 370 787 389 768 403 744 c 0
 417 720 424 694 424 665 c 0
 424 636 416 609 402 584 c 0
 386 559 366 540 341 526 c 1
 397 519 437 500 462 468 c 0
221 711 m 0
 208 698 202 683 202 665 c 0
 202 647 208 632 221 619 c 0
 234 606 249 600 267 600 c 0
 286 600 301 606 314 619 c 0
 326 632 332 647 332 665 c 0
 332 683 326 698 314 711 c 0
 301 724 286 730 267 730 c 0
 249 730 234 724 221 711 c 0
298 108 m 0
 316 118 332 131 343 148 c 0
 354 164 360 181 360 200 c 2
 360 244 l 1
 325 244 l 2
 214 244 158 216 158 159 c 0
 158 139 165 123 179 112 c 0
 193 100 212 94 236 94 c 0
 258 94 278 99 298 108 c 0
EndSplineSet
EndChar

StartChar: aringacute
Encoding: 507 507 224
Width: 559
Flags: W
LayerCount: 2
Fore
SplineSet
462 468 m 0
 486 436 498 388 498 323 c 2
 498 0 l 1
 367 0 l 1
 366 66 l 1
 364 66 l 1
 345 41 320 22 292 10 c 0
 262 -4 231 -10 196 -10 c 0
 145 -10 104 4 73 33 c 0
 42 62 27 100 27 147 c 0
 27 208 53 254 104 286 c 0
 156 319 230 335 325 335 c 2
 360 335 l 1
 359 359 356 377 351 390 c 0
 346 402 337 410 324 416 c 0
 311 420 293 423 269 423 c 0
 204 423 140 409 77 380 c 1
 45 481 l 1
 92 502 142 517 197 525 c 1
 171 538 150 556 134 582 c 0
 119 606 111 634 111 665 c 0
 111 688 116 710 126 731 c 0
 135 752 148 769 165 783 c 1
 245 987 l 1
 415 987 l 1
 314 815 l 1
 347 805 373 786 394 759 c 0
 414 732 424 700 424 665 c 0
 424 636 416 609 402 584 c 0
 386 559 366 540 341 526 c 1
 397 519 437 500 462 468 c 0
314 619 m 0
 326 632 332 647 332 665 c 0
 332 683 326 698 314 711 c 0
 301 724 286 730 267 730 c 0
 249 730 234 724 221 711 c 0
 208 698 202 683 202 665 c 0
 202 647 208 632 221 619 c 0
 234 606 249 600 267 600 c 0
 286 600 301 606 314 619 c 0
298 108 m 0
 316 118 332 131 343 148 c 0
 354 164 360 181 360 200 c 2
 360 244 l 1
 325 244 l 2
 214 244 158 216 158 159 c 0
 158 139 165 123 179 112 c 0
 193 100 212 94 236 94 c 0
 258 94 278 99 298 108 c 0
EndSplineSet
EndChar

StartChar: atilde
Encoding: 227 227 225
Width: 559
Flags: W
LayerCount: 2
Fore
SplineSet
406 510 m 0
 438 496 461 474 476 444 c 0
 491 414 498 374 498 323 c 2
 498 0 l 1
 367 0 l 1
 366 66 l 1
 364 66 l 1
 345 41 320 22 292 10 c 0
 262 -4 231 -10 196 -10 c 0
 145 -10 104 4 73 33 c 0
 42 62 27 100 27 147 c 0
 27 208 53 254 104 286 c 0
 156 319 230 335 325 335 c 2
 360 335 l 1
 359 359 356 377 351 390 c 0
 346 402 337 410 324 416 c 0
 311 420 293 423 269 423 c 0
 204 423 140 409 77 380 c 1
 45 481 l 1
 114 514 193 530 280 530 c 0
 333 530 375 523 406 510 c 0
298 108 m 0
 316 118 332 131 343 148 c 0
 354 164 360 181 360 200 c 2
 360 244 l 1
 325 244 l 2
 214 244 158 216 158 159 c 0
 158 139 165 123 179 112 c 0
 193 100 212 94 236 94 c 0
 258 94 278 99 298 108 c 0
324 578 m 0
 304 586 280 597 253 613 c 0
 223 631 202 640 189 640 c 0
 179 640 172 636 168 626 c 0
 164 618 162 601 162 578 c 1
 46 578 l 1
 46 641 55 687 72 717 c 0
 89 747 116 762 152 762 c 0
 187 762 229 747 279 717 c 0
 309 699 331 690 344 690 c 0
 353 690 360 694 364 704 c 0
 368 712 370 729 370 752 c 1
 486 752 l 1
 486 689 478 642 460 612 c 0
 444 583 417 568 381 568 c 0
 364 568 345 572 324 578 c 0
EndSplineSet
EndChar

StartChar: ae
Encoding: 230 230 226
Width: 892
Flags: W
LayerCount: 2
Fore
SplineSet
858 210 m 1
 495 210 l 1
 499 171 513 142 538 123 c 0
 563 104 599 95 647 95 c 0
 674 95 700 98 727 103 c 0
 754 108 778 116 799 126 c 1
 824 27 l 1
 798 16 769 7 736 0 c 0
 704 -7 672 -10 639 -10 c 0
 546 -10 476 15 427 65 c 1
 381 15 315 -10 228 -10 c 0
 163 -10 114 4 79 30 c 0
 44 58 27 96 27 147 c 0
 27 208 53 254 104 286 c 0
 156 319 230 335 325 335 c 2
 360 335 l 1
 359 359 356 377 351 390 c 0
 346 402 337 410 324 416 c 0
 311 420 293 423 269 423 c 0
 204 423 140 409 77 380 c 1
 45 481 l 1
 114 514 193 530 280 530 c 0
 321 530 355 526 382 518 c 0
 410 509 432 496 449 478 c 1
 492 513 547 530 615 530 c 0
 694 530 754 507 796 461 c 0
 839 415 860 349 860 263 c 0
 860 244 859 226 858 210 c 1
530 400 m 0
 511 379 499 348 495 305 c 1
 731 305 l 1
 728 348 717 380 698 400 c 0
 679 420 652 430 615 430 c 0
 578 430 550 420 530 400 c 0
298 108 m 0
 316 118 332 131 343 148 c 0
 354 164 360 181 360 200 c 2
 360 244 l 1
 325 244 l 2
 214 244 158 216 158 159 c 0
 158 139 165 123 179 112 c 0
 193 100 212 94 236 94 c 0
 258 94 278 99 298 108 c 0
EndSplineSet
EndChar

StartChar: aeacute
Encoding: 509 509 227
Width: 892
Flags: W
LayerCount: 2
Fore
SplineSet
858 210 m 1
 495 210 l 1
 499 171 513 142 538 123 c 0
 563 104 599 95 647 95 c 0
 674 95 700 98 727 103 c 0
 754 108 778 116 799 126 c 1
 824 27 l 1
 798 16 769 7 736 0 c 0
 704 -7 672 -10 639 -10 c 0
 546 -10 476 15 427 65 c 1
 381 15 315 -10 228 -10 c 0
 163 -10 114 4 79 30 c 0
 44 58 27 96 27 147 c 0
 27 208 53 254 104 286 c 0
 156 319 230 335 325 335 c 2
 360 335 l 1
 359 359 356 377 351 390 c 0
 346 402 337 410 324 416 c 0
 311 420 293 423 269 423 c 0
 204 423 140 409 77 380 c 1
 45 481 l 1
 114 514 193 530 280 530 c 0
 321 530 355 526 382 518 c 0
 410 509 432 496 449 478 c 1
 492 513 547 530 615 530 c 0
 694 530 754 507 796 461 c 0
 839 415 860 349 860 263 c 0
 860 244 859 226 858 210 c 1
530 400 m 0
 511 379 499 348 495 305 c 1
 731 305 l 1
 728 348 717 380 698 400 c 0
 679 420 652 430 615 430 c 0
 578 430 550 420 530 400 c 0
298 108 m 0
 316 118 332 131 343 148 c 0
 354 164 360 181 360 200 c 2
 360 244 l 1
 325 244 l 2
 214 244 158 216 158 159 c 0
 158 139 165 123 179 112 c 0
 193 100 212 94 236 94 c 0
 258 94 278 99 298 108 c 0
473 560 m 1
 343 560 l 1
 426 770 l 1
 596 770 l 1
 473 560 l 1
EndSplineSet
EndChar

StartChar: b
Encoding: 98 98 228
Width: 609
Flags: W
LayerCount: 2
Fore
SplineSet
520 460 m 0
 555 414 572 347 572 260 c 0
 572 173 555 106 520 60 c 0
 486 13 437 -10 372 -10 c 0
 338 -10 306 -3 277 10 c 0
 248 23 223 42 202 67 c 1
 200 67 l 1
 198 0 l 1
 68 0 l 1
 68 750 l 1
 205 750 l 1
 205 453 l 1
 207 453 l 1
 227 478 251 498 279 510 c 0
 307 524 338 530 372 530 c 0
 437 530 486 507 520 460 c 0
407 142 m 0
 426 171 436 210 436 260 c 0
 436 310 426 349 407 378 c 0
 388 406 361 420 326 420 c 0
 291 420 262 407 240 380 c 0
 216 353 205 320 205 279 c 2
 205 241 l 2
 205 200 216 167 240 140 c 0
 262 113 291 100 326 100 c 0
 361 100 388 114 407 142 c 0
EndSplineSet
EndChar

StartChar: c
Encoding: 99 99 229
Width: 537
Flags: W
LayerCount: 2
Fore
SplineSet
108 60 m 0
 58 108 34 174 34 260 c 0
 34 346 58 412 108 460 c 0
 156 506 226 530 315 530 c 0
 378 530 435 517 484 491 c 1
 448 393 l 1
 405 413 364 423 323 423 c 0
 274 423 237 409 212 382 c 0
 186 354 173 313 173 260 c 0
 173 207 186 166 212 138 c 0
 237 111 274 97 323 97 c 0
 364 97 405 107 448 127 c 1
 484 29 l 1
 435 3 378 -10 315 -10 c 0
 226 -10 156 14 108 60 c 0
EndSplineSet
EndChar

StartChar: cacute
Encoding: 263 263 230
Width: 537
Flags: W
LayerCount: 2
Fore
SplineSet
108 60 m 0
 58 108 34 174 34 260 c 0
 34 346 58 412 108 460 c 0
 156 506 226 530 315 530 c 0
 378 530 435 517 484 491 c 1
 448 393 l 1
 405 413 364 423 323 423 c 0
 274 423 237 409 212 382 c 0
 186 354 173 313 173 260 c 0
 173 207 186 166 212 138 c 0
 237 111 274 97 323 97 c 0
 364 97 405 107 448 127 c 1
 484 29 l 1
 435 3 378 -10 315 -10 c 0
 226 -10 156 14 108 60 c 0
310 560 m 1
 180 560 l 1
 263 770 l 1
 433 770 l 1
 310 560 l 1
EndSplineSet
EndChar

StartChar: ccaron
Encoding: 269 269 231
Width: 537
Flags: W
LayerCount: 2
Fore
SplineSet
108 60 m 0
 58 108 34 174 34 260 c 0
 34 346 58 412 108 460 c 0
 156 506 226 530 315 530 c 0
 378 530 435 517 484 491 c 1
 448 393 l 1
 405 413 364 423 323 423 c 0
 274 423 237 409 212 382 c 0
 186 354 173 313 173 260 c 0
 173 207 186 166 212 138 c 0
 237 111 274 97 323 97 c 0
 364 97 405 107 448 127 c 1
 484 29 l 1
 435 3 378 -10 315 -10 c 0
 226 -10 156 14 108 60 c 0
48 770 m 1
 204 770 l 1
 284 617 l 1
 286 617 l 1
 366 770 l 1
 522 770 l 1
 399 560 l 1
 170 560 l 1
 48 770 l 1
EndSplineSet
EndChar

StartChar: ccedilla
Encoding: 231 231 232
Width: 537
Flags: W
LayerCount: 2
Fore
SplineSet
484 29 m 1
 457 15 429 5 400 -1 c 1
 430 -34 445 -68 445 -102 c 0
 445 -139 430 -167 398 -188 c 0
 368 -208 323 -218 266 -218 c 0
 222 -218 183 -211 148 -197 c 1
 164 -96 l 1
 195 -109 225 -115 256 -115 c 0
 277 -115 292 -112 303 -106 c 0
 314 -101 319 -92 319 -81 c 0
 319 -57 295 -32 246 -5 c 1
 178 6 126 35 89 80 c 0
 52 126 34 186 34 260 c 0
 34 346 58 412 108 460 c 0
 156 506 226 530 315 530 c 0
 378 530 435 517 484 491 c 1
 448 393 l 1
 405 413 364 423 323 423 c 0
 274 423 237 409 212 382 c 0
 186 354 173 313 173 260 c 0
 173 207 186 166 212 138 c 0
 237 111 274 97 323 97 c 0
 364 97 405 107 448 127 c 1
 484 29 l 1
EndSplineSet
EndChar

StartChar: ccircumflex
Encoding: 265 265 233
Width: 537
Flags: W
LayerCount: 2
Fore
SplineSet
108 60 m 0
 58 108 34 174 34 260 c 0
 34 346 58 412 108 460 c 0
 156 506 226 530 315 530 c 0
 378 530 435 517 484 491 c 1
 448 393 l 1
 405 413 364 423 323 423 c 0
 274 423 237 409 212 382 c 0
 186 354 173 313 173 260 c 0
 173 207 186 166 212 138 c 0
 237 111 274 97 323 97 c 0
 364 97 405 107 448 127 c 1
 484 29 l 1
 435 3 378 -10 315 -10 c 0
 226 -10 156 14 108 60 c 0
170 770 m 1
 399 770 l 1
 522 560 l 1
 366 560 l 1
 286 713 l 1
 284 713 l 1
 204 560 l 1
 48 560 l 1
 170 770 l 1
EndSplineSet
EndChar

StartChar: cdotaccent
Encoding: 267 267 234
Width: 537
Flags: W
LayerCount: 2
Fore
SplineSet
108 60 m 0
 58 108 34 174 34 260 c 0
 34 346 58 412 108 460 c 0
 156 506 226 530 315 530 c 0
 378 530 435 517 484 491 c 1
 448 393 l 1
 405 413 364 423 323 423 c 0
 274 423 237 409 212 382 c 0
 186 354 173 313 173 260 c 0
 173 207 186 166 212 138 c 0
 237 111 274 97 323 97 c 0
 364 97 405 107 448 127 c 1
 484 29 l 1
 435 3 378 -10 315 -10 c 0
 226 -10 156 14 108 60 c 0
211 739 m 1
 359 739 l 1
 359 591 l 1
 211 591 l 1
 211 739 l 1
EndSplineSet
EndChar

StartChar: d
Encoding: 100 100 235
Width: 610
Flags: W
LayerCount: 2
Fore
SplineSet
542 750 m 1
 542 0 l 1
 411 0 l 1
 410 67 l 1
 408 67 l 1
 387 42 362 22 332 10 c 0
 304 -4 272 -10 237 -10 c 0
 173 -10 124 13 90 60 c 0
 55 107 38 173 38 260 c 0
 38 347 55 413 90 460 c 0
 124 507 173 530 237 530 c 0
 271 530 302 524 330 510 c 0
 358 498 382 478 402 453 c 1
 404 453 l 1
 404 750 l 1
 542 750 l 1
370 140 m 0
 392 167 404 200 404 241 c 2
 404 279 l 2
 404 320 392 353 370 380 c 0
 346 407 318 420 283 420 c 0
 249 420 222 406 203 378 c 0
 184 349 174 310 174 260 c 0
 174 210 184 171 203 142 c 0
 222 114 249 100 283 100 c 0
 318 100 346 113 370 140 c 0
EndSplineSet
EndChar

StartChar: eth
Encoding: 240 240 236
Width: 602
Flags: W
LayerCount: 2
Fore
SplineSet
454 616 m 1
 487 571 513 519 530 460 c 0
 548 402 557 338 557 269 c 0
 557 178 535 108 490 61 c 0
 446 14 381 -10 296 -10 c 0
 214 -10 150 13 104 58 c 0
 57 103 34 166 34 245 c 0
 34 319 55 377 98 418 c 0
 141 459 200 480 276 480 c 0
 327 480 368 469 397 446 c 1
 399 447 l 1
 388 494 367 535 337 570 c 1
 119 483 l 1
 77 582 l 1
 241 647 l 1
 200 669 155 682 107 687 c 1
 134 790 l 1
 225 781 305 751 372 699 c 1
 517 757 l 1
 559 658 l 1
 454 616 l 1
388 134 m 0
 410 159 421 196 421 245 c 0
 421 292 411 328 390 350 c 0
 369 374 338 385 296 385 c 0
 254 385 223 374 202 350 c 0
 181 328 171 292 171 245 c 0
 171 196 182 159 203 134 c 0
 224 108 255 95 296 95 c 0
 336 95 367 108 388 134 c 0
EndSplineSet
EndChar

StartChar: dcaron
Encoding: 271 271 237
Width: 827
Flags: W
LayerCount: 2
Fore
SplineSet
542 750 m 1
 542 0 l 1
 411 0 l 1
 410 67 l 1
 408 67 l 1
 387 42 362 22 332 10 c 0
 304 -4 272 -10 237 -10 c 0
 173 -10 124 13 90 60 c 0
 55 107 38 173 38 260 c 0
 38 347 55 413 90 460 c 0
 124 507 173 530 237 530 c 0
 271 530 302 524 330 510 c 0
 358 498 382 478 402 453 c 1
 404 453 l 1
 404 750 l 1
 542 750 l 1
370 140 m 0
 392 167 404 200 404 241 c 2
 404 279 l 2
 404 320 392 353 370 380 c 0
 346 407 318 420 283 420 c 0
 249 420 222 406 203 378 c 0
 184 349 174 310 174 260 c 0
 174 210 184 171 203 142 c 0
 222 114 249 100 283 100 c 0
 318 100 346 113 370 140 c 0
656 770 m 1
 812 770 l 1
 696 470 l 1
 579 470 l 1
 656 770 l 1
EndSplineSet
EndChar

StartChar: dcroat
Encoding: 273 273 238
Width: 674
Flags: W
LayerCount: 2
Fore
SplineSet
648 572 m 1
 542 572 l 1
 542 0 l 1
 411 0 l 1
 410 67 l 1
 408 67 l 1
 387 42 362 22 332 10 c 0
 304 -4 272 -10 237 -10 c 0
 173 -10 124 13 90 60 c 0
 55 107 38 173 38 260 c 0
 38 347 55 413 90 460 c 0
 124 507 173 530 237 530 c 0
 271 530 302 524 330 510 c 0
 358 498 382 478 402 453 c 1
 404 453 l 1
 404 572 l 1
 228 572 l 1
 228 678 l 1
 404 678 l 1
 404 750 l 1
 542 750 l 1
 542 678 l 1
 648 678 l 1
 648 572 l 1
370 140 m 0
 392 167 404 200 404 241 c 2
 404 279 l 2
 404 320 392 353 370 380 c 0
 346 407 318 420 283 420 c 0
 249 420 222 406 203 378 c 0
 184 349 174 310 174 260 c 0
 174 210 184 171 203 142 c 0
 222 114 249 100 283 100 c 0
 318 100 346 113 370 140 c 0
EndSplineSet
EndChar

StartChar: uni01C6
Encoding: 454 454 239
Width: 1154
Flags: W
LayerCount: 2
Fore
SplineSet
542 750 m 1
 542 0 l 1
 411 0 l 1
 410 67 l 1
 408 67 l 1
 387 42 362 22 332 10 c 0
 304 -4 272 -10 237 -10 c 0
 173 -10 124 13 90 60 c 0
 55 107 38 173 38 260 c 0
 38 347 55 413 90 460 c 0
 124 507 173 530 237 530 c 0
 271 530 302 524 330 510 c 0
 358 498 382 478 402 453 c 1
 404 453 l 1
 404 750 l 1
 542 750 l 1
370 140 m 0
 392 167 404 200 404 241 c 2
 404 279 l 2
 404 320 392 353 370 380 c 0
 346 407 318 420 283 420 c 0
 249 420 222 406 203 378 c 0
 184 349 174 310 174 260 c 0
 174 210 184 171 203 142 c 0
 222 114 249 100 283 100 c 0
 318 100 346 113 370 140 c 0
664 107 m 1
 927 411 l 1
 927 413 l 1
 664 413 l 1
 664 520 l 1
 1100 520 l 1
 1100 413 l 1
 837 109 l 1
 837 107 l 1
 1100 107 l 1
 1100 0 l 1
 664 0 l 1
 664 107 l 1
645 770 m 1
 801 770 l 1
 881 617 l 1
 883 617 l 1
 963 770 l 1
 1119 770 l 1
 996 560 l 1
 767 560 l 1
 645 770 l 1
EndSplineSet
EndChar

StartChar: e
Encoding: 101 101 240
Width: 567
Flags: W
LayerCount: 2
Fore
SplineSet
532 210 m 1
 170 210 l 1
 174 171 189 142 215 123 c 0
 241 104 279 95 330 95 c 0
 381 95 430 104 476 122 c 1
 501 22 l 1
 476 12 448 4 417 -2 c 0
 386 -7 354 -10 322 -10 c 0
 229 -10 158 13 108 60 c 0
 59 107 34 173 34 260 c 0
 34 345 56 411 102 458 c 0
 146 506 209 530 289 530 c 0
 368 530 429 507 472 461 c 0
 514 415 535 349 535 263 c 0
 535 252 534 234 532 210 c 1
205 400 m 0
 186 379 174 348 170 305 c 1
 406 305 l 1
 403 348 392 379 372 400 c 0
 354 420 326 430 289 430 c 0
 252 430 224 420 205 400 c 0
EndSplineSet
EndChar

StartChar: eacute
Encoding: 233 233 241
Width: 567
Flags: W
LayerCount: 2
Fore
SplineSet
532 210 m 1
 170 210 l 1
 174 171 189 142 215 123 c 0
 241 104 279 95 330 95 c 0
 381 95 430 104 476 122 c 1
 501 22 l 1
 476 12 448 4 417 -2 c 0
 386 -7 354 -10 322 -10 c 0
 229 -10 158 13 108 60 c 0
 59 107 34 173 34 260 c 0
 34 345 56 411 102 458 c 0
 146 506 209 530 289 530 c 0
 368 530 429 507 472 461 c 0
 514 415 535 349 535 263 c 0
 535 252 534 234 532 210 c 1
205 400 m 0
 186 379 174 348 170 305 c 1
 406 305 l 1
 403 348 392 379 372 400 c 0
 354 420 326 430 289 430 c 0
 252 430 224 420 205 400 c 0
313 560 m 1
 183 560 l 1
 266 770 l 1
 436 770 l 1
 313 560 l 1
EndSplineSet
EndChar

StartChar: ebreve
Encoding: 277 277 242
Width: 567
Flags: W
LayerCount: 2
Fore
SplineSet
532 210 m 1
 170 210 l 1
 174 171 189 142 215 123 c 0
 241 104 279 95 330 95 c 0
 381 95 430 104 476 122 c 1
 501 22 l 1
 476 12 448 4 417 -2 c 0
 386 -7 354 -10 322 -10 c 0
 229 -10 158 13 108 60 c 0
 59 107 34 173 34 260 c 0
 34 345 56 411 102 458 c 0
 146 506 209 530 289 530 c 0
 368 530 429 507 472 461 c 0
 514 415 535 349 535 263 c 0
 535 252 534 234 532 210 c 1
205 400 m 0
 186 379 174 348 170 305 c 1
 406 305 l 1
 403 348 392 379 372 400 c 0
 354 420 326 430 289 430 c 0
 252 430 224 420 205 400 c 0
176 589 m 0
 144 605 118 627 98 656 c 0
 80 684 69 716 68 752 c 1
 202 752 l 1
 209 695 238 666 288 666 c 0
 337 666 366 695 373 752 c 1
 508 752 l 1
 507 716 496 684 478 656 c 0
 458 627 432 605 400 589 c 0
 366 573 329 565 288 565 c 0
 247 565 210 573 176 589 c 0
EndSplineSet
EndChar

StartChar: ecaron
Encoding: 283 283 243
Width: 567
Flags: W
LayerCount: 2
Fore
SplineSet
532 210 m 1
 170 210 l 1
 174 171 189 142 215 123 c 0
 241 104 279 95 330 95 c 0
 381 95 430 104 476 122 c 1
 501 22 l 1
 476 12 448 4 417 -2 c 0
 386 -7 354 -10 322 -10 c 0
 229 -10 158 13 108 60 c 0
 59 107 34 173 34 260 c 0
 34 345 56 411 102 458 c 0
 146 506 209 530 289 530 c 0
 368 530 429 507 472 461 c 0
 514 415 535 349 535 263 c 0
 535 252 534 234 532 210 c 1
205 400 m 0
 186 379 174 348 170 305 c 1
 406 305 l 1
 403 348 392 379 372 400 c 0
 354 420 326 430 289 430 c 0
 252 430 224 420 205 400 c 0
51 770 m 1
 207 770 l 1
 287 617 l 1
 289 617 l 1
 369 770 l 1
 525 770 l 1
 402 560 l 1
 173 560 l 1
 51 770 l 1
EndSplineSet
EndChar

StartChar: ecircumflex
Encoding: 234 234 244
Width: 567
Flags: W
LayerCount: 2
Fore
SplineSet
532 210 m 1
 170 210 l 1
 174 171 189 142 215 123 c 0
 241 104 279 95 330 95 c 0
 381 95 430 104 476 122 c 1
 501 22 l 1
 476 12 448 4 417 -2 c 0
 386 -7 354 -10 322 -10 c 0
 229 -10 158 13 108 60 c 0
 59 107 34 173 34 260 c 0
 34 345 56 411 102 458 c 0
 146 506 209 530 289 530 c 0
 368 530 429 507 472 461 c 0
 514 415 535 349 535 263 c 0
 535 252 534 234 532 210 c 1
205 400 m 0
 186 379 174 348 170 305 c 1
 406 305 l 1
 403 348 392 379 372 400 c 0
 354 420 326 430 289 430 c 0
 252 430 224 420 205 400 c 0
173 770 m 1
 402 770 l 1
 525 560 l 1
 369 560 l 1
 289 713 l 1
 287 713 l 1
 207 560 l 1
 51 560 l 1
 173 770 l 1
EndSplineSet
EndChar

StartChar: uni1EBF
Encoding: 7871 7871 245
Width: 567
Flags: W
LayerCount: 2
Fore
SplineSet
287 713 m 1
 207 560 l 1
 51 560 l 1
 173 770 l 1
 393 770 l 1
 464 950 l 1
 634 950 l 1
 511 740 l 1
 420 740 l 1
 525 560 l 1
 369 560 l 1
 289 713 l 1
 287 713 l 1
472 461 m 0
 514 415 535 349 535 263 c 0
 535 252 534 234 532 210 c 1
 170 210 l 1
 174 171 189 142 215 123 c 0
 241 104 279 95 330 95 c 0
 381 95 430 104 476 122 c 1
 501 22 l 1
 476 12 448 4 417 -2 c 0
 386 -7 354 -10 322 -10 c 0
 229 -10 158 13 108 60 c 0
 59 107 34 173 34 260 c 0
 34 345 56 411 102 458 c 0
 146 506 209 530 289 530 c 0
 368 530 429 507 472 461 c 0
205 400 m 0
 186 379 174 348 170 305 c 1
 406 305 l 1
 403 348 392 379 372 400 c 0
 354 420 326 430 289 430 c 0
 252 430 224 420 205 400 c 0
EndSplineSet
EndChar

StartChar: uni1EC7
Encoding: 7879 7879 246
Width: 567
Flags: W
LayerCount: 2
Fore
SplineSet
532 210 m 1
 170 210 l 1
 174 171 189 142 215 123 c 0
 241 104 279 95 330 95 c 0
 381 95 430 104 476 122 c 1
 501 22 l 1
 476 12 448 4 417 -2 c 0
 386 -7 354 -10 322 -10 c 0
 229 -10 158 13 108 60 c 0
 59 107 34 173 34 260 c 0
 34 345 56 411 102 458 c 0
 146 506 209 530 289 530 c 0
 368 530 429 507 472 461 c 0
 514 415 535 349 535 263 c 0
 535 252 534 234 532 210 c 1
205 400 m 0
 186 379 174 348 170 305 c 1
 406 305 l 1
 403 348 392 379 372 400 c 0
 354 420 326 430 289 430 c 0
 252 430 224 420 205 400 c 0
214 -71 m 1
 362 -71 l 1
 362 -219 l 1
 214 -219 l 1
 214 -71 l 1
173 770 m 1
 402 770 l 1
 525 560 l 1
 369 560 l 1
 289 713 l 1
 287 713 l 1
 207 560 l 1
 51 560 l 1
 173 770 l 1
EndSplineSet
EndChar

StartChar: uni1EC1
Encoding: 7873 7873 247
Width: 567
Flags: W
LayerCount: 2
Fore
SplineSet
156 740 m 1
 65 740 l 1
 -58 950 l 1
 112 950 l 1
 183 770 l 1
 402 770 l 1
 525 560 l 1
 369 560 l 1
 289 713 l 1
 287 713 l 1
 207 560 l 1
 51 560 l 1
 156 740 l 1
532 210 m 1
 170 210 l 1
 174 171 189 142 215 123 c 0
 241 104 279 95 330 95 c 0
 381 95 430 104 476 122 c 1
 501 22 l 1
 476 12 448 4 417 -2 c 0
 386 -7 354 -10 322 -10 c 0
 229 -10 158 13 108 60 c 0
 59 107 34 173 34 260 c 0
 34 345 56 411 102 458 c 0
 146 506 209 530 289 530 c 0
 368 530 429 507 472 461 c 0
 514 415 535 349 535 263 c 0
 535 252 534 234 532 210 c 1
205 400 m 0
 186 379 174 348 170 305 c 1
 406 305 l 1
 403 348 392 379 372 400 c 0
 354 420 326 430 289 430 c 0
 252 430 224 420 205 400 c 0
EndSplineSet
EndChar

StartChar: uni1EC3
Encoding: 7875 7875 248
Width: 567
Flags: W
LayerCount: 2
Fore
SplineSet
207 560 m 1
 51 560 l 1
 173 770 l 1
 390 770 l 1
 393 786 394 797 394 802 c 0
 394 816 390 825 381 830 c 0
 372 835 356 837 333 837 c 0
 288 837 243 830 199 817 c 1
 187 920 l 1
 239 932 296 938 359 938 c 0
 404 938 439 936 463 930 c 0
 487 926 504 917 514 904 c 0
 525 892 530 874 530 851 c 0
 530 834 528 816 524 794 c 0
 520 774 515 755 508 738 c 1
 421 738 l 1
 525 560 l 1
 369 560 l 1
 289 713 l 1
 287 713 l 1
 207 560 l 1
532 210 m 1
 170 210 l 1
 174 171 189 142 215 123 c 0
 241 104 279 95 330 95 c 0
 381 95 430 104 476 122 c 1
 501 22 l 1
 476 12 448 4 417 -2 c 0
 386 -7 354 -10 322 -10 c 0
 229 -10 158 13 108 60 c 0
 59 107 34 173 34 260 c 0
 34 345 56 411 102 458 c 0
 146 506 209 530 289 530 c 0
 368 530 429 507 472 461 c 0
 514 415 535 349 535 263 c 0
 535 252 534 234 532 210 c 1
205 400 m 0
 186 379 174 348 170 305 c 1
 406 305 l 1
 403 348 392 379 372 400 c 0
 354 420 326 430 289 430 c 0
 252 430 224 420 205 400 c 0
EndSplineSet
EndChar

StartChar: uni1EC5
Encoding: 7877 7877 249
Width: 567
Flags: W
LayerCount: 2
Fore
SplineSet
532 210 m 1
 170 210 l 1
 174 171 189 142 215 123 c 0
 241 104 279 95 330 95 c 0
 381 95 430 104 476 122 c 1
 501 22 l 1
 476 12 448 4 417 -2 c 0
 386 -7 354 -10 322 -10 c 0
 229 -10 158 13 108 60 c 0
 59 107 34 173 34 260 c 0
 34 345 56 411 102 458 c 0
 146 506 209 530 289 530 c 0
 368 530 429 507 472 461 c 0
 514 415 535 349 535 263 c 0
 535 252 534 234 532 210 c 1
205 400 m 0
 186 379 174 348 170 305 c 1
 406 305 l 1
 403 348 392 379 372 400 c 0
 354 420 326 430 289 430 c 0
 252 430 224 420 205 400 c 0
173 770 m 1
 402 770 l 1
 525 560 l 1
 369 560 l 1
 289 713 l 1
 287 713 l 1
 207 560 l 1
 51 560 l 1
 173 770 l 1
346 802 m 0
 326 808 302 820 275 836 c 0
 245 854 224 863 211 863 c 0
 201 863 194 858 190 850 c 0
 186 840 184 824 184 801 c 1
 68 801 l 1
 68 864 77 910 94 940 c 0
 111 970 138 985 174 985 c 0
 209 985 251 970 301 940 c 0
 331 922 353 913 366 913 c 0
 375 913 382 918 386 926 c 0
 390 936 392 952 392 975 c 1
 508 975 l 1
 508 912 500 865 482 836 c 0
 466 806 439 791 403 791 c 0
 386 791 367 794 346 802 c 0
EndSplineSet
EndChar

StartChar: uni0205
Encoding: 517 517 250
Width: 567
Flags: W
LayerCount: 2
Fore
SplineSet
532 210 m 1
 170 210 l 1
 174 171 189 142 215 123 c 0
 241 104 279 95 330 95 c 0
 381 95 430 104 476 122 c 1
 501 22 l 1
 476 12 448 4 417 -2 c 0
 386 -7 354 -10 322 -10 c 0
 229 -10 158 13 108 60 c 0
 59 107 34 173 34 260 c 0
 34 345 56 411 102 458 c 0
 146 506 209 530 289 530 c 0
 368 530 429 507 472 461 c 0
 514 415 535 349 535 263 c 0
 535 252 534 234 532 210 c 1
205 400 m 0
 186 379 174 348 170 305 c 1
 406 305 l 1
 403 348 392 379 372 400 c 0
 354 420 326 430 289 430 c 0
 252 430 224 420 205 400 c 0
20 770 m 1
 190 770 l 1
 273 560 l 1
 143 560 l 1
 20 770 l 1
260 770 m 1
 430 770 l 1
 513 560 l 1
 383 560 l 1
 260 770 l 1
EndSplineSet
EndChar

StartChar: edieresis
Encoding: 235 235 251
Width: 567
Flags: W
LayerCount: 2
Fore
SplineSet
532 210 m 1
 170 210 l 1
 174 171 189 142 215 123 c 0
 241 104 279 95 330 95 c 0
 381 95 430 104 476 122 c 1
 501 22 l 1
 476 12 448 4 417 -2 c 0
 386 -7 354 -10 322 -10 c 0
 229 -10 158 13 108 60 c 0
 59 107 34 173 34 260 c 0
 34 345 56 411 102 458 c 0
 146 506 209 530 289 530 c 0
 368 530 429 507 472 461 c 0
 514 415 535 349 535 263 c 0
 535 252 534 234 532 210 c 1
205 400 m 0
 186 379 174 348 170 305 c 1
 406 305 l 1
 403 348 392 379 372 400 c 0
 354 420 326 430 289 430 c 0
 252 430 224 420 205 400 c 0
84 739 m 1
 232 739 l 1
 232 591 l 1
 84 591 l 1
 84 739 l 1
344 739 m 1
 491 739 l 1
 491 591 l 1
 344 591 l 1
 344 739 l 1
EndSplineSet
EndChar

StartChar: edotaccent
Encoding: 279 279 252
Width: 567
Flags: W
LayerCount: 2
Fore
SplineSet
532 210 m 1
 170 210 l 1
 174 171 189 142 215 123 c 0
 241 104 279 95 330 95 c 0
 381 95 430 104 476 122 c 1
 501 22 l 1
 476 12 448 4 417 -2 c 0
 386 -7 354 -10 322 -10 c 0
 229 -10 158 13 108 60 c 0
 59 107 34 173 34 260 c 0
 34 345 56 411 102 458 c 0
 146 506 209 530 289 530 c 0
 368 530 429 507 472 461 c 0
 514 415 535 349 535 263 c 0
 535 252 534 234 532 210 c 1
205 400 m 0
 186 379 174 348 170 305 c 1
 406 305 l 1
 403 348 392 379 372 400 c 0
 354 420 326 430 289 430 c 0
 252 430 224 420 205 400 c 0
214 739 m 1
 362 739 l 1
 362 591 l 1
 214 591 l 1
 214 739 l 1
EndSplineSet
EndChar

StartChar: uni1EB9
Encoding: 7865 7865 253
Width: 567
Flags: W
LayerCount: 2
Fore
SplineSet
532 210 m 1
 170 210 l 1
 174 171 189 142 215 123 c 0
 241 104 279 95 330 95 c 0
 381 95 430 104 476 122 c 1
 501 22 l 1
 476 12 448 4 417 -2 c 0
 386 -7 354 -10 322 -10 c 0
 229 -10 158 13 108 60 c 0
 59 107 34 173 34 260 c 0
 34 345 56 411 102 458 c 0
 146 506 209 530 289 530 c 0
 368 530 429 507 472 461 c 0
 514 415 535 349 535 263 c 0
 535 252 534 234 532 210 c 1
205 400 m 0
 186 379 174 348 170 305 c 1
 406 305 l 1
 403 348 392 379 372 400 c 0
 354 420 326 430 289 430 c 0
 252 430 224 420 205 400 c 0
214 -71 m 1
 362 -71 l 1
 362 -219 l 1
 214 -219 l 1
 214 -71 l 1
EndSplineSet
EndChar

StartChar: egrave
Encoding: 232 232 254
Width: 567
Flags: W
LayerCount: 2
Fore
SplineSet
532 210 m 1
 170 210 l 1
 174 171 189 142 215 123 c 0
 241 104 279 95 330 95 c 0
 381 95 430 104 476 122 c 1
 501 22 l 1
 476 12 448 4 417 -2 c 0
 386 -7 354 -10 322 -10 c 0
 229 -10 158 13 108 60 c 0
 59 107 34 173 34 260 c 0
 34 345 56 411 102 458 c 0
 146 506 209 530 289 530 c 0
 368 530 429 507 472 461 c 0
 514 415 535 349 535 263 c 0
 535 252 534 234 532 210 c 1
205 400 m 0
 186 379 174 348 170 305 c 1
 406 305 l 1
 403 348 392 379 372 400 c 0
 354 420 326 430 289 430 c 0
 252 430 224 420 205 400 c 0
140 770 m 1
 310 770 l 1
 393 560 l 1
 263 560 l 1
 140 770 l 1
EndSplineSet
EndChar

StartChar: uni1EBB
Encoding: 7867 7867 255
Width: 567
Flags: W
LayerCount: 2
Fore
SplineSet
532 210 m 1
 170 210 l 1
 174 171 189 142 215 123 c 0
 241 104 279 95 330 95 c 0
 381 95 430 104 476 122 c 1
 501 22 l 1
 476 12 448 4 417 -2 c 0
 386 -7 354 -10 322 -10 c 0
 229 -10 158 13 108 60 c 0
 59 107 34 173 34 260 c 0
 34 345 56 411 102 458 c 0
 146 506 209 530 289 530 c 0
 368 530 429 507 472 461 c 0
 514 415 535 349 535 263 c 0
 535 252 534 234 532 210 c 1
205 400 m 0
 186 379 174 348 170 305 c 1
 406 305 l 1
 403 348 392 379 372 400 c 0
 354 420 326 430 289 430 c 0
 252 430 224 420 205 400 c 0
323 639 m 0
 323 653 319 662 310 667 c 0
 301 672 285 674 262 674 c 0
 217 674 172 667 128 654 c 1
 116 757 l 1
 168 769 225 775 288 775 c 0
 333 775 368 772 392 768 c 0
 416 762 433 754 444 742 c 0
 454 729 459 711 459 688 c 0
 459 671 457 652 453 632 c 0
 449 610 444 592 437 575 c 1
 311 575 l 1
 319 602 323 623 323 639 c 0
EndSplineSet
EndChar

StartChar: uni0207
Encoding: 519 519 256
Width: 567
Flags: W
LayerCount: 2
Fore
SplineSet
532 210 m 1
 170 210 l 1
 174 171 189 142 215 123 c 0
 241 104 279 95 330 95 c 0
 381 95 430 104 476 122 c 1
 501 22 l 1
 476 12 448 4 417 -2 c 0
 386 -7 354 -10 322 -10 c 0
 229 -10 158 13 108 60 c 0
 59 107 34 173 34 260 c 0
 34 345 56 411 102 458 c 0
 146 506 209 530 289 530 c 0
 368 530 429 507 472 461 c 0
 514 415 535 349 535 263 c 0
 535 252 534 234 532 210 c 1
205 400 m 0
 186 379 174 348 170 305 c 1
 406 305 l 1
 403 348 392 379 372 400 c 0
 354 420 326 430 289 430 c 0
 252 430 224 420 205 400 c 0
400 741 m 0
 432 725 458 703 478 674 c 0
 496 646 507 614 508 578 c 1
 373 578 l 1
 366 635 337 664 288 664 c 0
 238 664 209 635 202 578 c 1
 68 578 l 1
 69 614 80 646 98 674 c 0
 118 703 144 725 176 741 c 0
 210 757 247 765 288 765 c 0
 329 765 366 757 400 741 c 0
EndSplineSet
EndChar

StartChar: emacron
Encoding: 275 275 257
Width: 567
Flags: W
LayerCount: 2
Fore
SplineSet
532 210 m 1
 170 210 l 1
 174 171 189 142 215 123 c 0
 241 104 279 95 330 95 c 0
 381 95 430 104 476 122 c 1
 501 22 l 1
 476 12 448 4 417 -2 c 0
 386 -7 354 -10 322 -10 c 0
 229 -10 158 13 108 60 c 0
 59 107 34 173 34 260 c 0
 34 345 56 411 102 458 c 0
 146 506 209 530 289 530 c 0
 368 530 429 507 472 461 c 0
 514 415 535 349 535 263 c 0
 535 252 534 234 532 210 c 1
205 400 m 0
 186 379 174 348 170 305 c 1
 406 305 l 1
 403 348 392 379 372 400 c 0
 354 420 326 430 289 430 c 0
 252 430 224 420 205 400 c 0
92 717 m 1
 484 717 l 1
 484 613 l 1
 92 613 l 1
 92 717 l 1
EndSplineSet
EndChar

StartChar: eogonek
Encoding: 281 281 258
Width: 567
Flags: W
LayerCount: 2
Fore
SplineSet
591 -173 m 1
 556 -187 516 -194 473 -194 c 0
 416 -194 372 -184 340 -164 c 0
 310 -143 294 -115 294 -78 c 0
 294 -55 301 -33 314 -10 c 1
 224 -9 155 15 106 62 c 0
 58 109 34 175 34 260 c 0
 34 345 56 411 102 458 c 0
 146 506 209 530 289 530 c 0
 368 530 429 507 472 461 c 0
 514 415 535 349 535 263 c 0
 535 252 534 234 532 210 c 1
 170 210 l 1
 174 171 189 142 215 123 c 0
 241 104 279 95 330 95 c 0
 381 95 430 104 476 122 c 1
 500 24 l 1
 501 24 l 1
 501 22 l 2
 498 21 494 19 489 18 c 0
 443 -9 420 -34 420 -57 c 0
 420 -68 425 -77 436 -82 c 0
 447 -88 462 -91 483 -91 c 0
 514 -91 544 -85 575 -72 c 1
 591 -173 l 1
205 400 m 0
 186 379 174 348 170 305 c 1
 406 305 l 1
 403 348 392 379 372 400 c 0
 354 420 326 430 289 430 c 0
 252 430 224 420 205 400 c 0
EndSplineSet
EndChar

StartChar: uni1EBD
Encoding: 7869 7869 259
Width: 567
Flags: W
LayerCount: 2
Fore
SplineSet
532 210 m 1
 170 210 l 1
 174 171 189 142 215 123 c 0
 241 104 279 95 330 95 c 0
 381 95 430 104 476 122 c 1
 501 22 l 1
 476 12 448 4 417 -2 c 0
 386 -7 354 -10 322 -10 c 0
 229 -10 158 13 108 60 c 0
 59 107 34 173 34 260 c 0
 34 345 56 411 102 458 c 0
 146 506 209 530 289 530 c 0
 368 530 429 507 472 461 c 0
 514 415 535 349 535 263 c 0
 535 252 534 234 532 210 c 1
205 400 m 0
 186 379 174 348 170 305 c 1
 406 305 l 1
 403 348 392 379 372 400 c 0
 354 420 326 430 289 430 c 0
 252 430 224 420 205 400 c 0
346 578 m 0
 326 586 302 597 275 613 c 0
 245 631 224 640 211 640 c 0
 201 640 194 636 190 626 c 0
 186 618 184 601 184 578 c 1
 68 578 l 1
 68 641 77 687 94 717 c 0
 111 747 138 762 174 762 c 0
 209 762 251 747 301 717 c 0
 331 699 353 690 366 690 c 0
 375 690 382 694 386 704 c 0
 390 712 392 729 392 752 c 1
 508 752 l 1
 508 689 500 642 482 612 c 0
 466 583 439 568 403 568 c 0
 386 568 367 572 346 578 c 0
EndSplineSet
EndChar

StartChar: uni0259
Encoding: 601 601 260
Width: 567
Flags: W
LayerCount: 2
Fore
SplineSet
458 460 m 0
 508 413 533 347 533 260 c 0
 533 175 510 109 466 62 c 0
 420 14 358 -10 278 -10 c 0
 199 -10 138 13 96 59 c 0
 53 105 32 171 32 257 c 0
 32 268 33 286 35 310 c 1
 397 310 l 1
 393 349 378 378 352 397 c 0
 326 416 288 425 237 425 c 0
 186 425 137 416 91 398 c 1
 66 498 l 1
 91 508 119 516 150 522 c 0
 181 527 213 530 245 530 c 0
 338 530 409 507 458 460 c 0
362 120 m 0
 381 141 393 172 397 215 c 1
 161 215 l 1
 164 172 176 141 194 120 c 0
 214 100 241 90 278 90 c 0
 315 90 343 100 362 120 c 0
EndSplineSet
EndChar

StartChar: f
Encoding: 102 102 261
Width: 476
Flags: W
LayerCount: 2
Fore
SplineSet
21 413 m 1
 21 520 l 1
 152 520 l 1
 152 563 l 2
 152 694 213 760 336 760 c 0
 373 760 413 755 456 745 c 1
 437 640 l 1
 408 649 382 653 359 653 c 0
 333 653 315 647 306 634 c 0
 296 621 291 598 291 563 c 2
 291 520 l 1
 448 520 l 1
 448 413 l 1
 291 413 l 1
 291 0 l 1
 152 0 l 1
 152 413 l 1
 21 413 l 1
EndSplineSet
EndChar

StartChar: g
Encoding: 103 103 262
Width: 609
Flags: W
LayerCount: 2
Fore
SplineSet
542 520 m 1
 542 50 l 2
 542 -41 518 -110 470 -158 c 0
 423 -206 354 -230 264 -230 c 0
 195 -230 125 -216 53 -189 c 1
 81 -91 l 1
 143 -112 198 -123 245 -123 c 0
 299 -123 339 -109 365 -80 c 0
 391 -52 404 -9 404 50 c 2
 404 67 l 1
 402 67 l 1
 383 42 359 22 331 10 c 0
 303 -4 272 -10 238 -10 c 0
 173 -10 124 13 90 60 c 0
 55 106 38 173 38 260 c 0
 38 347 55 414 90 460 c 0
 124 507 173 530 238 530 c 0
 272 530 304 524 332 510 c 0
 362 498 387 478 408 453 c 1
 410 453 l 1
 411 520 l 1
 542 520 l 1
370 140 m 0
 392 167 404 200 404 241 c 2
 404 279 l 2
 404 320 392 353 370 380 c 0
 346 407 318 420 283 420 c 0
 249 420 222 406 203 378 c 0
 184 349 174 310 174 260 c 0
 174 210 184 171 203 142 c 0
 222 114 249 100 283 100 c 0
 318 100 346 113 370 140 c 0
EndSplineSet
EndChar

StartChar: gbreve
Encoding: 287 287 263
Width: 609
Flags: W
LayerCount: 2
Fore
SplineSet
542 520 m 1
 542 50 l 2
 542 -41 518 -110 470 -158 c 0
 423 -206 354 -230 264 -230 c 0
 195 -230 125 -216 53 -189 c 1
 81 -91 l 1
 143 -112 198 -123 245 -123 c 0
 299 -123 339 -109 365 -80 c 0
 391 -52 404 -9 404 50 c 2
 404 67 l 1
 402 67 l 1
 383 42 359 22 331 10 c 0
 303 -4 272 -10 238 -10 c 0
 173 -10 124 13 90 60 c 0
 55 106 38 173 38 260 c 0
 38 347 55 414 90 460 c 0
 124 507 173 530 238 530 c 0
 272 530 304 524 332 510 c 0
 362 498 387 478 408 453 c 1
 410 453 l 1
 411 520 l 1
 542 520 l 1
370 140 m 0
 392 167 404 200 404 241 c 2
 404 279 l 2
 404 320 392 353 370 380 c 0
 346 407 318 420 283 420 c 0
 249 420 222 406 203 378 c 0
 184 349 174 310 174 260 c 0
 174 210 184 171 203 142 c 0
 222 114 249 100 283 100 c 0
 318 100 346 113 370 140 c 0
192 589 m 0
 160 605 134 627 114 656 c 0
 96 684 85 716 84 752 c 1
 218 752 l 1
 225 695 254 666 304 666 c 0
 353 666 382 695 389 752 c 1
 524 752 l 1
 523 716 512 684 494 656 c 0
 474 627 448 605 416 589 c 0
 382 573 345 565 304 565 c 0
 263 565 226 573 192 589 c 0
EndSplineSet
EndChar

StartChar: gcaron
Encoding: 487 487 264
Width: 609
Flags: W
LayerCount: 2
Fore
SplineSet
542 520 m 1
 542 50 l 2
 542 -41 518 -110 470 -158 c 0
 423 -206 354 -230 264 -230 c 0
 195 -230 125 -216 53 -189 c 1
 81 -91 l 1
 143 -112 198 -123 245 -123 c 0
 299 -123 339 -109 365 -80 c 0
 391 -52 404 -9 404 50 c 2
 404 67 l 1
 402 67 l 1
 383 42 359 22 331 10 c 0
 303 -4 272 -10 238 -10 c 0
 173 -10 124 13 90 60 c 0
 55 106 38 173 38 260 c 0
 38 347 55 414 90 460 c 0
 124 507 173 530 238 530 c 0
 272 530 304 524 332 510 c 0
 362 498 387 478 408 453 c 1
 410 453 l 1
 411 520 l 1
 542 520 l 1
370 140 m 0
 392 167 404 200 404 241 c 2
 404 279 l 2
 404 320 392 353 370 380 c 0
 346 407 318 420 283 420 c 0
 249 420 222 406 203 378 c 0
 184 349 174 310 174 260 c 0
 174 210 184 171 203 142 c 0
 222 114 249 100 283 100 c 0
 318 100 346 113 370 140 c 0
66 770 m 1
 222 770 l 1
 302 617 l 1
 304 617 l 1
 384 770 l 1
 540 770 l 1
 417 560 l 1
 188 560 l 1
 66 770 l 1
EndSplineSet
EndChar

StartChar: gcircumflex
Encoding: 285 285 265
Width: 609
Flags: W
LayerCount: 2
Fore
SplineSet
542 520 m 1
 542 50 l 2
 542 -41 518 -110 470 -158 c 0
 423 -206 354 -230 264 -230 c 0
 195 -230 125 -216 53 -189 c 1
 81 -91 l 1
 143 -112 198 -123 245 -123 c 0
 299 -123 339 -109 365 -80 c 0
 391 -52 404 -9 404 50 c 2
 404 67 l 1
 402 67 l 1
 383 42 359 22 331 10 c 0
 303 -4 272 -10 238 -10 c 0
 173 -10 124 13 90 60 c 0
 55 106 38 173 38 260 c 0
 38 347 55 414 90 460 c 0
 124 507 173 530 238 530 c 0
 272 530 304 524 332 510 c 0
 362 498 387 478 408 453 c 1
 410 453 l 1
 411 520 l 1
 542 520 l 1
370 140 m 0
 392 167 404 200 404 241 c 2
 404 279 l 2
 404 320 392 353 370 380 c 0
 346 407 318 420 283 420 c 0
 249 420 222 406 203 378 c 0
 184 349 174 310 174 260 c 0
 174 210 184 171 203 142 c 0
 222 114 249 100 283 100 c 0
 318 100 346 113 370 140 c 0
188 770 m 1
 417 770 l 1
 540 560 l 1
 384 560 l 1
 304 713 l 1
 302 713 l 1
 222 560 l 1
 66 560 l 1
 188 770 l 1
EndSplineSet
EndChar

StartChar: uni0123
Encoding: 291 291 266
Width: 609
Flags: W
LayerCount: 2
Fore
SplineSet
542 520 m 1
 542 50 l 2
 542 -41 518 -110 470 -158 c 0
 423 -206 354 -230 264 -230 c 0
 195 -230 125 -216 53 -189 c 1
 81 -91 l 1
 143 -112 198 -123 245 -123 c 0
 299 -123 339 -109 365 -80 c 0
 391 -52 404 -9 404 50 c 2
 404 67 l 1
 402 67 l 1
 383 42 359 22 331 10 c 0
 303 -4 272 -10 238 -10 c 0
 173 -10 124 13 90 60 c 0
 55 106 38 173 38 260 c 0
 38 347 55 414 90 460 c 0
 124 507 173 530 238 530 c 0
 272 530 304 524 332 510 c 0
 362 498 387 478 408 453 c 1
 410 453 l 1
 411 520 l 1
 542 520 l 1
370 140 m 0
 392 167 404 200 404 241 c 2
 404 279 l 2
 404 320 392 353 370 380 c 0
 346 407 318 420 283 420 c 0
 249 420 222 406 203 378 c 0
 184 349 174 310 174 260 c 0
 174 210 184 171 203 142 c 0
 222 114 249 100 283 100 c 0
 318 100 346 113 370 140 c 0
300 770 m 1
 430 770 l 1
 347 560 l 1
 177 560 l 1
 300 770 l 1
EndSplineSet
EndChar

StartChar: gdotaccent
Encoding: 289 289 267
Width: 609
Flags: W
LayerCount: 2
Fore
SplineSet
542 520 m 1
 542 50 l 2
 542 -41 518 -110 470 -158 c 0
 423 -206 354 -230 264 -230 c 0
 195 -230 125 -216 53 -189 c 1
 81 -91 l 1
 143 -112 198 -123 245 -123 c 0
 299 -123 339 -109 365 -80 c 0
 391 -52 404 -9 404 50 c 2
 404 67 l 1
 402 67 l 1
 383 42 359 22 331 10 c 0
 303 -4 272 -10 238 -10 c 0
 173 -10 124 13 90 60 c 0
 55 106 38 173 38 260 c 0
 38 347 55 414 90 460 c 0
 124 507 173 530 238 530 c 0
 272 530 304 524 332 510 c 0
 362 498 387 478 408 453 c 1
 410 453 l 1
 411 520 l 1
 542 520 l 1
370 140 m 0
 392 167 404 200 404 241 c 2
 404 279 l 2
 404 320 392 353 370 380 c 0
 346 407 318 420 283 420 c 0
 249 420 222 406 203 378 c 0
 184 349 174 310 174 260 c 0
 174 210 184 171 203 142 c 0
 222 114 249 100 283 100 c 0
 318 100 346 113 370 140 c 0
229 739 m 1
 377 739 l 1
 377 591 l 1
 229 591 l 1
 229 739 l 1
EndSplineSet
EndChar

StartChar: h
Encoding: 104 104 268
Width: 609
Flags: W
LayerCount: 2
Fore
SplineSet
508 480 m 0
 534 446 548 393 548 320 c 2
 548 0 l 1
 410 0 l 1
 410 293 l 2
 410 336 404 367 392 387 c 0
 380 407 361 417 334 417 c 0
 312 417 291 410 271 398 c 0
 251 384 235 367 223 346 c 0
 211 324 205 301 205 277 c 2
 205 0 l 1
 68 0 l 1
 68 750 l 1
 205 750 l 1
 205 449 l 1
 207 449 l 1
 249 503 307 530 381 530 c 0
 438 530 480 513 508 480 c 0
EndSplineSet
EndChar

StartChar: hbar
Encoding: 295 295 269
Width: 673
Flags: W
LayerCount: 2
Fore
SplineSet
572 480 m 0
 599 446 612 393 612 320 c 2
 612 0 l 1
 475 0 l 1
 475 293 l 2
 475 336 469 367 456 387 c 0
 444 407 425 417 399 417 c 0
 377 417 356 410 336 398 c 0
 316 384 300 367 288 346 c 0
 276 324 270 301 270 277 c 2
 270 0 l 1
 132 0 l 1
 132 572 l 1
 26 572 l 1
 26 678 l 1
 132 678 l 1
 132 750 l 1
 270 750 l 1
 270 678 l 1
 446 678 l 1
 446 572 l 1
 270 572 l 1
 270 449 l 1
 272 449 l 1
 314 503 372 530 446 530 c 0
 503 530 545 513 572 480 c 0
EndSplineSet
EndChar

StartChar: hcircumflex
Encoding: 293 293 270
Width: 609
Flags: W
LayerCount: 2
Fore
SplineSet
508 480 m 0
 534 446 548 393 548 320 c 2
 548 0 l 1
 410 0 l 1
 410 293 l 2
 410 336 404 367 392 387 c 0
 380 407 361 417 334 417 c 0
 312 417 291 410 271 398 c 0
 251 384 235 367 223 346 c 0
 211 324 205 301 205 277 c 2
 205 0 l 1
 68 0 l 1
 68 750 l 1
 205 750 l 1
 205 449 l 1
 207 449 l 1
 249 503 307 530 381 530 c 0
 438 530 480 513 508 480 c 0
182 1000 m 1
 411 1000 l 1
 534 790 l 1
 378 790 l 1
 298 943 l 1
 296 943 l 1
 216 790 l 1
 60 790 l 1
 182 1000 l 1
EndSplineSet
EndChar

StartChar: i
Encoding: 105 105 271
Width: 289
Flags: W
LayerCount: 2
Fore
SplineSet
74 743 m 1
 214 743 l 1
 214 617 l 1
 74 617 l 1
 74 743 l 1
74 520 m 1
 214 520 l 1
 214 0 l 1
 74 0 l 1
 74 520 l 1
EndSplineSet
EndChar

StartChar: dotlessi
Encoding: 305 305 272
Width: 289
Flags: W
LayerCount: 2
Fore
SplineSet
74 520 m 1
 214 520 l 1
 214 0 l 1
 74 0 l 1
 74 520 l 1
EndSplineSet
EndChar

StartChar: iacute
Encoding: 237 237 273
Width: 289
Flags: W
LayerCount: 2
Fore
SplineSet
74 520 m 1
 214 520 l 1
 214 0 l 1
 74 0 l 1
 74 520 l 1
170 560 m 1
 40 560 l 1
 123 770 l 1
 293 770 l 1
 170 560 l 1
EndSplineSet
EndChar

StartChar: ibreve
Encoding: 301 301 274
Width: 289
Flags: W
LayerCount: 2
Fore
SplineSet
74 520 m 1
 214 520 l 1
 214 0 l 1
 74 0 l 1
 74 520 l 1
34 589 m 0
 0 605 -26 627 -44 656 c 0
 -64 684 -74 716 -75 752 c 1
 59 752 l 1
 66 695 95 666 145 666 c 0
 194 666 223 695 230 752 c 1
 365 752 l 1
 364 716 354 684 334 656 c 0
 316 627 290 605 256 589 c 0
 224 573 186 565 145 565 c 0
 104 565 66 573 34 589 c 0
EndSplineSet
EndChar

StartChar: icircumflex
Encoding: 238 238 275
Width: 289
Flags: W
LayerCount: 2
Fore
SplineSet
74 520 m 1
 214 520 l 1
 214 0 l 1
 74 0 l 1
 74 520 l 1
29 770 m 1
 258 770 l 1
 381 560 l 1
 225 560 l 1
 145 713 l 1
 143 713 l 1
 63 560 l 1
 -93 560 l 1
 29 770 l 1
EndSplineSet
EndChar

StartChar: uni0209
Encoding: 521 521 276
Width: 289
Flags: W
LayerCount: 2
Fore
SplineSet
74 520 m 1
 214 520 l 1
 214 0 l 1
 74 0 l 1
 74 520 l 1
-124 770 m 1
 46 770 l 1
 129 560 l 1
 -1 560 l 1
 -124 770 l 1
116 770 m 1
 286 770 l 1
 369 560 l 1
 239 560 l 1
 116 770 l 1
EndSplineSet
EndChar

StartChar: idieresis
Encoding: 239 239 277
Width: 289
Flags: W
LayerCount: 2
Fore
SplineSet
74 520 m 1
 214 520 l 1
 214 0 l 1
 74 0 l 1
 74 520 l 1
-59 739 m 1
 89 739 l 1
 89 591 l 1
 -59 591 l 1
 -59 739 l 1
201 739 m 1
 348 739 l 1
 348 591 l 1
 201 591 l 1
 201 739 l 1
EndSplineSet
EndChar

StartChar: i.loclTRK
Encoding: 1114113 -1 278
Width: 289
Flags: W
LayerCount: 2
Fore
SplineSet
74 520 m 1
 214 520 l 1
 214 0 l 1
 74 0 l 1
 74 520 l 1
70 739 m 1
 218 739 l 1
 218 591 l 1
 70 591 l 1
 70 739 l 1
EndSplineSet
EndChar

StartChar: uni1ECB
Encoding: 7883 7883 279
Width: 289
Flags: W
LayerCount: 2
Fore
SplineSet
74 743 m 1
 214 743 l 1
 214 617 l 1
 74 617 l 1
 74 743 l 1
74 520 m 1
 214 520 l 1
 214 0 l 1
 74 0 l 1
 74 520 l 1
70 -71 m 1
 218 -71 l 1
 218 -219 l 1
 70 -219 l 1
 70 -71 l 1
EndSplineSet
EndChar

StartChar: igrave
Encoding: 236 236 280
Width: 289
Flags: W
LayerCount: 2
Fore
SplineSet
74 520 m 1
 214 520 l 1
 214 0 l 1
 74 0 l 1
 74 520 l 1
-4 770 m 1
 166 770 l 1
 249 560 l 1
 119 560 l 1
 -4 770 l 1
EndSplineSet
EndChar

StartChar: uni1EC9
Encoding: 7881 7881 281
Width: 289
Flags: W
LayerCount: 2
Fore
SplineSet
74 520 m 1
 214 520 l 1
 214 0 l 1
 74 0 l 1
 74 520 l 1
180 639 m 0
 180 653 176 662 167 667 c 0
 158 672 142 674 119 674 c 0
 74 674 29 667 -15 654 c 1
 -27 757 l 1
 25 769 82 775 145 775 c 0
 190 775 225 772 249 768 c 0
 273 762 290 754 300 742 c 0
 311 729 316 711 316 688 c 0
 316 671 314 652 310 632 c 0
 306 610 301 592 294 575 c 1
 168 575 l 1
 176 602 180 623 180 639 c 0
EndSplineSet
EndChar

StartChar: uni020B
Encoding: 523 523 282
Width: 289
Flags: W
LayerCount: 2
Fore
SplineSet
74 520 m 1
 214 520 l 1
 214 0 l 1
 74 0 l 1
 74 520 l 1
256 741 m 0
 290 725 316 703 334 674 c 0
 354 646 364 614 365 578 c 1
 230 578 l 1
 223 635 194 664 145 664 c 0
 95 664 66 635 59 578 c 1
 -75 578 l 1
 -74 614 -64 646 -44 674 c 0
 -26 703 0 725 34 741 c 0
 66 757 104 765 145 765 c 0
 186 765 224 757 256 741 c 0
EndSplineSet
EndChar

StartChar: imacron
Encoding: 299 299 283
Width: 289
Flags: W
LayerCount: 2
Fore
SplineSet
74 520 m 1
 214 520 l 1
 214 0 l 1
 74 0 l 1
 74 520 l 1
-52 717 m 1
 340 717 l 1
 340 613 l 1
 -52 613 l 1
 -52 717 l 1
EndSplineSet
EndChar

StartChar: iogonek
Encoding: 303 303 284
Width: 289
Flags: W
LayerCount: 2
Fore
SplineSet
218 739 m 1
 218 591 l 1
 70 591 l 1
 70 739 l 1
 218 739 l 1
304 -197 m 1
 269 -211 230 -218 186 -218 c 0
 129 -218 84 -208 54 -188 c 0
 22 -167 7 -139 7 -102 c 0
 7 -61 29 -20 74 20 c 1
 74 520 l 1
 214 520 l 1
 214 0 l 1
 160 -29 133 -56 133 -81 c 0
 133 -92 138 -101 149 -106 c 0
 160 -112 175 -115 196 -115 c 0
 227 -115 257 -109 288 -96 c 1
 304 -197 l 1
EndSplineSet
EndChar

StartChar: itilde
Encoding: 297 297 285
Width: 289
Flags: W
LayerCount: 2
Fore
SplineSet
74 520 m 1
 214 520 l 1
 214 0 l 1
 74 0 l 1
 74 520 l 1
202 578 m 0
 182 586 158 597 131 613 c 0
 101 631 80 640 67 640 c 0
 57 640 50 636 46 626 c 0
 42 618 40 601 40 578 c 1
 -76 578 l 1
 -76 641 -67 687 -50 717 c 0
 -33 747 -6 762 30 762 c 0
 65 762 107 747 157 717 c 0
 187 699 209 690 222 690 c 0
 231 690 238 694 242 704 c 0
 246 712 248 729 248 752 c 1
 364 752 l 1
 364 689 356 642 338 612 c 0
 322 583 295 568 259 568 c 0
 242 568 223 572 202 578 c 0
EndSplineSet
EndChar

StartChar: j
Encoding: 106 106 286
Width: 342
Flags: W
LayerCount: 2
Fore
SplineSet
128 743 m 1
 268 743 l 1
 268 617 l 1
 128 617 l 1
 128 743 l 1
62 -112 m 0
 88 -104 106 -91 114 -71 c 0
 124 -51 128 -18 128 27 c 2
 128 520 l 1
 268 520 l 1
 268 27 l 2
 268 -41 258 -93 239 -130 c 0
 220 -166 187 -192 141 -207 c 0
 95 -222 29 -230 -57 -230 c 1
 -64 -122 l 1
 -6 -122 36 -118 62 -112 c 0
EndSplineSet
EndChar

StartChar: uni0237
Encoding: 567 567 287
Width: 342
Flags: W
LayerCount: 2
Fore
SplineSet
62 -112 m 0
 88 -104 106 -91 114 -71 c 0
 124 -51 128 -18 128 27 c 2
 128 520 l 1
 268 520 l 1
 268 27 l 2
 268 -41 258 -93 239 -130 c 0
 220 -166 187 -192 141 -207 c 0
 95 -222 29 -230 -57 -230 c 1
 -64 -122 l 1
 -6 -122 36 -118 62 -112 c 0
EndSplineSet
EndChar

StartChar: jcircumflex
Encoding: 309 309 288
Width: 342
Flags: W
LayerCount: 2
Fore
SplineSet
62 -112 m 0
 88 -104 106 -91 114 -71 c 0
 124 -51 128 -18 128 27 c 2
 128 520 l 1
 268 520 l 1
 268 27 l 2
 268 -41 258 -93 239 -130 c 0
 220 -166 187 -192 141 -207 c 0
 95 -222 29 -230 -57 -230 c 1
 -64 -122 l 1
 -6 -122 36 -118 62 -112 c 0
56 770 m 1
 285 770 l 1
 408 560 l 1
 252 560 l 1
 172 713 l 1
 170 713 l 1
 90 560 l 1
 -66 560 l 1
 56 770 l 1
EndSplineSet
EndChar

StartChar: k
Encoding: 107 107 289
Width: 592
Flags: W
LayerCount: 2
Fore
SplineSet
68 750 m 1
 205 750 l 1
 205 312 l 1
 207 312 l 1
 395 520 l 1
 563 520 l 1
 322 270 l 1
 571 0 l 1
 403 0 l 1
 207 228 l 1
 205 228 l 1
 205 0 l 1
 68 0 l 1
 68 750 l 1
EndSplineSet
EndChar

StartChar: uni0137
Encoding: 311 311 290
Width: 592
Flags: W
LayerCount: 2
Fore
SplineSet
68 750 m 1
 205 750 l 1
 205 312 l 1
 207 312 l 1
 395 520 l 1
 563 520 l 1
 322 270 l 1
 571 0 l 1
 403 0 l 1
 207 228 l 1
 205 228 l 1
 205 0 l 1
 68 0 l 1
 68 750 l 1
276 -250 m 1
 146 -250 l 1
 229 -40 l 1
 399 -40 l 1
 276 -250 l 1
EndSplineSet
EndChar

StartChar: kgreenlandic
Encoding: 312 312 291
Width: 592
Flags: W
LayerCount: 2
Fore
SplineSet
68 520 m 1
 205 520 l 1
 205 312 l 1
 207 312 l 1
 395 520 l 1
 563 520 l 1
 322 270 l 1
 571 0 l 1
 403 0 l 1
 207 228 l 1
 205 228 l 1
 205 0 l 1
 68 0 l 1
 68 520 l 1
EndSplineSet
EndChar

StartChar: l
Encoding: 108 108 292
Width: 407
Flags: W
LayerCount: 2
Fore
SplineSet
212 750 m 1
 212 190 l 2
 212 149 216 122 226 110 c 0
 234 96 252 90 278 90 c 0
 310 90 340 96 368 107 c 1
 384 10 l 1
 343 -3 298 -10 251 -10 c 0
 188 -10 143 4 116 31 c 0
 88 58 74 104 74 167 c 2
 74 750 l 1
 212 750 l 1
EndSplineSet
EndChar

StartChar: lacute
Encoding: 314 314 293
Width: 407
Flags: W
LayerCount: 2
Fore
SplineSet
212 750 m 1
 212 190 l 2
 212 149 216 122 226 110 c 0
 234 96 252 90 278 90 c 0
 310 90 340 96 368 107 c 1
 384 10 l 1
 343 -3 298 -10 251 -10 c 0
 188 -10 143 4 116 31 c 0
 88 58 74 104 74 167 c 2
 74 750 l 1
 212 750 l 1
170 790 m 1
 40 790 l 1
 123 1000 l 1
 293 1000 l 1
 170 790 l 1
EndSplineSet
EndChar

StartChar: lcaron
Encoding: 318 318 294
Width: 500
Flags: W
LayerCount: 2
Fore
SplineSet
212 750 m 1
 212 190 l 2
 212 149 216 122 226 110 c 0
 234 96 252 90 278 90 c 0
 310 90 340 96 368 107 c 1
 384 10 l 1
 343 -3 298 -10 251 -10 c 0
 188 -10 143 4 116 31 c 0
 88 58 74 104 74 167 c 2
 74 750 l 1
 212 750 l 1
329 770 m 1
 485 770 l 1
 369 470 l 1
 252 470 l 1
 329 770 l 1
EndSplineSet
EndChar

StartChar: uni013C
Encoding: 316 316 295
Width: 407
Flags: W
LayerCount: 2
Fore
SplineSet
212 750 m 1
 212 190 l 2
 212 149 216 122 226 110 c 0
 234 96 252 90 278 90 c 0
 310 90 340 96 368 107 c 1
 384 10 l 1
 343 -3 298 -10 251 -10 c 0
 188 -10 143 4 116 31 c 0
 88 58 74 104 74 167 c 2
 74 750 l 1
 212 750 l 1
147 -250 m 1
 17 -250 l 1
 100 -40 l 1
 270 -40 l 1
 147 -250 l 1
EndSplineSet
EndChar

StartChar: ldot
Encoding: 320 320 296
Width: 489
Flags: W
LayerCount: 2
Fore
SplineSet
212 750 m 1
 212 190 l 2
 212 149 216 122 226 110 c 0
 234 96 252 90 278 90 c 0
 310 90 340 96 368 107 c 1
 384 10 l 1
 343 -3 298 -10 251 -10 c 0
 188 -10 143 4 116 31 c 0
 88 58 74 104 74 167 c 2
 74 750 l 1
 212 750 l 1
297 451 m 1
 450 451 l 1
 450 298 l 1
 297 298 l 1
 297 451 l 1
EndSplineSet
EndChar

StartChar: uni01C9
Encoding: 457 457 297
Width: 627
Flags: W
LayerCount: 2
Fore
SplineSet
212 750 m 1
 212 190 l 2
 212 149 216 122 226 110 c 0
 234 96 252 90 278 90 c 0
 310 90 340 96 368 107 c 1
 384 10 l 1
 343 -3 298 -10 251 -10 c 0
 188 -10 143 4 116 31 c 0
 88 58 74 104 74 167 c 2
 74 750 l 1
 212 750 l 1
413 743 m 1
 553 743 l 1
 553 617 l 1
 413 617 l 1
 413 743 l 1
347 -112 m 0
 373 -104 390 -91 400 -71 c 0
 408 -51 413 -18 413 27 c 2
 413 520 l 1
 553 520 l 1
 553 27 l 2
 553 -41 543 -93 524 -130 c 0
 505 -166 472 -192 426 -207 c 0
 380 -222 314 -230 228 -230 c 1
 221 -122 l 1
 279 -122 321 -118 347 -112 c 0
EndSplineSet
EndChar

StartChar: lslash
Encoding: 322 322 298
Width: 482
Flags: W
LayerCount: 2
Fore
SplineSet
474 402 m 1
 51 228 l 1
 8 328 l 1
 431 502 l 1
 474 402 l 1
310 750 m 1
 310 190 l 2
 310 149 314 122 324 110 c 0
 332 96 350 90 376 90 c 0
 408 90 438 96 466 107 c 1
 482 10 l 1
 441 -3 396 -10 349 -10 c 0
 286 -10 241 4 214 31 c 0
 186 58 172 104 172 167 c 2
 172 750 l 1
 310 750 l 1
EndSplineSet
EndChar

StartChar: m
Encoding: 109 109 299
Width: 847
Flags: W
LayerCount: 2
Fore
SplineSet
751 480 m 0
 774 447 786 393 786 320 c 2
 786 0 l 1
 652 0 l 1
 652 293 l 2
 652 376 631 417 589 417 c 0
 572 417 556 411 542 398 c 0
 527 386 516 369 507 348 c 0
 498 327 494 304 494 279 c 2
 494 0 l 1
 360 0 l 1
 360 293 l 2
 360 376 339 417 297 417 c 0
 280 417 264 410 249 398 c 0
 234 384 223 367 214 344 c 0
 206 321 202 297 202 270 c 2
 202 0 l 1
 68 0 l 1
 68 520 l 1
 196 520 l 1
 197 453 l 1
 199 453 l 1
 237 504 287 530 348 530 c 0
 409 530 451 504 473 453 c 1
 475 453 l 1
 518 504 573 530 640 530 c 0
 691 530 728 513 751 480 c 0
EndSplineSet
EndChar

StartChar: n
Encoding: 110 110 300
Width: 609
Flags: W
LayerCount: 2
Fore
SplineSet
506 478 m 0
 534 444 548 391 548 320 c 2
 548 0 l 1
 410 0 l 1
 410 293 l 2
 410 335 404 366 390 386 c 0
 378 407 358 417 331 417 c 0
 309 417 288 410 269 398 c 0
 250 384 234 367 222 346 c 0
 211 325 205 302 205 277 c 2
 205 0 l 1
 68 0 l 1
 68 520 l 1
 198 520 l 1
 200 449 l 1
 202 449 l 1
 246 503 305 530 378 530 c 0
 435 530 478 513 506 478 c 0
EndSplineSet
EndChar

StartChar: nacute
Encoding: 324 324 301
Width: 609
Flags: W
LayerCount: 2
Fore
SplineSet
506 478 m 0
 534 444 548 391 548 320 c 2
 548 0 l 1
 410 0 l 1
 410 293 l 2
 410 335 404 366 390 386 c 0
 378 407 358 417 331 417 c 0
 309 417 288 410 269 398 c 0
 250 384 234 367 222 346 c 0
 211 325 205 302 205 277 c 2
 205 0 l 1
 68 0 l 1
 68 520 l 1
 198 520 l 1
 200 449 l 1
 202 449 l 1
 246 503 305 530 378 530 c 0
 435 530 478 513 506 478 c 0
330 560 m 1
 200 560 l 1
 283 770 l 1
 453 770 l 1
 330 560 l 1
EndSplineSet
EndChar

StartChar: ncaron
Encoding: 328 328 302
Width: 609
Flags: W
LayerCount: 2
Fore
SplineSet
506 478 m 0
 534 444 548 391 548 320 c 2
 548 0 l 1
 410 0 l 1
 410 293 l 2
 410 335 404 366 390 386 c 0
 378 407 358 417 331 417 c 0
 309 417 288 410 269 398 c 0
 250 384 234 367 222 346 c 0
 211 325 205 302 205 277 c 2
 205 0 l 1
 68 0 l 1
 68 520 l 1
 198 520 l 1
 200 449 l 1
 202 449 l 1
 246 503 305 530 378 530 c 0
 435 530 478 513 506 478 c 0
68 770 m 1
 224 770 l 1
 304 617 l 1
 306 617 l 1
 386 770 l 1
 542 770 l 1
 419 560 l 1
 190 560 l 1
 68 770 l 1
EndSplineSet
EndChar

StartChar: uni0146
Encoding: 326 326 303
Width: 609
Flags: W
LayerCount: 2
Fore
SplineSet
506 478 m 0
 534 444 548 391 548 320 c 2
 548 0 l 1
 410 0 l 1
 410 293 l 2
 410 335 404 366 390 386 c 0
 378 407 358 417 331 417 c 0
 309 417 288 410 269 398 c 0
 250 384 234 367 222 346 c 0
 211 325 205 302 205 277 c 2
 205 0 l 1
 68 0 l 1
 68 520 l 1
 198 520 l 1
 200 449 l 1
 202 449 l 1
 246 503 305 530 378 530 c 0
 435 530 478 513 506 478 c 0
308 -250 m 1
 178 -250 l 1
 261 -40 l 1
 431 -40 l 1
 308 -250 l 1
EndSplineSet
EndChar

StartChar: eng
Encoding: 331 331 304
Width: 609
Flags: W
LayerCount: 2
Fore
SplineSet
506 478 m 0
 534 444 548 391 548 320 c 2
 548 -14 l 2
 548 -89 534 -143 504 -176 c 0
 476 -208 427 -224 360 -224 c 0
 321 -224 279 -219 235 -208 c 1
 253 -96 l 1
 279 -103 305 -107 331 -107 c 0
 360 -107 380 -100 392 -86 c 0
 404 -72 410 -48 410 -14 c 2
 410 293 l 2
 410 335 404 366 390 386 c 0
 378 407 358 417 331 417 c 0
 309 417 288 410 269 398 c 0
 250 384 234 367 222 346 c 0
 211 325 205 302 205 277 c 2
 205 0 l 1
 68 0 l 1
 68 520 l 1
 198 520 l 1
 200 449 l 1
 202 449 l 1
 246 503 305 530 378 530 c 0
 435 530 478 513 506 478 c 0
EndSplineSet
EndChar

StartChar: uni01CC
Encoding: 460 460 305
Width: 951
Flags: W
LayerCount: 2
Fore
SplineSet
506 478 m 0
 534 444 548 391 548 320 c 2
 548 0 l 1
 410 0 l 1
 410 293 l 2
 410 335 404 366 390 386 c 0
 378 407 358 417 331 417 c 0
 309 417 288 410 269 398 c 0
 250 384 234 367 222 346 c 0
 211 325 205 302 205 277 c 2
 205 0 l 1
 68 0 l 1
 68 520 l 1
 198 520 l 1
 200 449 l 1
 202 449 l 1
 246 503 305 530 378 530 c 0
 435 530 478 513 506 478 c 0
737 743 m 1
 877 743 l 1
 877 617 l 1
 737 617 l 1
 737 743 l 1
671 -112 m 0
 697 -104 714 -91 724 -71 c 0
 732 -51 737 -18 737 27 c 2
 737 520 l 1
 877 520 l 1
 877 27 l 2
 877 -41 867 -93 848 -130 c 0
 829 -166 796 -192 750 -207 c 0
 704 -222 638 -230 552 -230 c 1
 545 -122 l 1
 603 -122 645 -118 671 -112 c 0
EndSplineSet
EndChar

StartChar: ntilde
Encoding: 241 241 306
Width: 609
Flags: W
LayerCount: 2
Fore
SplineSet
506 478 m 0
 534 444 548 391 548 320 c 2
 548 0 l 1
 410 0 l 1
 410 293 l 2
 410 335 404 366 390 386 c 0
 378 407 358 417 331 417 c 0
 309 417 288 410 269 398 c 0
 250 384 234 367 222 346 c 0
 211 325 205 302 205 277 c 2
 205 0 l 1
 68 0 l 1
 68 520 l 1
 198 520 l 1
 200 449 l 1
 202 449 l 1
 246 503 305 530 378 530 c 0
 435 530 478 513 506 478 c 0
362 578 m 0
 342 586 318 597 291 613 c 0
 261 631 240 640 227 640 c 0
 217 640 210 636 206 626 c 0
 202 618 200 601 200 578 c 1
 84 578 l 1
 84 641 93 687 110 717 c 0
 127 747 154 762 190 762 c 0
 225 762 267 747 317 717 c 0
 347 699 369 690 382 690 c 0
 391 690 398 694 402 704 c 0
 406 712 408 729 408 752 c 1
 524 752 l 1
 524 689 516 642 498 612 c 0
 482 583 455 568 419 568 c 0
 402 568 383 572 362 578 c 0
EndSplineSet
EndChar

StartChar: o
Encoding: 111 111 307
Width: 589
Flags: W
LayerCount: 2
Fore
SplineSet
102 60 m 0
 56 107 34 173 34 260 c 0
 34 347 56 413 102 460 c 0
 146 507 211 530 294 530 c 0
 377 530 442 507 487 460 c 0
 532 413 555 347 555 260 c 0
 555 173 532 107 487 60 c 0
 442 13 377 -10 294 -10 c 0
 211 -10 146 13 102 60 c 0
417 260 m 0
 417 369 376 423 294 423 c 0
 253 423 223 409 202 382 c 0
 181 355 171 314 171 260 c 0
 171 206 181 165 202 138 c 0
 223 111 253 97 294 97 c 0
 376 97 417 151 417 260 c 0
EndSplineSet
EndChar

StartChar: oacute
Encoding: 243 243 308
Width: 589
Flags: W
LayerCount: 2
Fore
SplineSet
102 60 m 0
 56 107 34 173 34 260 c 0
 34 347 56 413 102 460 c 0
 146 507 211 530 294 530 c 0
 377 530 442 507 487 460 c 0
 532 413 555 347 555 260 c 0
 555 173 532 107 487 60 c 0
 442 13 377 -10 294 -10 c 0
 211 -10 146 13 102 60 c 0
417 260 m 0
 417 369 376 423 294 423 c 0
 253 423 223 409 202 382 c 0
 181 355 171 314 171 260 c 0
 171 206 181 165 202 138 c 0
 223 111 253 97 294 97 c 0
 376 97 417 151 417 260 c 0
319 560 m 1
 189 560 l 1
 272 770 l 1
 442 770 l 1
 319 560 l 1
EndSplineSet
EndChar

StartChar: obreve
Encoding: 335 335 309
Width: 589
Flags: W
LayerCount: 2
Fore
SplineSet
102 60 m 0
 56 107 34 173 34 260 c 0
 34 347 56 413 102 460 c 0
 146 507 211 530 294 530 c 0
 377 530 442 507 487 460 c 0
 532 413 555 347 555 260 c 0
 555 173 532 107 487 60 c 0
 442 13 377 -10 294 -10 c 0
 211 -10 146 13 102 60 c 0
417 260 m 0
 417 369 376 423 294 423 c 0
 253 423 223 409 202 382 c 0
 181 355 171 314 171 260 c 0
 171 206 181 165 202 138 c 0
 223 111 253 97 294 97 c 0
 376 97 417 151 417 260 c 0
182 589 m 0
 150 605 124 627 104 656 c 0
 86 684 75 716 74 752 c 1
 208 752 l 1
 215 695 244 666 294 666 c 0
 343 666 372 695 379 752 c 1
 514 752 l 1
 513 716 502 684 484 656 c 0
 464 627 438 605 406 589 c 0
 372 573 335 565 294 565 c 0
 253 565 216 573 182 589 c 0
EndSplineSet
EndChar

StartChar: ocircumflex
Encoding: 244 244 310
Width: 589
Flags: W
LayerCount: 2
Fore
SplineSet
102 60 m 0
 56 107 34 173 34 260 c 0
 34 347 56 413 102 460 c 0
 146 507 211 530 294 530 c 0
 377 530 442 507 487 460 c 0
 532 413 555 347 555 260 c 0
 555 173 532 107 487 60 c 0
 442 13 377 -10 294 -10 c 0
 211 -10 146 13 102 60 c 0
417 260 m 0
 417 369 376 423 294 423 c 0
 253 423 223 409 202 382 c 0
 181 355 171 314 171 260 c 0
 171 206 181 165 202 138 c 0
 223 111 253 97 294 97 c 0
 376 97 417 151 417 260 c 0
179 770 m 1
 408 770 l 1
 531 560 l 1
 375 560 l 1
 295 713 l 1
 293 713 l 1
 213 560 l 1
 57 560 l 1
 179 770 l 1
EndSplineSet
EndChar

StartChar: uni1ED1
Encoding: 7889 7889 311
Width: 589
Flags: W
LayerCount: 2
Fore
SplineSet
293 713 m 1
 213 560 l 1
 57 560 l 1
 179 770 l 1
 399 770 l 1
 470 950 l 1
 640 950 l 1
 517 740 l 1
 426 740 l 1
 531 560 l 1
 375 560 l 1
 295 713 l 1
 293 713 l 1
487 460 m 0
 532 413 555 347 555 260 c 0
 555 173 532 107 487 60 c 0
 442 13 377 -10 294 -10 c 0
 211 -10 146 13 102 60 c 0
 56 107 34 173 34 260 c 0
 34 347 56 413 102 460 c 0
 146 507 211 530 294 530 c 0
 377 530 442 507 487 460 c 0
417 260 m 0
 417 369 376 423 294 423 c 0
 253 423 223 409 202 382 c 0
 181 355 171 314 171 260 c 0
 171 206 181 165 202 138 c 0
 223 111 253 97 294 97 c 0
 376 97 417 151 417 260 c 0
EndSplineSet
EndChar

StartChar: uni1ED9
Encoding: 7897 7897 312
Width: 589
Flags: W
LayerCount: 2
Fore
SplineSet
102 60 m 0
 56 107 34 173 34 260 c 0
 34 347 56 413 102 460 c 0
 146 507 211 530 294 530 c 0
 377 530 442 507 487 460 c 0
 532 413 555 347 555 260 c 0
 555 173 532 107 487 60 c 0
 442 13 377 -10 294 -10 c 0
 211 -10 146 13 102 60 c 0
417 260 m 0
 417 369 376 423 294 423 c 0
 253 423 223 409 202 382 c 0
 181 355 171 314 171 260 c 0
 171 206 181 165 202 138 c 0
 223 111 253 97 294 97 c 0
 376 97 417 151 417 260 c 0
220 -71 m 1
 368 -71 l 1
 368 -219 l 1
 220 -219 l 1
 220 -71 l 1
179 770 m 1
 408 770 l 1
 531 560 l 1
 375 560 l 1
 295 713 l 1
 293 713 l 1
 213 560 l 1
 57 560 l 1
 179 770 l 1
EndSplineSet
EndChar

StartChar: uni1ED3
Encoding: 7891 7891 313
Width: 589
Flags: W
LayerCount: 2
Fore
SplineSet
162 740 m 1
 71 740 l 1
 -52 950 l 1
 118 950 l 1
 189 770 l 1
 408 770 l 1
 531 560 l 1
 375 560 l 1
 295 713 l 1
 293 713 l 1
 213 560 l 1
 57 560 l 1
 162 740 l 1
487 460 m 0
 532 413 555 347 555 260 c 0
 555 173 532 107 487 60 c 0
 442 13 377 -10 294 -10 c 0
 211 -10 146 13 102 60 c 0
 56 107 34 173 34 260 c 0
 34 347 56 413 102 460 c 0
 146 507 211 530 294 530 c 0
 377 530 442 507 487 460 c 0
417 260 m 0
 417 369 376 423 294 423 c 0
 253 423 223 409 202 382 c 0
 181 355 171 314 171 260 c 0
 171 206 181 165 202 138 c 0
 223 111 253 97 294 97 c 0
 376 97 417 151 417 260 c 0
EndSplineSet
EndChar

